<?xml version="1.0" encoding="utf-8"?>
<!-- Generator: Adobe Illustrator 22.1.0, SVG Export Plug-In . SVG Version: 6.00 Build 0)  -->
<svg version="1.1" id="Layer_1" xmlns="http://www.w3.org/2000/svg" xmlns:xlink="http://www.w3.org/1999/xlink" x="0px" y="0px"
	 viewBox="0 0 52 52" style="enable-background:new 0 0 52 52;" xml:space="preserve">
<g>
	<g>
		<path d="M30,49.5h-8c-0.4,0-0.9-0.2-1.2-0.5c-0.3-0.3-0.4-0.8-0.4-1.2l0.5-3.7c0-0.3-0.1-0.5-0.4-0.6c-1-0.3-2.1-0.7-3-1.2
			c-0.2-0.1-0.5-0.1-0.7,0.1l-2.3,3c-0.3,0.3-0.7,0.6-1.1,0.6c-0.4,0-0.9-0.1-1.2-0.4l-5.7-5.7c-0.3-0.3-0.5-0.7-0.4-1.2
			c0-0.4,0.2-0.8,0.6-1.1l3-2.3c0.2-0.2,0.3-0.4,0.1-0.7c-0.5-1-0.9-2-1.2-3c-0.1-0.3-0.3-0.4-0.6-0.4l-3.7,0.5
			c-0.4,0.1-0.9-0.1-1.2-0.4c-0.3-0.3-0.5-0.7-0.5-1.2v-8c0-0.4,0.2-0.9,0.5-1.2c0.3-0.3,0.8-0.4,1.2-0.4l3.7,0.5
			c0.2,0,0.5-0.1,0.6-0.4c0.3-1,0.7-2.1,1.2-3c0.1-0.2,0.1-0.5-0.1-0.7l-3-2.3c-0.3-0.3-0.6-0.7-0.6-1.1c0-0.4,0.1-0.9,0.4-1.2
			l5.7-5.7c0.3-0.3,0.7-0.5,1.2-0.4c0.4,0,0.8,0.2,1.1,0.6l2.3,3c0.2,0.2,0.4,0.3,0.7,0.1c1-0.5,2-0.9,3-1.2
			c0.3-0.1,0.4-0.3,0.4-0.6l-0.5-3.7c-0.1-0.4,0.1-0.9,0.4-1.2c0.3-0.3,0.7-0.5,1.2-0.5h8c0.4,0,0.9,0.2,1.2,0.5s0.4,0.8,0.4,1.2
			l-0.5,3.7c0,0.3,0.1,0.5,0.4,0.6c1,0.3,2.1,0.7,3,1.2c0.2,0.1,0.5,0.1,0.7-0.1l2.3-3c0.3-0.3,0.7-0.6,1.1-0.6
			c0.4,0,0.9,0.1,1.2,0.4l5.7,5.7c0.3,0.3,0.5,0.7,0.4,1.2c0,0.4-0.2,0.8-0.6,1.1l-3,2.3c-0.2,0.2-0.3,0.4-0.1,0.7
			c0.5,1,0.9,2,1.2,3c0.1,0.3,0.3,0.4,0.6,0.4l3.7-0.5c0.4-0.1,0.9,0.1,1.2,0.4c0.3,0.3,0.5,0.7,0.5,1.2v8c0,0.4-0.2,0.9-0.5,1.2
			c-0.3,0.3-0.8,0.4-1.2,0.4l-3.7-0.5c-0.3,0-0.5,0.1-0.6,0.4c-0.3,1-0.7,2.1-1.2,3c-0.1,0.2-0.1,0.5,0.1,0.7l3,2.3
			c0.3,0.3,0.6,0.7,0.6,1.1c0,0.4-0.1,0.9-0.4,1.2l-5.7,5.7c-0.3,0.3-0.7,0.5-1.2,0.4c-0.4,0-0.8-0.2-1.1-0.6l-2.3-3
			c-0.2-0.2-0.5-0.3-0.7-0.1c-1,0.5-2,0.9-3,1.2c-0.3,0.1-0.4,0.3-0.4,0.6l0.5,3.7c0.1,0.4-0.1,0.9-0.4,1.2
			C30.9,49.3,30.5,49.5,30,49.5z M17.2,41.2c0.2,0,0.5,0.1,0.7,0.2c0.9,0.5,1.9,0.9,2.9,1.2c0.7,0.2,1.2,0.9,1.1,1.7l-0.5,3.7
			c0,0.2,0,0.3,0.1,0.4s0.2,0.2,0.4,0.2h8c0.2,0,0.3-0.1,0.4-0.2c0.1-0.1,0.2-0.3,0.1-0.4l-0.5-3.7c-0.1-0.7,0.4-1.4,1.1-1.7
			c1-0.3,1.9-0.7,2.9-1.2c0.7-0.4,1.5-0.2,1.9,0.4l2.3,3c0.1,0.1,0.2,0.2,0.4,0.2c0.2,0,0.3,0,0.4-0.2l5.7-5.7
			c0.1-0.1,0.2-0.3,0.2-0.4c0-0.2-0.1-0.3-0.2-0.4l-3-2.3c-0.6-0.5-0.8-1.3-0.4-1.9c0.5-0.9,0.9-1.9,1.2-2.9
			c0.2-0.7,0.9-1.2,1.7-1.1l3.7,0.5c0.2,0,0.3,0,0.4-0.1c0.1-0.1,0.2-0.2,0.2-0.4v-8c0-0.2-0.1-0.3-0.2-0.4
			c-0.1-0.1-0.3-0.2-0.4-0.1l-3.7,0.5c-0.8,0.1-1.4-0.4-1.7-1.1c-0.3-1-0.7-1.9-1.2-2.9c-0.4-0.7-0.2-1.5,0.4-1.9l3-2.3
			c0.1-0.1,0.2-0.2,0.2-0.4s0-0.3-0.2-0.4l-5.7-5.7c-0.1-0.1-0.3-0.2-0.4-0.2c-0.2,0-0.3,0.1-0.4,0.2l-2.3,3
			c-0.5,0.6-1.3,0.8-1.9,0.4c-0.9-0.5-1.9-0.9-2.9-1.2c-0.7-0.2-1.2-0.9-1.1-1.7l0.5-3.7c0-0.2,0-0.3-0.1-0.4
			c-0.1-0.1-0.2-0.2-0.4-0.2h-8c-0.2,0-0.3,0.1-0.4,0.2c-0.1,0.1-0.2,0.3-0.1,0.4l0.5,3.7c0.1,0.7-0.4,1.4-1.1,1.7
			c-1,0.3-1.9,0.7-2.9,1.2c-0.7,0.4-1.5,0.2-1.9-0.4l-2.3-3c-0.1-0.1-0.2-0.2-0.4-0.2c-0.2,0-0.3,0-0.4,0.2l-5.7,5.7
			c-0.1,0.1-0.2,0.3-0.2,0.4s0.1,0.3,0.2,0.4l3,2.3c0.6,0.5,0.8,1.3,0.4,1.9c-0.5,0.9-0.9,1.9-1.2,2.9c-0.2,0.7-0.9,1.2-1.7,1.1
			l-3.7-0.5c-0.2,0-0.3,0-0.4,0.1c-0.1,0.1-0.2,0.2-0.2,0.4v8c0,0.2,0.1,0.3,0.2,0.4c0.1,0.1,0.3,0.2,0.4,0.1l3.7-0.5
			c0.8-0.1,1.4,0.4,1.7,1.1c0.3,1,0.7,1.9,1.2,2.9c0.4,0.7,0.2,1.5-0.4,1.9l-3,2.3c-0.1,0.1-0.2,0.2-0.2,0.4s0,0.3,0.2,0.4l5.7,5.7
			c0.1,0.1,0.3,0.2,0.4,0.2c0.2,0,0.3-0.1,0.4-0.2l2.3-3C16.3,41.4,16.8,41.2,17.2,41.2z"/>
	</g>
	<g>
		<path d="M26,39.5c-7.5,0-13.5-6.1-13.5-13.5c0-7.5,6.1-13.5,13.5-13.5c7.5,0,13.5,6.1,13.5,13.5C39.5,33.5,33.5,39.5,26,39.5z
			 M26,13.5c-6.9,0-12.5,5.6-12.5,12.5S19.1,38.5,26,38.5c6.9,0,12.5-5.6,12.5-12.5S32.9,13.5,26,13.5z"/>
	</g>
	<g>
		<path d="M26,24.7c-2.1,0-3.8-1.7-3.8-3.8S23.9,17,26,17c2.1,0,3.8,1.7,3.8,3.8S28.1,24.7,26,24.7z M26,18c-1.5,0-2.8,1.3-2.8,2.8
			c0,1.5,1.3,2.8,2.8,2.8s2.8-1.3,2.8-2.8C28.8,19.3,27.5,18,26,18z"/>
	</g>
	<g>
		<path d="M31.2,33H20.8c-0.8,0-1.4-0.6-1.4-1.4v-1.2c0-3.6,3-6.6,6.6-6.6s6.6,3,6.6,6.6v1.2C32.6,32.3,32,33,31.2,33z M26,24.7
			c-3.1,0-5.6,2.5-5.6,5.6v1.2c0,0.2,0.2,0.4,0.4,0.4h10.3c0.2,0,0.4-0.2,0.4-0.4v-1.2C31.6,27.2,29.1,24.7,26,24.7z"/>
	</g>
</g>
</svg>
