<svg xmlns="http://www.w3.org/2000/svg" xmlns:xlink="http://www.w3.org/1999/xlink" version="1.1" x="0px" y="0px" viewBox="0 0 52 52" style="enable-background:new 0 0 52 52;" xml:space="preserve"><style type="text/css">
	.st0{fill:none;stroke:#2A3D4F;stroke-width:2;stroke-linecap:round;stroke-linejoin:round;stroke-miterlimit:10;}
</style><g><g><path d="M30.7438354,24.9893799c-1.1558228,1.3269043-2.8514404,2.1705322-4.7434692,2.1705322    c-1.8945313,0-3.5924683-0.8430176-4.7501831-2.1690674c-1.4501343,1.3024902-2.3701782,3.1835938-2.3701782,5.2791748v1.25    c0,1.0700073,0.8800049,1.9400024,1.9500122,1.9400024h10.3400269c1.0699463,0,1.9399414-0.8699951,1.9399414-1.9400024v-1.25    C33.1099854,28.173645,32.1922607,26.2919312,30.7438354,24.9893799z"></path></g><g><path d="M26,25.1600342c2.3699951,0,4.2999878-1.9299927,4.2999878-4.3099976    c0-2.3699951-1.9299927-4.3000488-4.2999878-4.3000488c-2.3800049,0-4.3099976,1.9300537-4.3099976,4.3000488    C21.6900024,23.2300415,23.6199951,25.1600342,26,25.1600342z"></path></g><g><path d="M47.710022,19.9700317l-3.7600098,0.4099731c-0.3300171-1.0700073-0.7700195-2.1099854-1.2799683-3.1599731    l2.9499512-2.2999878c0.460022-0.3600464,0.7399902-0.9000244,0.7800293-1.4800415    c0.039978-0.5800171-0.1799927-1.1599731-0.5900269-1.5700073l-5.6799927-5.6699829    c-0.8300171-0.8400269-2.3300171-0.7399902-3.0499878,0.1799927l-2.3599854,2.9500122    c-0.9899902-0.5200195-2.0300293-0.9500122-3.1500244-1.3200073l0.460022-3.7199707    c0.0799561-0.5800171-0.1000366-1.1600342-0.4899902-1.6000366C31.1500244,2.25,30.6000366,2,30.0100098,2h-8.0299683    c-0.5800171,0-1.1400146,0.25-1.5200195,0.6900024c-0.3900146,0.4400024-0.5700073,1.0200195-0.5,1.6000366l0.4199829,3.7599487    c-1.0700073,0.3300171-2.1099854,0.7600098-3.1699829,1.2800293l-2.289978-2.9400024    c-0.7300415-0.9299927-2.2200317-1.0300293-3.0500488-0.1900024l-5.6799927,5.6699829    c-0.4099731,0.4100342-0.6300049,0.9899902-0.5899658,1.5700073c0.0299683,0.5800171,0.3200073,1.1199951,0.7799683,1.4800415    l2.9500122,2.3599854C8.8099976,18.2700195,8.3800049,19.3200073,8,20.4299927l-3.7099609-0.4599609    C3.0400391,19.8099976,2,20.7800293,2,21.9899902v8.0300293c0,1.210022,1.0599976,2.1799927,2.2900391,2.0200195l3.75-0.4200439    c0.3399658,1.0700073,0.7699585,2.1199951,1.289978,3.1700439l-2.9500122,2.2999878    c-0.4599609,0.3499756-0.75,0.8999634-0.7799683,1.4799805c-0.0400391,0.5800171,0.1799927,1.1500244,0.5899658,1.5700073    l5.6799927,5.6699829c0.8300171,0.8400269,2.3200073,0.7399902,3.0500488-0.1900024l2.3599854-2.9499512    C18.2700195,43.1900024,19.3099976,43.6199951,20.4299927,44l-0.4699707,3.710022    c-0.0700073,0.5800171,0.1099854,1.1699829,0.5,1.6099854C20.8400269,49.75,21.4000244,50,21.9800415,50h8.0299683    c0.5900269,0,1.1400146-0.25,1.5300293-0.6799927c0.3899536-0.4400024,0.5699463-1.0299683,0.4899902-1.6099854l-0.4100342-3.75    c1.0700073-0.3400269,2.1100464-0.7700195,3.1700439-1.289978l2.289978,2.9499512    c0.7199707,0.9299927,2.2199707,1.0300293,3.0499878,0.1900024l5.6799927-5.6699829    c0.4100342-0.4199829,0.6300049-0.9899902,0.5900269-1.5700073c-0.0400391-0.5800171-0.3200073-1.1199951-0.7800293-1.4799805    l-2.9499512-2.3699951C43.1799927,33.7399902,43.6199951,32.7000122,44,31.5800171l3.710022,0.460022    c0.0800171,0.0099487,0.1699829,0.0199585,0.25,0.0199585c0.539978,0,1.0499878-0.2099609,1.4299927-0.5999756    C49.7800293,31.0800171,50,30.5700073,50,30.0200195v-8.0300293C50,20.7800293,48.9400024,19.8099976,47.710022,19.9700317z     M26,40.0400391c-7.7399902,0-14.039978-6.3000488-14.039978-14.0400391S18.2600098,11.9700317,26,11.9700317    S40.0300293,18.2600098,40.0300293,26S33.7399902,40.0400391,26,40.0400391z"></path></g></g></svg>