<!-- Generated by IcoMoon.io -->
<svg version="1.1" xmlns="http://www.w3.org/2000/svg" width="16" height="16" viewBox="0 0 16 16">
<title>account</title>
<path fill="#5a7197" d="M14.287 14.118v-10.33c0-0.102-0.043-0.198-0.118-0.266l-3.703-3.335c-0.065-0.060-0.151-0.092-0.239-0.092h-6.726c-0.987 0-1.789 0.802-1.789 1.789v12.235c0 0.987 0.802 1.789 1.789 1.789h8.998c0.987 0 1.789-0.803 1.789-1.789zM10.585 1.255l2.618 2.357h-1.903c-0.395 0-0.715-0.321-0.715-0.715v-1.642zM2.428 14.118v-12.235c0-0.592 0.482-1.074 1.074-1.074h6.368v2.088c0 0.789 0.642 1.431 1.431 1.431h2.272v9.789c0 0.592-0.482 1.074-1.074 1.074h-8.998c-0.592 0-1.074-0.482-1.074-1.074z"></path>
<path fill="#5a7197" d="M7.945 8.287c0.958 0 1.739-0.78 1.739-1.739s-0.78-1.739-1.739-1.739-1.739 0.78-1.739 1.739 0.78 1.739 1.739 1.739zM7.945 5.525c0.564 0 1.023 0.459 1.023 1.023s-0.459 1.023-1.023 1.023-1.023-0.459-1.023-1.023 0.459-1.023 1.023-1.023z"></path>
<path fill="#5a7197" d="M8.628 8.432h-1.236c-1.334 0-2.42 1.085-2.42 2.42v1.599c0 0.198 0.16 0.358 0.358 0.358h5.339c0.198 0 0.358-0.16 0.358-0.358v-1.637c0-1.313-1.076-2.382-2.398-2.382zM10.311 12.093h-4.624v-1.241c0-0.94 0.765-1.705 1.705-1.705h1.236c0.928 0 1.683 0.748 1.683 1.667v1.28z"></path>
</svg>
