<!-- Generated by IcoMoon.io -->
<svg version="1.1" xmlns="http://www.w3.org/2000/svg" width="16" height="16" viewBox="0 0 16 16">
<title>application</title>
<path fill="#5a7197" d="M5.776 7.84c0.289-0.112 0.608-0.096 0.864 0.064l0.192 0.112c0.112 0.064 0.256 0.047 0.352-0.048l0.48-0.48c0.096-0.096 0.112-0.24 0.048-0.352l-0.112-0.192c-0.16-0.256-0.176-0.576-0.064-0.864 0 0 0 0 0-0.016 0.112-0.289 0.352-0.496 0.656-0.56l0.224-0.048c0.127-0.032 0.224-0.144 0.224-0.289v-0.688c0-0.127-0.096-0.256-0.224-0.289l-0.224-0.048c-0.289-0.080-0.543-0.289-0.656-0.56 0 0 0 0 0-0.016-0.112-0.289-0.096-0.608 0.064-0.864l0.112-0.192c0.064-0.112 0.048-0.256-0.048-0.352l-0.48-0.48c-0.096-0.096-0.24-0.112-0.352-0.048l-0.192 0.112c-0.256 0.16-0.576 0.176-0.864 0.064 0 0 0 0-0.016 0-0.272-0.127-0.48-0.369-0.56-0.672l-0.048-0.224c-0.032-0.127-0.144-0.224-0.289-0.224h-0.688c-0.127 0-0.256 0.096-0.289 0.224l-0.047 0.224c-0.080 0.289-0.289 0.543-0.56 0.656 0 0 0 0-0.016 0-0.289 0.112-0.608 0.096-0.864-0.064l-0.192-0.112c-0.112-0.064-0.256-0.048-0.352 0.048l-0.48 0.48c-0.112 0.096-0.127 0.256-0.064 0.369l0.127 0.192c0.16 0.256 0.176 0.576 0.064 0.864 0 0 0 0 0 0.016-0.112 0.289-0.352 0.496-0.656 0.56l-0.224 0.048c-0.127 0.032-0.224 0.144-0.224 0.289v0.688c0 0.127 0.096 0.256 0.224 0.289l0.224 0.048c0.289 0.080 0.543 0.289 0.656 0.56 0 0 0 0 0 0.016 0.112 0.289 0.096 0.608-0.064 0.864l-0.112 0.192c-0.064 0.112-0.048 0.256 0.048 0.352l0.48 0.48c0.096 0.096 0.24 0.112 0.352 0.047l0.192-0.112c0.256-0.16 0.576-0.176 0.864-0.064 0 0 0 0 0.016 0 0.289 0.112 0.496 0.352 0.56 0.656l0.047 0.224c0.032 0.127 0.144 0.224 0.289 0.224h0.688c0.127 0 0.256-0.096 0.289-0.224l0.048-0.224c0.080-0.289 0.289-0.528 0.576-0.656 0 0 0 0 0 0zM4.528 6.768c-1.072 0-1.936-0.864-1.936-1.936s0.864-1.951 1.936-1.951c1.072 0 1.936 0.864 1.936 1.936s-0.88 1.951-1.936 1.951z"></path>
<path fill="#5a7197" d="M12.336 11.232l-0.192-0.047c-0.256-0.064-0.464-0.24-0.56-0.48 0 0 0 0 0 0-0.096-0.24-0.080-0.512 0.047-0.736l0.096-0.16c0.064-0.096 0.047-0.224-0.032-0.304l-0.416-0.416c-0.080-0.080-0.209-0.096-0.304-0.032l-0.16 0.096c-0.224 0.127-0.496 0.16-0.736 0.047 0 0 0 0 0 0-0.24-0.096-0.416-0.304-0.48-0.56l-0.047-0.192c-0.032-0.112-0.127-0.192-0.24-0.192h-0.592c-0.112 0-0.209 0.080-0.24 0.192l-0.047 0.192c-0.064 0.256-0.24 0.464-0.48 0.56 0 0 0 0 0 0-0.24 0.096-0.512 0.080-0.736-0.047l-0.16-0.096c-0.096-0.064-0.224-0.047-0.304 0.032l-0.416 0.416c-0.080 0.080-0.096 0.209-0.032 0.304l0.096 0.16c0.127 0.224 0.16 0.496 0.048 0.736 0 0 0 0 0 0-0.096 0.24-0.304 0.416-0.56 0.48l-0.192 0.047c-0.112 0.032-0.192 0.127-0.192 0.24v0.592c0 0.112 0.080 0.209 0.192 0.24l0.192 0.047c0.256 0.064 0.464 0.24 0.56 0.48 0 0 0 0 0 0 0.096 0.24 0.080 0.512-0.048 0.736l-0.096 0.16c-0.064 0.096-0.048 0.224 0.032 0.304l0.416 0.416c0.080 0.080 0.207 0.096 0.304 0.032l0.16-0.096c0.224-0.127 0.496-0.16 0.736-0.047 0 0 0 0 0 0 0.24 0.096 0.416 0.304 0.48 0.56l0.047 0.192c0.032 0.112 0.127 0.192 0.24 0.192h0.56c0.112 0 0.207-0.080 0.24-0.192l0.047-0.192c0.064-0.256 0.24-0.464 0.48-0.56 0 0 0 0 0 0 0.24-0.096 0.512-0.080 0.736 0.047l0.16 0.096c0.096 0.064 0.224 0.047 0.304-0.032l0.416-0.416c0.080-0.080 0.096-0.207 0.032-0.304l-0.096-0.16c-0.127-0.224-0.16-0.496-0.047-0.736 0 0 0 0 0 0 0.096-0.24 0.304-0.416 0.56-0.48l0.192-0.047c0.112-0.032 0.192-0.127 0.192-0.24v-0.592c0.032-0.112-0.047-0.224-0.16-0.24zM8.992 13.424c-0.912 0-1.664-0.752-1.664-1.664s0.752-1.664 1.664-1.664c0.912 0 1.664 0.752 1.664 1.664 0 0.928-0.752 1.664-1.664 1.664z"></path>
<path fill="#5a7197" d="M15.44 5.232l-0.16-0.032c-0.207-0.048-0.384-0.207-0.464-0.4 0 0 0 0 0 0-0.080-0.207-0.064-0.432 0.047-0.608l0.080-0.144c0.047-0.080 0.032-0.192-0.032-0.256l-0.352-0.352c-0.064-0.064-0.176-0.080-0.256-0.032l-0.144 0.080c-0.192 0.112-0.416 0.127-0.608 0.047 0 0 0 0 0 0-0.209-0.080-0.352-0.256-0.4-0.464l-0.032-0.16c-0.016-0.096-0.112-0.16-0.207-0.16h-0.496c-0.096 0-0.176 0.064-0.209 0.16l-0.032 0.16c-0.047 0.207-0.209 0.384-0.4 0.464 0 0 0 0 0 0-0.207 0.080-0.432 0.064-0.608-0.047l-0.144-0.080c-0.080-0.047-0.192-0.032-0.256 0.032l-0.352 0.352c-0.064 0.064-0.080 0.176-0.032 0.256l0.080 0.144c0.112 0.192 0.127 0.416 0.047 0.608 0 0 0 0 0 0-0.080 0.207-0.256 0.352-0.464 0.4l-0.16 0.032c-0.096 0.016-0.16 0.112-0.16 0.207v0.496c0 0.096 0.064 0.176 0.16 0.207l0.16 0.032c0.209 0.048 0.384 0.207 0.464 0.4 0 0 0 0 0 0 0.080 0.207 0.064 0.432-0.047 0.608l-0.080 0.144c-0.047 0.080-0.032 0.192 0.032 0.256l0.352 0.352c0.064 0.064 0.176 0.080 0.256 0.032l0.144-0.080c0.192-0.112 0.416-0.127 0.608-0.048 0 0 0 0 0 0 0.207 0.080 0.352 0.256 0.4 0.464l0.032 0.16c0.016 0.096 0.112 0.16 0.209 0.16h0.496c0.096 0 0.176-0.064 0.209-0.16l0.032-0.16c0.047-0.207 0.209-0.384 0.4-0.464 0 0 0 0 0 0 0.207-0.080 0.432-0.064 0.608 0.048l0.144 0.080c0.080 0.048 0.192 0.032 0.256-0.032l0.352-0.352c0.064-0.064 0.080-0.176 0.032-0.256l-0.080-0.127c-0.112-0.192-0.127-0.416-0.047-0.608 0 0 0 0 0 0 0.080-0.207 0.256-0.352 0.464-0.4l0.16-0.032c0.096-0.016 0.16-0.112 0.16-0.207v-0.512c0-0.096-0.064-0.176-0.16-0.207zM12.672 7.072c-0.768 0-1.376-0.623-1.376-1.376s0.623-1.376 1.376-1.376 1.376 0.623 1.376 1.376-0.623 1.376-1.376 1.376z"></path>
</svg>
