<?xml version="1.0" encoding="utf-8"?>
<!-- Generator: Adobe Illustrator 22.1.0, SVG Export Plug-In . SVG Version: 6.00 Build 0)  -->
<svg version="1.1" id="Layer_1" xmlns="http://www.w3.org/2000/svg" xmlns:xlink="http://www.w3.org/1999/xlink" x="0px" y="0px"
	 viewBox="0 0 100 100" style="enable-background:new 0 0 100 100;" xml:space="preserve">
<g>
	<path d="M34.7,48.7c-2.9,0-5.7,1-7.9,2.9c-5.3,4.4-6,12.2-1.7,17.5c2.4,2.9,5.9,4.5,9.6,4.5c2.9,0,5.7-1,7.9-2.9
		c2.6-2.1,4.2-5.1,4.5-8.4c0.3-3.3-0.7-6.6-2.8-9.1C42,50.3,38.5,48.7,34.7,48.7z M46.2,62.2c-0.3,3-1.7,5.8-4.1,7.7
		c-2,1.7-4.6,2.6-7.3,2.6c-3.4,0-6.7-1.5-8.8-4.2c-4-4.9-3.3-12.1,1.5-16.1c2.1-1.7,4.6-2.6,7.3-2.6c3.4,0,6.7,1.5,8.8,4.2
		C45.5,56.2,46.4,59.2,46.2,62.2z"/>
	<path d="M61.8,57.2l-4.4-0.4c-0.3-1.7-0.8-3.3-1.5-4.8l3.4-2.8c1.2-1,1.3-2.7,0.4-3.9L55,39.6c-0.9-1.1-2.8-1.3-3.9-0.4L47.7,42
		c-1.4-0.9-2.9-1.7-4.5-2.4l0.4-4.4c0.1-1.5-1-2.9-2.5-3l-7.3-0.7c-1.5-0.2-2.9,1-3,2.5l-0.4,4.4c-1.7,0.3-3.3,0.8-4.8,1.5l-2.8-3.4
		c-0.9-1.1-2.8-1.3-3.9-0.4l-5.7,4.7c-0.6,0.5-0.9,1.1-1,1.9c-0.1,0.7,0.2,1.5,0.6,2l2.8,3.4c-1,1.4-1.7,2.9-2.4,4.5l-4.4-0.4
		c-1.5-0.1-2.9,1-3,2.5L5.2,62c-0.1,0.7,0.2,1.5,0.6,2C6.3,64.6,7,65,7.7,65l4.4,0.4c0.3,1.7,0.8,3.3,1.5,4.8l-3.4,2.8
		c-1.2,1-1.3,2.7-0.4,3.9l4.7,5.7c0.9,1.1,2.8,1.3,3.9,0.4l3.4-2.8c1.4,0.9,2.9,1.7,4.5,2.4L25.8,87c-0.1,0.7,0.1,1.5,0.6,2
		c0.5,0.6,1.1,0.9,1.9,1l7.3,0.7c0.1,0,0.2,0,0.3,0c1.4,0,2.6-1.1,2.8-2.5l0.4-4.4c1.7-0.3,3.3-0.8,4.8-1.5l2.8,3.4
		c0.9,1.1,2.8,1.3,3.9,0.4l5.7-4.7c0.6-0.5,0.9-1.1,1-1.9c0.1-0.7-0.2-1.5-0.6-2l-2.8-3.4c1-1.4,1.7-2.9,2.4-4.5l4.4,0.4
		c0.1,0,0.2,0,0.3,0c1.4,0,2.6-1.1,2.8-2.5l0.7-7.3C64.4,58.7,63.3,57.4,61.8,57.2z M62.6,67.5c-0.1,1-0.9,1.7-1.9,1.6l-5.2-0.5
		l-0.1,0.4c-0.7,1.7-1.5,3.4-2.6,4.9l-0.2,0.3l3.3,4c0.3,0.4,0.4,0.8,0.4,1.3c0,0.5-0.3,0.9-0.6,1.2L50,85.3
		c-0.7,0.6-1.9,0.5-2.5-0.2l-3.3-4l-0.3,0.2c-1.7,0.8-3.5,1.3-5.3,1.6l-0.4,0.1l-0.5,5.2c-0.1,1-0.9,1.7-1.9,1.6L28.4,89
		c-0.5,0-0.9-0.3-1.2-0.6c-0.3-0.4-0.4-0.8-0.4-1.3l0.5-5.2L27,81.8c-1.7-0.7-3.4-1.5-4.9-2.6l-0.3-0.2l-4,3.3
		c-0.7,0.6-1.9,0.5-2.5-0.2l-4.7-5.7c-0.6-0.8-0.5-1.9,0.2-2.5l4-3.3l-0.2-0.3c-0.8-1.7-1.3-3.5-1.6-5.3l-0.1-0.4L7.8,64
		c-0.5,0-0.9-0.3-1.2-0.6c-0.3-0.4-0.4-0.8-0.4-1.3l0.7-7.3c0.1-1,0.9-1.7,1.9-1.6l5.2,0.5l0.1-0.4c0.7-1.7,1.5-3.4,2.6-4.9l0.2-0.3
		l-3.3-4c-0.3-0.4-0.4-0.8-0.4-1.3c0-0.5,0.3-0.9,0.6-1.2l5.7-4.7c0.7-0.6,1.9-0.5,2.5,0.2l3.3,4l0.3-0.2c1.7-0.8,3.5-1.3,5.3-1.6
		l0.4-0.1l0.5-5.2c0.1-1,0.9-1.7,1.9-1.6l7.3,0.7c1,0.1,1.7,1,1.6,1.9l-0.5,5.2l0.4,0.1c1.7,0.7,3.4,1.5,4.9,2.6l0.3,0.2l4-3.3
		c0.7-0.6,1.9-0.5,2.5,0.2l4.7,5.7c0.6,0.8,0.5,1.9-0.2,2.5l-4,3.3l0.2,0.3c0.8,1.7,1.3,3.5,1.6,5.3l0.1,0.4l5.2,0.5
		c1,0.1,1.7,1,1.6,1.9L62.6,67.5z"/>
	<path d="M94.7,44.2l-1.3-4c-0.3-0.9-1.3-1.5-2.3-1.2l-2.3,0.7c-0.5-0.7-1.1-1.4-1.7-2l1.1-2.1c0.2-0.4,0.3-0.9,0.1-1.4
		c-0.1-0.5-0.5-0.8-0.9-1.1l-3.8-1.9c-0.9-0.4-2-0.1-2.4,0.8l-1.1,2.1C79.4,34,78.5,34,77.6,34l-0.7-2.3c-0.3-0.9-1.3-1.5-2.3-1.2
		l-4,1.3c-0.9,0.3-1.5,1.3-1.2,2.3l0.7,2.3c-0.7,0.5-1.4,1.1-2,1.7L66.1,37c-0.9-0.4-2-0.1-2.4,0.8l-1.9,3.7
		c-0.2,0.4-0.3,0.9-0.1,1.4c0.1,0.5,0.5,0.8,0.9,1.1l2.1,1.1c-0.2,0.9-0.2,1.7-0.2,2.6l-2.3,0.7c-0.9,0.3-1.5,1.3-1.2,2.3l1.3,4
		c0.3,0.9,1.3,1.5,2.3,1.2l2.3-0.7c0.5,0.7,1.1,1.4,1.7,2l-1.1,2.1c-0.5,0.9-0.1,2,0.8,2.4l3.8,1.9c0.9,0.4,2,0.1,2.4-0.8l1.1-2.1
		c0.9,0.2,1.7,0.2,2.6,0.2l0.7,2.3c0.2,0.8,0.9,1.3,1.7,1.3c0.2,0,0.4,0,0.5-0.1l4-1.3c0.9-0.3,1.5-1.3,1.2-2.3l-0.7-2.3
		c0.7-0.5,1.4-1.1,2-1.7l2.1,1.1c0.3,0.1,0.5,0.2,0.8,0.2c0.7,0,1.3-0.4,1.6-1l1.9-3.7c0.5-0.9,0.1-2-0.8-2.4l-2.1-1.1
		c0.2-0.9,0.2-1.7,0.2-2.6l2.3-0.7c0.5-0.1,0.8-0.5,1.1-0.9C94.8,45.2,94.9,44.7,94.7,44.2z M93.7,45.1c-0.1,0.2-0.3,0.3-0.5,0.4
		l-3,1l0,0.4c0,1,0,2.1-0.3,3.1l-0.1,0.4l2.8,1.4c0.4,0.2,0.5,0.7,0.3,1.1l-1.9,3.7C91,57,90.5,57.2,90.1,57l-2.8-1.4L87,55.8
		c-0.7,0.8-1.5,1.5-2.4,2l-0.3,0.2l1,3c0.1,0.4-0.1,0.9-0.5,1l-4,1.3c-0.4,0.1-0.9-0.1-1-0.5l-1-3l-0.4,0c-1.1,0-2.1,0-3.1-0.3
		l-0.4-0.1l-1.4,2.8c-0.2,0.4-0.7,0.5-1.1,0.3l-3.7-1.9c-0.4-0.2-0.6-0.7-0.3-1.1l1.4-2.8l-0.3-0.3c-0.8-0.7-1.5-1.5-2-2.4l-0.2-0.3
		l-3,1c-0.4,0.1-0.9-0.1-1-0.5l-1.3-4c-0.1-0.4,0.1-0.9,0.5-1l3-1l0-0.4c0-1,0-2.1,0.3-3.1l0.1-0.4L62.9,43
		c-0.2-0.1-0.3-0.3-0.4-0.5c-0.1-0.2,0-0.4,0.1-0.6l1.9-3.7c0.2-0.4,0.7-0.5,1.1-0.3l2.8,1.4l0.3-0.3c0.7-0.8,1.5-1.5,2.4-2l0.3-0.2
		l-1-3c-0.1-0.4,0.1-0.9,0.5-1l4-1.3c0.4-0.1,0.9,0.1,1,0.5l1,3l0.4,0c1.1,0,2.1,0,3.1,0.3l0.4,0.1l1.4-2.8c0.2-0.4,0.7-0.5,1.1-0.3
		l3.8,1.9c0.2,0.1,0.3,0.3,0.4,0.5c0.1,0.2,0,0.4-0.1,0.6L86,38l0.3,0.3c0.8,0.7,1.5,1.5,2,2.4l0.2,0.3l3-1c0.4-0.1,0.9,0.1,1,0.5
		l1.3,4C93.8,44.7,93.8,45,93.7,45.1z"/>
	<path d="M77.8,40c-0.8,0-1.5,0.1-2.3,0.4c-3.9,1.2-6,5.4-4.8,9.3c1,3.1,3.8,5.1,7,5.1c0.8,0,1.5-0.1,2.2-0.4
		c1.9-0.6,3.4-1.9,4.3-3.6c0.9-1.8,1.1-3.7,0.5-5.6C83.9,42.1,81.1,40,77.8,40z M83.5,50.3c-0.8,1.5-2.1,2.6-3.7,3.2
		c-0.6,0.2-1.3,0.3-1.9,0.3c-2.8,0-5.2-1.8-6.1-4.4c-1.1-3.3,0.8-6.9,4.1-8c0.6-0.2,1.3-0.3,1.9-0.3c2.8,0,5.2,1.8,6.1,4.4
		C84.4,47.1,84.3,48.8,83.5,50.3z"/>
	<path d="M54.2,30.1c0.7,0,1.3-0.1,1.9-0.3c1.6-0.5,2.9-1.6,3.7-3.1c0.8-1.5,0.9-3.2,0.4-4.8c-0.8-2.6-3.3-4.4-6-4.4
		c-0.7,0-1.3,0.1-1.9,0.3c-1.6,0.5-2.9,1.6-3.7,3.1s-0.9,3.2-0.4,4.8C49.1,28.3,51.5,30.1,54.2,30.1z M49.5,21.3
		c0.6-1.3,1.7-2.2,3.1-2.6c0.5-0.2,1.1-0.3,1.6-0.3c2.3,0,4.3,1.5,5.1,3.7c0.4,1.4,0.3,2.8-0.3,4c-0.7,1.3-1.8,2.2-3.1,2.6
		c-0.5,0.2-1.1,0.3-1.6,0.3c-2.3,0-4.3-1.5-5.1-3.7C48.8,24,48.9,22.6,49.5,21.3z"/>
	<path d="M40.9,24.5c-0.8,0.3-1.3,1.2-1,2l1.1,3.4c0.3,0.8,1.2,1.3,2,1l1.9-0.6c0.4,0.6,0.9,1.1,1.4,1.6l-0.9,1.7
		c-0.2,0.4-0.2,0.8-0.1,1.2c0.1,0.4,0.4,0.7,0.8,0.9l3.2,1.6c0.8,0.4,1.8,0.1,2.2-0.7l0.9-1.7c0.7,0.1,1.4,0.2,2.1,0.2l0.6,1.9
		c0.2,0.7,0.8,1.1,1.5,1.1c0.2,0,0.3,0,0.5-0.1l3.4-1.1c0.8-0.3,1.3-1.2,1-2l-0.6-1.9c0.6-0.4,1.1-0.9,1.6-1.4l1.7,0.9
		c0.8,0.4,1.8,0.1,2.2-0.7l1.6-3.2c0.2-0.4,0.2-0.8,0.1-1.2c-0.1-0.4-0.4-0.7-0.8-0.9l-1.7-0.9c0.1-0.7,0.2-1.4,0.2-2.1l1.9-0.6
		c0.4-0.1,0.7-0.4,0.9-0.8c0.2-0.4,0.2-0.8,0.1-1.2l-1.1-3.4c-0.3-0.8-1.2-1.3-2-1l-1.9,0.6c-0.4-0.6-0.9-1.1-1.4-1.6l0.9-1.7
		c0.4-0.8,0.1-1.8-0.7-2.2L59.3,10c-0.8-0.4-1.8-0.1-2.2,0.7l-0.9,1.7c-0.7-0.1-1.4-0.2-2.1-0.2l-0.6-1.9c-0.3-0.8-1.2-1.3-2-1
		l-3.4,1.1c-0.8,0.3-1.3,1.2-1,2l0.6,1.9c-0.6,0.4-1.1,0.9-1.6,1.4l-1.7-0.9c-0.8-0.4-1.8-0.1-2.2,0.7l-1.6,3.2
		c-0.4,0.8-0.1,1.8,0.7,2.2l1.7,0.9c-0.1,0.7-0.2,1.4-0.2,2.1L40.9,24.5z M43.8,24.2c0-0.9,0-1.8,0.2-2.6l0.1-0.4L41.7,20
		c-0.3-0.2-0.4-0.5-0.3-0.8l1.6-3.2c0.1-0.3,0.5-0.4,0.8-0.3l2.4,1.2l0.3-0.3c0.6-0.6,1.3-1.2,2-1.7l0.3-0.2L48,12.2
		c-0.1-0.3,0.1-0.7,0.4-0.8l3.4-1.1c0.3-0.1,0.7,0.1,0.8,0.4l0.8,2.6l0.4,0c0.9,0,1.8,0,2.6,0.2l0.4,0.1l1.2-2.4
		c0.1-0.3,0.5-0.4,0.8-0.3l3.2,1.6c0.3,0.2,0.4,0.5,0.3,0.8L61,15.8l0.3,0.3c0.6,0.6,1.2,1.3,1.7,2l0.2,0.3l2.6-0.8
		c0.3-0.1,0.7,0.1,0.8,0.4l1.1,3.4c0,0.2,0,0.3,0,0.5c-0.1,0.1-0.2,0.2-0.4,0.3l-2.6,0.8l0,0.4c0,0.9,0,1.8-0.2,2.6l-0.1,0.4
		l2.4,1.2c0.1,0.1,0.2,0.2,0.3,0.4c0,0.2,0,0.3,0,0.5l-1.6,3.2c-0.1,0.3-0.5,0.4-0.8,0.3l-2.4-1.2L62,30.8c-0.6,0.7-1.3,1.2-2,1.7
		l-0.3,0.2l0.8,2.6c0.1,0.3-0.1,0.7-0.4,0.8l-3.4,1.1c-0.3,0.1-0.7-0.1-0.8-0.4l-0.8-2.6l-0.4,0c-0.9,0-1.8,0-2.6-0.2l-0.4-0.1
		l-1.2,2.4c-0.1,0.3-0.5,0.4-0.8,0.3l-3.2-1.6c-0.1-0.1-0.2-0.2-0.3-0.3c0-0.2,0-0.3,0-0.5l1.2-2.4l-0.3-0.3c-0.7-0.6-1.2-1.3-1.7-2
		l-0.2-0.3l-2.6,0.8c-0.3,0.1-0.7-0.1-0.8-0.4l-1.1-3.4c-0.1-0.3,0.1-0.7,0.4-0.8l2.6-0.8L43.8,24.2z"/>
</g>
</svg>
