<?xml version="1.0" encoding="utf-8"?>
<!-- Generator: Adobe Illustrator 25.4.1, SVG Export Plug-In . SVG Version: 6.00 Build 0)  -->
<svg version="1.1" id="Layer_1" xmlns="http://www.w3.org/2000/svg" xmlns:xlink="http://www.w3.org/1999/xlink" x="0px" y="0px"
	 width="16" height="16" viewBox="0 0 32 32" style="enable-background:new 0 0 32 32;" xml:space="preserve">
<style type="text/css">
	.st0{fill:#5A7197;}
</style>
<g>
	<rect x="2" y="10.1" class="st0" width="25" height="1"/>
	<path class="st0" d="M9.2,7.2h-1c-0.8,0-1.4-0.6-1.4-1.4V2.9c0-0.8,0.6-1.4,1.4-1.4h1c0.8,0,1.4,0.6,1.4,1.4v2.9
		C10.6,6.6,10,7.2,9.2,7.2z M8.2,2.4C8,2.4,7.7,2.6,7.7,2.9v2.9C7.7,6,8,6.3,8.2,6.3h1c0.3,0,0.5-0.2,0.5-0.5V2.9
		c0-0.3-0.2-0.5-0.5-0.5H8.2z"/>
	<path class="st0" d="M21.7,7.2h-1c-0.8,0-1.4-0.6-1.4-1.4V2.9c0-0.8,0.6-1.4,1.4-1.4h1c0.8,0,1.4,0.6,1.4,1.4v2.9
		C23.2,6.6,22.5,7.2,21.7,7.2z M20.8,2.4c-0.3,0-0.5,0.2-0.5,0.5v2.9c0,0.3,0.2,0.5,0.5,0.5h1c0.3,0,0.5-0.2,0.5-0.5V2.9
		c0-0.3-0.2-0.5-0.5-0.5H20.8z"/>
	<path class="st0" d="M15.5,17.8h-1.9c-0.5,0-1-0.4-1-1v-1.9c0-0.5,0.4-1,1-1h1.9c0.5,0,1,0.4,1,1v1.9C16.4,17.4,16,17.8,15.5,17.8z
		 M13.5,14.9v1.9h1.9v-1.9H13.5z"/>
	<path class="st0" d="M15.5,23.6h-1.9c-0.5,0-1-0.4-1-1v-1.9c0-0.5,0.4-1,1-1h1.9c0.5,0,1,0.4,1,1v1.9C16.4,23.2,16,23.6,15.5,23.6z
		 M13.5,20.7v1.9h1.9v-1.9H13.5z"/>
	<path class="st0" d="M8.2,17.8H6.3c-0.5,0-1-0.4-1-1v-1.9c0-0.5,0.4-1,1-1h1.9c0.5,0,1,0.4,1,1v1.9C9.2,17.4,8.8,17.8,8.2,17.8z
		 M6.3,14.9v1.9h1.9v-1.9H6.3z"/>
	<path class="st0" d="M8.2,23.6H6.3c-0.5,0-1-0.4-1-1v-1.9c0-0.5,0.4-1,1-1h1.9c0.5,0,1,0.4,1,1v1.9C9.2,23.2,8.8,23.6,8.2,23.6z
		 M6.3,20.7v1.9h1.9v-1.9H6.3z"/>
	<path class="st0" d="M22.7,17.8h-1.9c-0.5,0-1-0.4-1-1v-1.9c0-0.5,0.4-1,1-1h1.9c0.5,0,1,0.4,1,1v1.9
		C23.6,17.4,23.2,17.8,22.7,17.8z M20.8,14.9v1.9h1.9v-1.9H20.8z"/>
	<path class="st0" d="M27,17.9c-0.3,0-0.5-0.2-0.5-0.5V6.3c0-0.8-0.6-1.4-1.4-1.4h-2.4c-0.3,0-0.5-0.2-0.5-0.5s0.2-0.5,0.5-0.5h2.4
		c1.3,0,2.4,1.1,2.4,2.4v11.2C27.5,17.7,27.3,17.9,27,17.9z"/>
	<path class="st0" d="M19.8,4.8h-9.6c-0.3,0-0.5-0.2-0.5-0.5s0.2-0.5,0.5-0.5h9.6c0.3,0,0.5,0.2,0.5,0.5S20.1,4.8,19.8,4.8z"/>
	<path class="st0" d="M17.7,27.9H3.9c-1.3,0-2.4-1.1-2.4-2.4V6.3c0-1.3,1.1-2.4,2.4-2.4h3.4c0.3,0,0.5,0.2,0.5,0.5S7.5,4.8,7.3,4.8
		H3.9c-0.8,0-1.4,0.6-1.4,1.4v19.3c0,0.8,0.6,1.4,1.4,1.4h13.8c0.3,0,0.5,0.2,0.5,0.5S18,27.9,17.7,27.9z"/>
	<path class="st0" d="M23.9,26.5c-0.1,0-0.3-0.1-0.3-0.1l-1.4-1.4c-0.2-0.2-0.2-0.5,0-0.7c0.2-0.2,0.5-0.2,0.7,0l1.1,1.1l2.5-2.5
		c0.2-0.2,0.5-0.2,0.7,0c0.2,0.2,0.2,0.5,0,0.7l-2.9,2.9C24.1,26.4,24,26.5,23.9,26.5z"/>
	<path class="st0" d="M24.6,30.3c-3.2,0-5.8-2.6-5.8-5.8s2.6-5.8,5.8-5.8s5.8,2.6,5.8,5.8C30.4,27.7,27.8,30.3,24.6,30.3z
		 M24.6,19.7c-2.7,0-4.8,2.2-4.8,4.8s2.2,4.8,4.8,4.8s4.8-2.2,4.8-4.8C29.4,21.9,27.3,19.7,24.6,19.7z"/>
</g>
</svg>
