<?xml version="1.0" encoding="utf-8"?>
<!-- Generator: Adobe Illustrator 26.3.1, SVG Export Plug-In . SVG Version: 6.00 Build 0)  -->
<svg version="1.1" id="Layer_1" xmlns="http://www.w3.org/2000/svg" xmlns:xlink="http://www.w3.org/1999/xlink" x="0px" y="0px"
	 viewBox="0 0 100 100" style="enable-background:new 0 0 100 100;" xml:space="preserve">
<style type="text/css">
	.st0{fill:#5A7197;}
</style>
<g>
	<g>
		<path class="st0" d="M50.7,50.9c-1.4-0.2-2.7,0.8-2.8,2.2c-0.2,1.4,0.9,2.6,2.2,2.8c0.1,0,0.2,0,0.3,0c1.3,0,2.4-1,2.5-2.3
			C53.1,52.3,52.1,51,50.7,50.9z"/>
		<path class="st0" d="M48.8,39.6c-0.2-1.4-1.5-2.4-2.8-2.2c-1.4,0.2-2.4,1.5-2.2,2.8c0.2,1.3,1.2,2.2,2.5,2.2c0.1,0,0.2,0,0.3,0
			C48,42.3,49,41,48.8,39.6z"/>
		<path class="st0" d="M47.9,32.7c0,1.4,1.1,2.5,2.5,2.5c0,0,0,0,0,0c1.4,0,2.5-1.1,2.5-2.5c0-1.4-1.1-2.5-2.5-2.5
			C49,30.2,47.9,31.3,47.9,32.7z"/>
		<path class="st0" d="M3.6,69.1c-1.4,0-2.5,1.1-2.5,2.5c0,1.4,1.1,2.5,2.5,2.5c1.4,0,2.5-1.1,2.5-2.5C6.1,70.3,5,69.1,3.6,69.1z"/>
		<path class="st0" d="M4.6,61.5c-1.4-0.2-2.7,0.7-2.9,2.1c-0.2,1.4,0.7,2.7,2.1,2.9c0.1,0,0.3,0,0.4,0c1.2,0,2.3-0.9,2.5-2.1
			C7,63,6,61.7,4.6,61.5z"/>
		<circle class="st0" cx="31.3" cy="71.7" r="2.5"/>
		<path class="st0" d="M34,61.9c-1.3-0.6-2.8,0-3.4,1.3c-0.6,1.3,0,2.8,1.3,3.4c0.3,0.2,0.7,0.2,1,0.2c1,0,1.9-0.6,2.3-1.5
			C35.8,63.9,35.3,62.4,34,61.9z"/>
		<path class="st0" d="M35.8,56.1c-1,0.9-1.1,2.5-0.2,3.6c0.5,0.6,1.2,0.8,1.9,0.8c0.6,0,1.2-0.2,1.7-0.6c1-0.9,1.1-2.5,0.2-3.6
			C38.4,55.2,36.8,55.1,35.8,56.1z"/>
		<path class="st0" d="M43.1,51.7c-1.3,0.4-2.1,1.9-1.6,3.2c0.3,1.1,1.3,1.8,2.4,1.8c0.3,0,0.5,0,0.8-0.1c1.3-0.4,2.1-1.9,1.6-3.2
			C45.9,52,44.4,51.3,43.1,51.7z"/>
		<path class="st0" d="M24.4,69.1c-1.4,0-2.5,1.1-2.5,2.5c0,1.4,1.1,2.5,2.5,2.5c1.4,0,2.5-1.1,2.5-2.5
			C26.9,70.3,25.8,69.1,24.4,69.1z"/>
		<path class="st0" d="M26.3,61.6c-1.3-0.4-2.8,0.3-3.2,1.7c-0.4,1.3,0.3,2.8,1.7,3.2c0.3,0.1,0.5,0.1,0.8,0.1
			c1.1,0,2.1-0.7,2.4-1.8l0,0C28.4,63.5,27.7,62.1,26.3,61.6z"/>
		<path class="st0" d="M27.5,59.2c0.4,0.3,1,0.5,1.5,0.5c0.8,0,1.6-0.4,2.1-1.1c0.8-1.1,0.5-2.7-0.6-3.5c-1.1-0.8-2.7-0.5-3.5,0.6
			C26.1,56.8,26.4,58.4,27.5,59.2z"/>
		<path class="st0" d="M34.3,54.1c0.5,0,1.1-0.2,1.5-0.5c1.1-0.9,1.3-2.4,0.5-3.6c-0.9-1.1-2.4-1.3-3.6-0.5
			c-1.1,0.8-1.3,2.4-0.5,3.6C32.8,53.8,33.5,54.1,34.3,54.1z"/>
		<path class="st0" d="M41.6,50.1c0.3,0,0.6,0,0.9-0.2c1.3-0.5,2-1.9,1.5-3.3c-0.5-1.3-1.9-2-3.2-1.5c-1.3,0.5-2,1.9-1.5,3.2
			C39.6,49.5,40.6,50.1,41.6,50.1z"/>
		<path class="st0" d="M17.5,69.1c-1.4,0-2.5,1.1-2.5,2.5c0,1.4,1.1,2.5,2.5,2.5c1.4,0,2.5-1.1,2.5-2.5C20,70.3,18.9,69.1,17.5,69.1
			z"/>
		<path class="st0" d="M19,61.6c-1.4-0.3-2.7,0.5-3.1,1.9c-0.3,1.4,0.5,2.7,1.9,3.1c0.2,0,0.4,0.1,0.6,0.1c1.1,0,2.2-0.8,2.5-1.9
			C21.2,63.3,20.3,61.9,19,61.6z"/>
		<path class="st0" d="M23.3,58c0.6-1.2,0.2-2.8-1.1-3.4c-1.2-0.7-2.8-0.2-3.4,1.1c-0.6,1.2-0.2,2.8,1.1,3.4
			c0.4,0.2,0.8,0.3,1.2,0.3C22,59.3,22.9,58.8,23.3,58z"/>
		<path class="st0" d="M27.4,52.1c0.9-1.1,0.8-2.7-0.2-3.6c-1.1-0.9-2.7-0.8-3.6,0.2c-0.9,1.1-0.8,2.7,0.2,3.6
			c0.5,0.4,1.1,0.6,1.7,0.6C26.2,52.9,26.9,52.7,27.4,52.1z"/>
		<path class="st0" d="M33.3,43.8c-0.8-1.1-2.4-1.4-3.5-0.6c-1.2,0.8-1.4,2.4-0.6,3.5c0.5,0.7,1.3,1.1,2.1,1.1c0.5,0,1-0.1,1.5-0.5
			C33.8,46.5,34.1,44.9,33.3,43.8z"/>
		<path class="st0" d="M38.9,44c1.3-0.5,1.9-2,1.4-3.3c-0.5-1.3-2-1.9-3.3-1.4c-1.3,0.5-2,2-1.4,3.3c0.4,1,1.4,1.6,2.4,1.6
			C38.3,44.1,38.6,44.1,38.9,44z"/>
		<path class="st0" d="M57,40.1c0.1-1.4-0.9-2.6-2.3-2.8c-1.4-0.1-2.6,0.9-2.8,2.3c-0.1,1.4,0.9,2.6,2.3,2.8c0.1,0,0.2,0,0.3,0
			C55.8,42.4,56.9,41.4,57,40.1z"/>
		<path class="st0" d="M10.2,69.1c-1.4,0-2.5,1.1-2.5,2.5c0,1.4,1.1,2.5,2.5,2.5c1.4,0,2.5-1.1,2.5-2.5
			C12.8,70.3,11.7,69.1,10.2,69.1z"/>
		<path class="st0" d="M11.5,61.5c-1.4-0.3-2.7,0.6-3,2c0,0,0,0,0,0c-0.3,1.4,0.6,2.7,2,3c0.2,0,0.3,0,0.5,0c1.2,0,2.3-0.8,2.5-2
			C13.8,63.1,12.9,61.8,11.5,61.5z"/>
		<path class="st0" d="M14.2,54.3c-1.3-0.5-2.8,0.1-3.3,1.4c0,0,0,0,0,0c-0.5,1.3,0.1,2.8,1.4,3.3c0.3,0.1,0.7,0.2,1,0.2
			c1,0,1.9-0.6,2.4-1.6C16.1,56.3,15.5,54.8,14.2,54.3z"/>
		<path class="st0" d="M18.3,47.7c-1.2-0.8-2.7-0.5-3.5,0.7l0,0c-0.8,1.2-0.5,2.7,0.7,3.5c0.4,0.3,0.9,0.4,1.4,0.4
			c0.8,0,1.6-0.4,2.1-1.1C19.8,50,19.4,48.4,18.3,47.7z"/>
		<path class="st0" d="M20,45.6c0.5,0.5,1.1,0.7,1.8,0.7c0.7,0,1.3-0.2,1.8-0.7c1-1,1-2.6,0-3.6c-1-1-2.6-1-3.6,0
			C19,43,19,44.6,20,45.6z"/>
		<path class="st0" d="M25.6,40.3c0.5,0.7,1.3,1.1,2.1,1.1c0.5,0,1-0.1,1.4-0.4c1.2-0.8,1.5-2.4,0.7-3.5c-0.8-1.2-2.4-1.5-3.5-0.7
			C25.2,37.6,24.9,39.1,25.6,40.3z"/>
		<path class="st0" d="M32.2,36.2c0.4,1,1.3,1.6,2.3,1.6c0.3,0,0.7-0.1,1-0.2c1.3-0.5,1.9-2,1.4-3.3c-0.5-1.3-2-1.9-3.3-1.4
			C32.3,33.4,31.7,34.9,32.2,36.2z"/>
		<path class="st0" d="M39.4,33.5c0.2,1.2,1.3,2,2.5,2c0.2,0,0.3,0,0.5-0.1c1.4-0.3,2.3-1.6,2-3c-0.3-1.4-1.6-2.3-3-2
			C40,30.7,39.2,32.1,39.4,33.5z"/>
		<path class="st0" d="M5.3,58.9C5.6,59,5.9,59,6.1,59c1,0,2-0.7,2.4-1.7C9,56,8.3,54.6,7,54.1c-1.3-0.5-2.8,0.2-3.2,1.6
			C3.3,57,4,58.4,5.3,58.9z"/>
		<path class="st0" d="M8.1,51.7C8.4,51.9,8.9,52,9.3,52c0.9,0,1.8-0.5,2.2-1.3c0.7-1.2,0.2-2.8-1-3.4c-1.2-0.7-2.8-0.2-3.4,1
			C6.4,49.4,6.8,51,8.1,51.7z"/>
		<path class="st0" d="M12,45c0.5,0.4,1,0.5,1.6,0.5c0.7,0,1.5-0.3,2-1c0.9-1.1,0.7-2.7-0.4-3.6c-1.1-0.9-2.7-0.7-3.6,0.4
			C10.7,42.5,10.9,44.1,12,45z"/>
		<path class="st0" d="M18.9,39.9c0.6,0,1.2-0.2,1.7-0.7c1-0.9,1.1-2.5,0.2-3.6c-0.9-1-2.5-1.1-3.6-0.2c-1,0.9-1.1,2.5-0.2,3.6
			C17.5,39.6,18.2,39.9,18.9,39.9z"/>
		<path class="st0" d="M25,35.2c0.5,0,0.9-0.1,1.4-0.4c1.2-0.8,1.5-2.3,0.8-3.5c-0.8-1.2-2.3-1.5-3.5-0.8c-1.2,0.8-1.5,2.3-0.8,3.5
			C23.4,34.8,24.2,35.2,25,35.2z"/>
		<path class="st0" d="M31.9,31.6c0.3,0,0.7-0.1,1-0.2c1.3-0.5,1.9-2,1.4-3.3c-0.5-1.3-2-1.9-3.3-1.3c-1.3,0.5-1.9,2-1.4,3.3
			C29.9,31,30.9,31.6,31.9,31.6z"/>
		<path class="st0" d="M39.2,29.2c0.2,0,0.4,0,0.6-0.1c1.4-0.3,2.2-1.7,1.9-3c-0.3-1.4-1.7-2.2-3-1.9c-1.4,0.3-2.2,1.7-1.9,3
			C37,28.5,38.1,29.2,39.2,29.2z"/>
		<path class="st0" d="M46.9,28.1c0.1,0,0.1,0,0.2,0c1.4-0.1,2.5-1.3,2.4-2.7c-0.1-1.4-1.3-2.5-2.7-2.4c-1.4,0.1-2.5,1.3-2.4,2.7
			C44.4,27.1,45.5,28.1,46.9,28.1z"/>
		<path class="st0" d="M57.6,52c-1.3-0.4-2.8,0.3-3.2,1.6c-0.4,1.3,0.3,2.8,1.6,3.2c0.3,0.1,0.5,0.1,0.8,0.1c1.1,0,2.1-0.7,2.4-1.8
			C59.7,53.8,59,52.4,57.6,52z"/>
		<path class="st0" d="M50.6,43.8c-1.4-0.1-2.6,1-2.7,2.4c-0.1,1.4,1,2.6,2.4,2.6c0,0,0.1,0,0.1,0c1.3,0,2.5-1.1,2.5-2.4
			C53.1,45.1,52,43.9,50.6,43.8z"/>
		<path class="st0" d="M96.3,69.1c-1.4,0-2.5,1.1-2.5,2.5c0,1.4,1.1,2.5,2.5,2.5c1.4,0,2.5-1.1,2.5-2.5
			C98.9,70.3,97.8,69.1,96.3,69.1z"/>
		<path class="st0" d="M95.7,66.5c0.1,0,0.3,0,0.4,0c1.4-0.2,2.3-1.5,2.1-2.9c-0.2-1.4-1.5-2.3-2.9-2.1c-1.4,0.2-2.3,1.5-2.1,2.9
			C93.4,65.6,94.5,66.5,95.7,66.5z"/>
		<path class="st0" d="M53.4,28.1c0,0,0.1,0,0.2,0c1.3,0,2.4-1,2.5-2.4c0.1-1.4-1-2.6-2.4-2.7c-1.4-0.1-2.6,1-2.7,2.4
			C51,26.8,52,28,53.4,28.1z"/>
		<circle class="st0" cx="68.6" cy="71.7" r="2.5"/>
		<path class="st0" d="M68,66.5c1.3-0.6,1.9-2.1,1.3-3.3c-0.6-1.3-2.1-1.9-3.4-1.3c-1.3,0.6-1.9,2.1-1.3,3.3
			c0.4,0.9,1.4,1.5,2.3,1.5C67.3,66.7,67.7,66.6,68,66.5z"/>
		<path class="st0" d="M64.1,56.1c-1-0.9-2.6-0.8-3.6,0.2c-0.9,1-0.8,2.6,0.2,3.6c0.5,0.4,1.1,0.6,1.7,0.6c0.7,0,1.4-0.3,1.9-0.8
			C65.3,58.6,65.2,57,64.1,56.1z"/>
		<path class="st0" d="M75.5,69.1c-1.4,0-2.5,1.1-2.5,2.5c0,1.4,1.1,2.5,2.5,2.5c1.4,0,2.5-1.1,2.5-2.5
			C78.1,70.3,76.9,69.1,75.5,69.1z"/>
		<path class="st0" d="M75.1,66.5c1.3-0.4,2.1-1.8,1.7-3.2c-0.4-1.3-1.8-2.1-3.2-1.7c-1.3,0.4-2.1,1.8-1.7,3.2l0,0
			c0.3,1.1,1.3,1.8,2.4,1.8C74.6,66.6,74.9,66.6,75.1,66.5z"/>
		<path class="st0" d="M71,59.7c0.5,0,1-0.1,1.4-0.5c1.2-0.8,1.4-2.4,0.6-3.5c-0.8-1.1-2.4-1.4-3.5-0.6c-1.1,0.8-1.4,2.4-0.6,3.5
			C69.4,59.3,70.2,59.7,71,59.7z"/>
		<path class="st0" d="M64.1,53.6c0.5,0.4,1,0.5,1.5,0.5c0.8,0,1.5-0.3,2-1c0.9-1.1,0.6-2.7-0.5-3.6c-1.1-0.9-2.7-0.7-3.6,0.5
			C62.8,51.1,63,52.7,64.1,53.6z"/>
		<path class="st0" d="M59.5,45.2c-1.3-0.5-2.8,0.2-3.2,1.5c-0.5,1.3,0.2,2.8,1.5,3.3c0.3,0.1,0.6,0.2,0.9,0.2c1,0,2-0.6,2.4-1.7
			C61.5,47.1,60.8,45.7,59.5,45.2z"/>
		<path class="st0" d="M82.5,69.1c-1.4,0-2.5,1.1-2.5,2.5c0,1.4,1.1,2.5,2.5,2.5c1.4,0,2.5-1.1,2.5-2.5C85,70.3,83.9,69.1,82.5,69.1
			z"/>
		<path class="st0" d="M82.2,66.5c1.4-0.3,2.2-1.7,1.9-3.1c-0.3-1.4-1.7-2.2-3.1-1.9c-1.4,0.3-2.2,1.7-1.9,3.1
			c0.3,1.2,1.3,1.9,2.5,1.9C81.8,66.6,82,66.5,82.2,66.5z"/>
		<path class="st0" d="M81.1,55.6c-0.7-1.2-2.2-1.7-3.4-1.1c-1.2,0.6-1.7,2.2-1.1,3.4c0.5,0.9,1.3,1.4,2.3,1.4
			c0.4,0,0.8-0.1,1.2-0.3C81.2,58.4,81.7,56.9,81.1,55.6z"/>
		<path class="st0" d="M76.1,52.3c1.1-0.9,1.2-2.5,0.2-3.6c-0.9-1.1-2.5-1.2-3.6-0.2c-1.1,0.9-1.2,2.5-0.2,3.6
			c0.5,0.6,1.2,0.9,1.9,0.9C75.1,52.9,75.7,52.7,76.1,52.3z"/>
		<path class="st0" d="M70.8,46.7c0.8-1.1,0.5-2.7-0.6-3.5c-1.1-0.8-2.7-0.5-3.5,0.6c-0.8,1.1-0.5,2.7,0.6,3.5
			c0.4,0.3,1,0.5,1.5,0.5C69.5,47.8,70.3,47.4,70.8,46.7z"/>
		<path class="st0" d="M64.3,42.5c0.5-1.3-0.1-2.8-1.4-3.3c-1.3-0.5-2.8,0.1-3.3,1.4C59.1,42,59.7,43.4,61,44
			c0.3,0.1,0.6,0.2,0.9,0.2C62.9,44.1,63.9,43.5,64.3,42.5z"/>
		<path class="st0" d="M89.7,69.1c-1.4,0-2.5,1.1-2.5,2.5c0,1.4,1.1,2.5,2.5,2.5c1.4,0,2.5-1.1,2.5-2.5
			C92.2,70.3,91.1,69.1,89.7,69.1z"/>
		<path class="st0" d="M88.9,66.5c0.2,0,0.3,0,0.5,0c1.4-0.3,2.3-1.6,2-3c0,0,0,0,0,0c-0.3-1.4-1.6-2.3-3-2c-1.4,0.3-2.3,1.6-2,3
			C86.7,65.7,87.7,66.5,88.9,66.5z"/>
		<path class="st0" d="M87.7,58.9c1.3-0.5,1.9-2,1.4-3.3c0,0,0,0,0,0c-0.5-1.3-2-1.9-3.3-1.4c-1.3,0.5-1.9,2-1.4,3.3
			c0.4,1,1.4,1.6,2.4,1.6C87,59.1,87.3,59.1,87.7,58.9z"/>
		<path class="st0" d="M81.6,47.7c-1.2,0.8-1.5,2.4-0.7,3.5c0.5,0.7,1.3,1.1,2.1,1.1c0.5,0,1-0.1,1.4-0.4c1.2-0.8,1.5-2.4,0.7-3.5
			l0,0C84.4,47.2,82.8,46.9,81.6,47.7z"/>
		<path class="st0" d="M76.4,45.6c0.5,0.5,1.1,0.7,1.8,0.7c0.6,0,1.3-0.2,1.8-0.7c1-1,1-2.6,0-3.6c-1-1-2.6-1-3.6,0
			C75.4,43,75.4,44.6,76.4,45.6z"/>
		<path class="st0" d="M70.1,37.5c-0.8,1.2-0.5,2.7,0.7,3.5c0.4,0.3,0.9,0.4,1.4,0.4c0.8,0,1.6-0.4,2.1-1.1c0.8-1.2,0.5-2.7-0.7-3.5
			C72.5,36,70.9,36.3,70.1,37.5z"/>
		<path class="st0" d="M64.4,37.5c0.3,0.1,0.7,0.2,1,0.2c1,0,1.9-0.6,2.3-1.6c0.5-1.3-0.1-2.8-1.4-3.3c-1.3-0.5-2.8,0.1-3.3,1.4
			C62.5,35.5,63.1,37,64.4,37.5z"/>
		<path class="st0" d="M57.5,35.4c0.2,0,0.3,0.1,0.5,0.1c1.2,0,2.2-0.8,2.5-2c0.3-1.4-0.6-2.7-2-3c-1.4-0.3-2.7,0.6-3,2
			C55.2,33.8,56.1,35.2,57.5,35.4z"/>
		<path class="st0" d="M91.4,57.3c0.4,1,1.3,1.7,2.4,1.7c0.3,0,0.6,0,0.8-0.1c1.3-0.5,2-1.9,1.6-3.2c-0.5-1.3-1.9-2-3.2-1.6
			C91.6,54.6,90.9,56,91.4,57.3z"/>
		<path class="st0" d="M88.4,50.7c0.5,0.8,1.3,1.3,2.2,1.3c0.4,0,0.8-0.1,1.2-0.3c1.2-0.7,1.7-2.2,1-3.5c-0.7-1.2-2.2-1.7-3.4-1
			C88.2,47.9,87.7,49.4,88.4,50.7z"/>
		<path class="st0" d="M86.4,45.5c0.6,0,1.1-0.2,1.6-0.5c1.1-0.9,1.3-2.5,0.4-3.6c-0.9-1.1-2.5-1.3-3.6-0.4
			c-1.1,0.9-1.3,2.5-0.4,3.6C84.9,45.2,85.6,45.5,86.4,45.5z"/>
		<path class="st0" d="M79.4,39.2c0.5,0.4,1.1,0.7,1.7,0.7c0.7,0,1.4-0.3,1.9-0.8c0.9-1,0.9-2.6-0.2-3.6c-1-0.9-2.6-0.9-3.6,0.2
			C78.2,36.7,78.3,38.3,79.4,39.2z"/>
		<path class="st0" d="M73.6,34.8c0.4,0.3,0.9,0.4,1.3,0.4c0.8,0,1.7-0.4,2.1-1.2c0.8-1.2,0.4-2.7-0.8-3.5c-1.2-0.8-2.7-0.4-3.5,0.8
			C72,32.5,72.4,34.1,73.6,34.8z"/>
		<path class="st0" d="M67.1,31.4c0.3,0.1,0.7,0.2,1,0.2c1,0,1.9-0.6,2.3-1.5c0.5-1.3-0.1-2.8-1.4-3.3c-1.3-0.5-2.8,0.1-3.3,1.3
			C65.2,29.4,65.8,30.9,67.1,31.4z"/>
		<path class="st0" d="M60.1,29.2c0.2,0,0.4,0.1,0.6,0.1c1.2,0,2.2-0.8,2.5-2c0.3-1.4-0.5-2.7-1.9-3c-1.4-0.3-2.7,0.5-3,1.9
			C57.9,27.5,58.8,28.9,60.1,29.2z"/>
	</g>
</g>
</svg>
