<?xml version="1.0" encoding="utf-8"?>
<!-- Generator: Adobe Illustrator 27.7.0, SVG Export Plug-In . SVG Version: 6.00 Build 0)  -->
<svg version="1.1" id="Layer_1" xmlns="http://www.w3.org/2000/svg" xmlns:xlink="http://www.w3.org/1999/xlink" x="0px" y="0px"
	 viewBox="0 0 100 100" style="enable-background:new 0 0 100 100;" xml:space="preserve">
<style type="text/css">
	.st0{fill:#6F84A7;}
</style>
<g>
	<path class="st0" d="M50.9,40c-1.8-0.3-3.5,1-3.7,2.9c-0.3,1.8,1.2,3.4,2.9,3.7c0.1,0,0.3,0,0.4,0c1.7,0,3.1-1.3,3.3-3
		C54.1,41.9,52.8,40.2,50.9,40z"/>
	<path class="st0" d="M48.4,25.2c-0.3-1.8-2-3.1-3.7-2.9c-1.8,0.3-3.1,2-2.9,3.7c0.3,1.7,1.6,2.9,3.3,2.9c0.1,0,0.3,0,0.4,0
		C47.4,28.8,48.7,27.1,48.4,25.2z"/>
	<circle class="st0" cx="25.5" cy="67.3" r="3.3"/>
	<path class="st0" d="M29,54.5c-1.7-0.8-3.7,0-4.5,1.7c-0.8,1.7,0,3.7,1.7,4.5c0.4,0.3,0.9,0.3,1.3,0.3c1.3,0,2.5-0.8,3-2
		C31.4,57.1,30.7,55.1,29,54.5z"/>
	<path class="st0" d="M31.4,46.9c-1.3,1.2-1.4,3.3-0.3,4.7c0.7,0.8,1.6,1,2.5,1c0.8,0,1.6-0.3,2.2-0.8c1.3-1.2,1.4-3.3,0.3-4.7
		C34.8,45.7,32.7,45.5,31.4,46.9z"/>
	<path class="st0" d="M41,41.1c-1.7,0.5-2.8,2.5-2.1,4.2c0.4,1.4,1.7,2.4,3.1,2.4c0.4,0,0.7,0,1-0.1c1.7-0.5,2.8-2.5,2.1-4.2
		C44.6,41.5,42.7,40.6,41,41.1z"/>
	<path class="st0" d="M16.4,63.9c-1.8,0-3.3,1.4-3.3,3.3c0,1.8,1.4,3.3,3.3,3.3s3.3-1.4,3.3-3.3C19.7,65.5,18.3,63.9,16.4,63.9z"/>
	<path class="st0" d="M18.9,54.1c-1.7-0.5-3.7,0.4-4.2,2.2C14.2,58,15.1,60,17,60.5c0.4,0.1,0.7,0.1,1,0.1c1.4,0,2.8-0.9,3.1-2.4
		l0,0C21.7,56.6,20.8,54.7,18.9,54.1z"/>
	<path class="st0" d="M20.5,50.9c0.5,0.4,1.3,0.7,2,0.7c1,0,2.1-0.5,2.8-1.4c1-1.4,0.7-3.5-0.8-4.6c-1.4-1-3.5-0.7-4.6,0.8
		C18.7,47.8,19.1,49.9,20.5,50.9z"/>
	<path class="st0" d="M29.4,44.2c0.7,0,1.4-0.3,2-0.7c1.4-1.2,1.7-3.1,0.7-4.7c-1.2-1.4-3.1-1.7-4.7-0.7c-1.4,1-1.7,3.1-0.7,4.7
		C27.4,43.8,28.4,44.2,29.4,44.2z"/>
	<path class="st0" d="M39,39c0.4,0,0.8,0,1.2-0.3c1.7-0.7,2.6-2.5,2-4.3c-0.7-1.7-2.5-2.6-4.2-2c-1.7,0.7-2.6,2.5-2,4.2
		C36.4,38.2,37.7,39,39,39z"/>
	<path class="st0" d="M7.4,63.9c-1.8,0-3.3,1.4-3.3,3.3c0,1.8,1.4,3.3,3.3,3.3s3.3-1.4,3.3-3.3C10.7,65.5,9.2,63.9,7.4,63.9z"/>
	<path class="st0" d="M9.4,54.1c-1.8-0.4-3.5,0.7-4.1,2.5c-0.4,1.8,0.7,3.5,2.5,4.1c0.3,0,0.5,0.1,0.8,0.1c1.4,0,2.9-1,3.3-2.5
		C12.2,56.3,11.1,54.5,9.4,54.1z"/>
	<path class="st0" d="M15,49.3c0.8-1.6,0.3-3.7-1.4-4.5C12,44,9.9,44.6,9.1,46.3c-0.8,1.6-0.3,3.7,1.4,4.5c0.5,0.3,1,0.4,1.6,0.4
		C13.3,51.1,14.5,50.4,15,49.3z"/>
	<path class="st0" d="M20.4,41.6c1.2-1.4,1-3.5-0.3-4.7c-1.4-1.2-3.5-1-4.7,0.3c-1.2,1.4-1,3.5,0.3,4.7c0.7,0.5,1.4,0.8,2.2,0.8
		C18.8,42.7,19.7,42.4,20.4,41.6z"/>
	<path class="st0" d="M28.1,30.7c-1-1.4-3.1-1.8-4.6-0.8c-1.6,1-1.8,3.1-0.8,4.6c0.7,0.9,1.7,1.4,2.8,1.4c0.7,0,1.3-0.1,2-0.7
		C28.8,34.3,29.2,32.2,28.1,30.7z"/>
	<path class="st0" d="M35.4,31c1.7-0.7,2.5-2.6,1.8-4.3c-0.7-1.7-2.6-2.5-4.3-1.8c-1.7,0.7-2.6,2.6-1.8,4.3c0.5,1.3,1.8,2.1,3.1,2.1
		C34.7,31.1,35.1,31.1,35.4,31z"/>
	<path class="st0" d="M59.2,25.9c0.1-1.8-1.2-3.4-3-3.7c-1.8-0.1-3.4,1.2-3.7,3c-0.1,1.8,1.2,3.4,3,3.7c0.1,0,0.3,0,0.4,0
		C57.6,28.9,59,27.6,59.2,25.9z"/>
	<path class="st0" d="M60,41.5c-1.7-0.5-3.7,0.4-4.2,2.1c-0.5,1.7,0.4,3.7,2.1,4.2c0.4,0.1,0.7,0.1,1,0.1c1.4,0,2.8-0.9,3.1-2.4
		C62.7,43.8,61.8,42,60,41.5z"/>
	<path class="st0" d="M50.8,30.7c-1.8-0.1-3.4,1.3-3.5,3.1c-0.1,1.8,1.3,3.4,3.1,3.4h0.1c1.7,0,3.3-1.4,3.3-3.1
		C54.1,32.4,52.6,30.9,50.8,30.7z"/>
	<circle class="st0" cx="74.4" cy="67.3" r="3.3"/>
	<path class="st0" d="M73.6,60.5c1.7-0.8,2.5-2.8,1.7-4.3c-0.8-1.7-2.8-2.5-4.5-1.7c-1.7,0.8-2.5,2.8-1.7,4.3c0.5,1.2,1.8,2,3,2
		C72.7,60.8,73.2,60.6,73.6,60.5z"/>
	<path class="st0" d="M68.5,46.9c-1.3-1.2-3.4-1-4.7,0.3c-1.2,1.3-1,3.4,0.3,4.7c0.7,0.5,1.4,0.8,2.2,0.8c0.9,0,1.8-0.4,2.5-1
		C70.1,50.1,69.9,48,68.5,46.9z"/>
	<path class="st0" d="M83.4,63.9c-1.8,0-3.3,1.4-3.3,3.3c0,1.8,1.4,3.3,3.3,3.3s3.3-1.4,3.3-3.3C86.8,65.5,85.3,63.9,83.4,63.9z"/>
	<path class="st0" d="M82.9,60.5c1.7-0.5,2.8-2.4,2.2-4.2c-0.5-1.7-2.4-2.8-4.2-2.2c-1.7,0.5-2.8,2.4-2.2,4.2l0,0
		c0.4,1.4,1.7,2.4,3.1,2.4C82.3,60.6,82.6,60.6,82.9,60.5z"/>
	<path class="st0" d="M77.5,51.6c0.7,0,1.3-0.1,1.8-0.7c1.6-1,1.8-3.1,0.8-4.6s-3.1-1.8-4.6-0.8c-1.4,1-1.8,3.1-0.8,4.6
		C75.4,51.1,76.5,51.6,77.5,51.6z"/>
	<path class="st0" d="M68.5,43.6c0.7,0.5,1.3,0.7,2,0.7c1,0,2-0.4,2.6-1.3c1.2-1.4,0.8-3.5-0.7-4.7c-1.4-1.2-3.5-0.9-4.7,0.7
		C66.8,40.3,67,42.4,68.5,43.6z"/>
	<path class="st0" d="M62.5,32.6c-1.7-0.7-3.7,0.3-4.2,2c-0.7,1.7,0.3,3.7,2,4.3c0.4,0.1,0.8,0.3,1.2,0.3c1.3,0,2.6-0.8,3.1-2.2
		C65.1,35.1,64.2,33.2,62.5,32.6z"/>
	<path class="st0" d="M92.6,63.9c-1.8,0-3.3,1.4-3.3,3.3c0,1.8,1.4,3.3,3.3,3.3s3.3-1.4,3.3-3.3C95.9,65.5,94.5,63.9,92.6,63.9z"/>
	<path class="st0" d="M92.2,60.5c1.8-0.4,2.9-2.2,2.5-4.1c-0.4-1.8-2.2-2.9-4.1-2.5c-1.8,0.4-2.9,2.2-2.5,4.1
		c0.4,1.6,1.7,2.5,3.3,2.5C91.7,60.6,92,60.5,92.2,60.5z"/>
	<path class="st0" d="M90.8,46.2c-0.9-1.6-2.9-2.2-4.5-1.4c-1.6,0.8-2.2,2.9-1.4,4.5c0.7,1.2,1.7,1.8,3,1.8c0.5,0,1-0.1,1.6-0.4
		C90.9,49.9,91.6,47.9,90.8,46.2z"/>
	<path class="st0" d="M84.2,41.9c1.4-1.2,1.6-3.3,0.3-4.7c-1.2-1.4-3.3-1.6-4.7-0.3c-1.4,1.2-1.6,3.3-0.3,4.7
		c0.7,0.8,1.6,1.2,2.5,1.2C82.9,42.7,83.7,42.4,84.2,41.9z"/>
	<path class="st0" d="M77.3,34.5c1-1.4,0.7-3.5-0.8-4.6s-3.5-0.7-4.6,0.8c-1,1.4-0.7,3.5,0.8,4.6c0.5,0.4,1.3,0.7,2,0.7
		C75.6,36,76.6,35.4,77.3,34.5z"/>
	<path class="st0" d="M68.8,29c0.7-1.7-0.1-3.7-1.8-4.3c-1.7-0.7-3.7,0.1-4.3,1.8c-0.7,1.8,0.1,3.7,1.8,4.5c0.4,0.1,0.8,0.3,1.2,0.3
		C66.9,31.1,68.2,30.3,68.8,29z"/>
</g>
</svg>
