<?xml version="1.0" encoding="utf-8"?>
<!-- Generator: Adobe Illustrator 24.1.1, SVG Export Plug-In . SVG Version: 6.00 Build 0)  -->
<svg version="1.1" id="Layer_1" xmlns="http://www.w3.org/2000/svg" xmlns:xlink="http://www.w3.org/1999/xlink" x="0px" y="0px"
	 width="16" height="16" viewBox="0 0 32 32" style="enable-background:new 0 0 32 32;" xml:space="preserve">
<style type="text/css">
	.st0{fill:#5A7197;}
</style>
<path class="st0" d="M24.3,15.5c0.1-0.3,0.5-0.6,0.9-0.9c0.6-0.5,1.3-1,1.3-1.8s-0.7-1.3-1.4-1.9c-0.4-0.3-0.8-0.6-0.9-0.9
	s0.1-0.8,0.2-1.3c0.2-0.7,0.5-1.6,0-2.2s-1.3-0.6-2.1-0.7c-0.5,0-1,0-1.3-0.2c-0.2-0.2-0.4-0.7-0.5-1.1c-0.3-0.7-0.6-1.6-1.3-1.9
	c-0.7-0.2-1.4,0.3-2.1,0.7c-0.3,0.4-0.8,0.7-1.1,0.7s-0.7-0.3-1.2-0.6c-0.7-0.5-1.4-1-2.1-0.7C12,3,11.7,3.9,11.4,4.6
	c-0.2,0.4-0.3,1-0.5,1.1c-0.2,0.1-0.8,0.1-1.3,0.1c-0.8,0-1.7,0.1-2.1,0.7C7,7.2,7.3,8.1,7.5,8.8c0.2,0.5,0.3,1,0.2,1.3
	c-0.1,0.3-0.5,0.6-0.9,0.9c-0.6,0.5-1.4,1.1-1.4,1.9s0.7,1.3,1.3,1.8c0.4,0.3,0.8,0.6,0.9,0.9c0.1,0.3-0.1,0.8-0.2,1.3
	c-0.2,0.7-0.5,1.6,0,2.2c0.4,0.5,1.2,0.6,1.9,0.7L7,27.1c-0.1,0.2,0,0.4,0.2,0.5c0.2,0.2,0.4,0.2,0.5,0.1l2.9-1.1l1.8,2.6
	c0.1,0.2,0.3,0.2,0.4,0.2c0.1,0,0.1,0,0.1,0c0.2-0.1,0.4-0.2,0.4-0.4l2.2-7.4c0.1-0.1,0.2-0.1,0.3-0.1c0.1,0,0.2,0,0.3,0.1l2.2,7.4
	c0.1,0.2,0.2,0.3,0.4,0.4c0.1,0,0.1,0,0.1,0c0.2,0,0.3-0.1,0.4-0.2l1.8-2.6l2.9,1.1c0.2,0.1,0.4,0.1,0.5-0.1s0.2-0.4,0.2-0.5
	l-2.2-7.4c0.7,0,1.4-0.1,1.9-0.6c0.5-0.6,0.2-1.5,0-2.2C24.4,16.2,24.2,15.7,24.3,15.5L24.3,15.5L24.3,15.5z M12.8,27.6l-1.4-2
	c-0.2-0.2-0.4-0.3-0.6-0.2l-2.3,0.9l2-6.7c0.2,0,0.4,0.1,0.4,0.2c0.2,0.2,0.4,0.7,0.5,1.1c0.3,0.7,0.6,1.6,1.3,1.9
	c0.1,0.1,0.3,0.1,0.4,0.1c0.4,0,0.9-0.2,1.2-0.5C14.3,22.3,12.8,27.6,12.8,27.6z M21.2,25.4c-0.2-0.1-0.5,0-0.6,0.2l-1.4,2l-1.6-5.3
	c0.5,0.3,1.1,0.6,1.7,0.4c0.7-0.3,1.1-1.1,1.3-1.9c0.2-0.5,0.3-1,0.6-1.1c0.1-0.1,0.3-0.1,0.4-0.2l2,6.6L21.2,25.4L21.2,25.4z
	 M23.3,15.1c-0.2,0.6,0,1.2,0.2,1.9c0.2,0.5,0.3,1.1,0.2,1.3c-0.2,0.2-0.8,0.2-1.3,0.2c-0.7,0-1.4,0.1-1.9,0.4c-0.5,0.4-0.7,1-1,1.7
	c-0.2,0.5-0.4,1.1-0.6,1.2c-0.2,0.1-0.7-0.3-1.2-0.6c-0.3-0.2-0.5-0.4-0.8-0.5c0,0,0,0-0.1,0c-0.3-0.2-0.6-0.3-1-0.3
	c-0.6,0-1.2,0.4-1.8,0.8c-0.4,0.3-1,0.6-1.2,0.6c-0.3-0.1-0.5-0.7-0.6-1.2c-0.2-0.6-0.4-1.3-0.9-1.7s-1.2-0.4-1.9-0.4
	c-0.5,0-1.2-0.1-1.3-0.2c-0.2-0.2,0.1-0.9,0.2-1.3c0.2-0.6,0.4-1.3,0.2-1.9c-0.1-0.5-0.6-1-1.1-1.3c-0.4-0.3-1-0.7-1-1
	c0-0.3,0.5-0.7,1-1c0.5-0.4,1.1-0.8,1.2-1.4c0.2-0.6,0-1.2-0.2-1.9C8.3,7.9,8.2,7.3,8.3,7.1c0.2-0.2,0.8-0.2,1.3-0.2
	c0.7,0,1.4-0.1,1.9-0.4c0.5-0.4,0.7-1,0.9-1.7c0.2-0.4,0.4-1.1,0.7-1.2h0.1c0.3,0,0.7,0.3,1.1,0.6c0.6,0.4,1.2,0.8,1.8,0.8
	c0.6,0,1.2-0.4,1.8-0.8c0.4-0.3,1-0.6,1.2-0.6c0.3,0.1,0.5,0.7,0.6,1.2c0.2,0.6,0.4,1.3,1,1.7c0.5,0.4,1.2,0.4,1.9,0.4
	c0.5,0,1.2,0.1,1.3,0.2c0.2,0.2-0.1,0.9-0.2,1.3c-0.2,0.6-0.4,1.3-0.2,1.9s0.7,1,1.2,1.4c0.4,0.3,1,0.7,1,1c0,0.3-0.5,0.7-1,1
	C24,14.1,23.5,14.6,23.3,15.1L23.3,15.1z"/>
<path class="st0" d="M16,6.3c-3.5,0-6.4,2.9-6.4,6.4s2.9,6.4,6.4,6.4s6.4-2.9,6.4-6.4S19.5,6.3,16,6.3z M16,18.1
	c-2.9,0-5.3-2.4-5.3-5.3s2.4-5.3,5.3-5.3s5.3,2.4,5.3,5.3S18.9,18.1,16,18.1z"/>
<path class="st0" d="M19.4,11.4l-2-0.3l-0.9-1.8c-0.2-0.4-0.8-0.4-1,0l-0.9,1.8l-2,0.3c-0.2,0.1-0.4,0.2-0.4,0.4s0,0.4,0.2,0.5
	l1.4,1.4l-0.3,2c-0.1,0.2,0.1,0.4,0.2,0.5s0.4,0.2,0.6,0.1l1.8-1l1.8,1c0.1,0.1,0.2,0.1,0.3,0.1s0.2-0.1,0.3-0.1
	c0.2-0.1,0.3-0.3,0.2-0.5l-0.3-2l1.4-1.4c0.2-0.2,0.2-0.4,0.2-0.5C19.7,11.6,19.6,11.4,19.4,11.4L19.4,11.4z M17.3,13.1
	c-0.1,0.1-0.2,0.3-0.2,0.5l0.2,1.2l-1.1-0.6c-0.1-0.1-0.2-0.1-0.3-0.1s-0.2,0-0.3,0.1l-1.1,0.6l0.2-1.2c0.1-0.2-0.1-0.4-0.2-0.5
	l-0.9-0.9l1.2-0.2c0.2,0,0.3-0.2,0.4-0.3l0.5-1.1l0.5,1.1c0.1,0.2,0.2,0.3,0.4,0.3l1.1,0.2L17.3,13.1L17.3,13.1z"/>
</svg>
