<?xml version="1.0" encoding="utf-8"?>
<!-- Generator: Adobe Illustrator 24.1.1, SVG Export Plug-In . SVG Version: 6.00 Build 0)  -->
<svg version="1.1" id="Layer_1" xmlns="http://www.w3.org/2000/svg" xmlns:xlink="http://www.w3.org/1999/xlink" x="0px" y="0px"
	 width="16" height="16" viewBox="0 0 32 32" style="enable-background:new 0 0 32 32;" xml:space="preserve">
<style type="text/css">
	.st0{fill:#6f84a7;}
</style>
<path class="st0" d="M24,18.3c-0.1,0-0.3,0-0.4,0c-1.6-0.2-2.6-1.7-2.4-3.3c0.1-0.5-0.6-0.8-0.6-0.8c-1.5-0.5-2.2-2.2-1.7-3.7
	c0.4-1.1,1.5-1.9,2.7-1.9c0.3,0,0.7,0.1,1,0.2c1.8,0.6,4.9,3,4.3,7C26.6,17.3,25.4,18.3,24,18.3L24,18.3z M21.5,9.5
	c-0.9,0-1.6,0.5-1.9,1.3c-0.4,1.1,0.2,2.2,1.2,2.6c0.4,0.2,1.3,0.7,1.1,1.7c-0.2,1.1,0.6,2.2,1.7,2.3c1.1,0.2,2.2-0.6,2.3-1.7
	c0.6-3.6-2.2-5.6-3.8-6.2C22,9.5,21.8,9.5,21.5,9.5L21.5,9.5z"/>
<path class="st0" d="M21.7,13.2c-0.9,0-1.6-0.7-1.6-1.6s0.7-1.6,1.6-1.6s1.6,0.7,1.6,1.6C23.3,12.5,22.6,13.2,21.7,13.2L21.7,13.2z
	 M21.7,10.8c-0.5,0-0.8,0.4-0.8,0.8s0.4,0.8,0.8,0.8s0.8-0.4,0.8-0.8C22.5,11.1,22.1,10.8,21.7,10.8z"/>
<path class="st0" d="M16.2,27.3c-0.7,0-1.3-0.1-1.9-0.4C5.1,22.4,4.8,12.7,5.9,8.2c0.5-2,2.3-3.4,4.4-3.4c0.4,0,0.7,0,1.1,0.1
	c2.4,0.6,3.9,3,3.3,5.4c-0.1,0.6-1.3,6.1,3.5,8.4c1.1,0.5,1.9,1.4,2.3,2.6c0.4,1.1,0.3,2.4-0.2,3.4C19.6,26.3,18,27.3,16.2,27.3
	L16.2,27.3z M10.3,5.6c-1.7,0-3.2,1.2-3.6,2.8c-1.1,4.3-0.8,13.6,8,17.7c0.5,0.2,1,0.4,1.6,0.4c1.4,0,2.7-0.8,3.3-2.1
	c0.4-0.9,0.5-1.9,0.1-2.8c-0.3-0.9-1-1.7-1.9-2.1c-5.3-2.5-4.1-8.6-4-9.3c0.5-2-0.7-4-2.7-4.5C10.9,5.6,10.6,5.6,10.3,5.6L10.3,5.6z
	"/>
<path class="st0" d="M10.2,11.4c-1.1,0-2-0.9-2-2s0.9-2,2-2s2,0.9,2,2S11.3,11.4,10.2,11.4z M10.2,8.2C9.5,8.2,9,8.8,9,9.4
	s0.5,1.2,1.2,1.2c0.7,0,1.2-0.5,1.2-1.2S10.8,8.2,10.2,8.2z"/>
<path class="st0" d="M16.2,25c-1.1,0-2-0.9-2-2s0.9-2,2-2s2,0.9,2,2S17.3,25,16.2,25z M16.2,21.8c-0.7,0-1.2,0.5-1.2,1.2
	s0.5,1.2,1.2,1.2c0.7,0,1.2-0.5,1.2-1.2S16.8,21.8,16.2,21.8z"/>
<path class="st0" d="M11.8,21.9c-0.7,0-1.2-0.5-1.2-1.2s0.5-1.2,1.2-1.2S13,20,13,20.7S12.4,21.9,11.8,21.9z M11.8,20.3
	c-0.2,0-0.4,0.2-0.4,0.4s0.2,0.4,0.4,0.4s0.4-0.2,0.4-0.4S12,20.3,11.8,20.3z"/>
<path class="st0" d="M12.3,18.2c-0.6,0-1.1-0.5-1.1-1.1s0.5-1.1,1.1-1.1c0.6,0,1.1,0.5,1.1,1.1S12.9,18.2,12.3,18.2z M12.3,16.9
	c-0.1,0-0.2,0.1-0.2,0.2s0.1,0.2,0.2,0.2c0.1,0,0.2-0.1,0.2-0.2S12.4,16.9,12.3,16.9z"/>
<path class="st0" d="M9.3,15.5c-0.9,0-1.6-0.7-1.6-1.6s0.7-1.6,1.6-1.6s1.6,0.7,1.6,1.6S10.2,15.5,9.3,15.5z M9.3,13
	c-0.5,0-0.8,0.4-0.8,0.8s0.4,0.8,0.8,0.8s0.8-0.4,0.8-0.8S9.8,13,9.3,13z"/>
<path class="st0" d="M11.3,3L12,3.2l-0.7,2.1L10.6,5L11.3,3z"/>
<path class="st0" d="M6.5,4l1.5,1.9L7.3,6.4L5.8,4.5C5.8,4.5,6.5,4,6.5,4z"/>
<path class="st0" d="M3.9,8.5L6.1,9L6,9.8L3.7,9.3C3.7,9.3,3.9,8.5,3.9,8.5z"/>
<path class="st0" d="M5.8,12.9l0.2,0.8l-2.3,0.5l-0.2-0.8C3.4,13.4,5.8,12.9,5.8,12.9z"/>
<path class="st0" d="M6.3,16.8l0.3,0.7l-2.1,1l-0.3-0.7L6.3,16.8z"/>
<path class="st0" d="M7.9,20.4l0.2,0.8l-1.9,0.6L6,21L7.9,20.4z"/>
<path class="st0" d="M9.2,25.7l-0.6-0.6l1.6-1.6l0.6,0.6L9.2,25.7z"/>
<path class="st0" d="M13,25.7l0.7,0.4l-1,2.2l-0.7-0.4L13,25.7z"/>
<path class="st0" d="M17.4,28.6l-0.6-1.8l0.8-0.2l0.6,1.8L17.4,28.6z"/>
<path class="st0" d="M20,24.5l2,1.1l-0.4,0.7l-2-1.1L20,24.5z"/>
<path class="st0" d="M22.2,20.3l0.2,0.8l-2.3,0.7L20,21L22.2,20.3z"/>
<path class="st0" d="M18.7,16.9l0.6,0.6l-1.5,1.6l-0.6-0.6L18.7,16.9z"/>
<path class="st0" d="M14.7,15l-0.3-0.8l1.9-0.8l0.3,0.8L14.7,15z"/>
<path class="st0" d="M14.3,9.8l2.2,0.3l-0.1,0.8l-2.2-0.3C14.2,10.6,14.3,9.8,14.3,9.8z"/>
<path class="st0" d="M15.5,4.9L16,5.5L14,7.3l-0.5-0.6C13.4,6.7,15.5,4.9,15.5,4.9z"/>
<path class="st0" d="M20.5,13.5l0.3,0.8l-2.4,0.9l-0.3-0.8L20.5,13.5z"/>
<path class="st0" d="M22.1,17l0.6,0.6l-1.1,1.1l-0.6-0.6L22.1,17z"/>
<path class="st0" d="M20.8,7.2h0.8v2h-0.8V7.2z"/>
<path class="st0" d="M25.7,9.6l0.4,0.7l-1.3,0.8l-0.4-0.7L25.7,9.6z"/>
<path class="st0" d="M28.2,12.6l0.2,0.8l-1.8,0.6l-0.2-0.8L28.2,12.6z"/>
<path class="st0" d="M25.9,17l1.8,1.6l-0.5,0.6l-1.8-1.6L25.9,17z"/>
</svg>
