<?xml version="1.0" encoding="utf-8"?>
<!-- Generator: Adobe Illustrator 27.1.1, SVG Export Plug-In . SVG Version: 6.00 Build 0)  -->
<svg version="1.1" id="Layer_1" xmlns="http://www.w3.org/2000/svg" xmlns:xlink="http://www.w3.org/1999/xlink" x="0px" y="0px"
	 viewBox="0 0 1080 1080" style="enable-background:new 0 0 1080 1080;" xml:space="preserve">
<style type="text/css">
	.st0{display:none;fill:#FFFFFF;}
	.st1{fill:none;stroke:#6F84A7;stroke-width:90;stroke-linecap:round;stroke-linejoin:round;stroke-miterlimit:180;}
</style>
<g id="_x36_a7ad859-0ffc-4823-99ae-8bdbdbc56832" transform="matrix(1 0 0 1 540 540)">
	<rect x="-540" y="-540" vector-effect="non-scaling-stroke" class="st0" width="1080" height="1080"/>
</g>
<g id="_x34_e480c85-0bac-46c9-83c2-3e31406d6623" transform="matrix(1 0 0 1 540 540)">
</g>
<path class="st1" d="M180,219.1c0-21.6,20.1-39.1,45-39.1h630c24.9,0,45,17.5,45,39.1v78.3c0,21.6-20.1,39.1-45,39.1H225
	c-24.9,0-45-17.5-45-39.1V219.1z M180,500.9c0-21.6,20.1-39.1,45-39.1h630c24.9,0,45,17.5,45,39.1v78.3c0,21.6-20.1,39.1-45,39.1
	H225c-24.9,0-45-17.5-45-39.1V500.9z M180,784.6c0-21.6,20.1-39.1,45-39.1h630c24.9,0,45,17.5,45,39.1v78.3
	c0,21.6-20.1,39.1-45,39.1H225c-24.9,0-45-17.5-45-39.1V784.6z"/>
</svg>
