<!-- Generated by IcoMoon.io -->
<svg version="1.1" xmlns="http://www.w3.org/2000/svg" width="16" height="16" viewBox="0 0 16 16">
<title>blog</title>
<path fill="#5a7197" d="M14.052 4.934v0c0-0.099-0.039-0.188-0.104-0.253l-4.125-4.217c-0.066-0.068-0.158-0.109-0.259-0.109-0.002 0-0.003 0-0.006 0h-5.752c-1.017 0-1.841 0.824-1.841 1.841v0 11.608c0 1.017 0.824 1.841 1.841 1.841v0h8.404c1.017 0 1.841-0.824 1.841-1.841v0zM9.904 1.592l3.066 3.147h-3.066zM12.205 14.909h-8.416c-0.61 0-1.104-0.495-1.104-1.104v0 0-11.608c0.003-0.607 0.497-1.099 1.104-1.099 0 0 0 0 0 0h5.361v3.647c0 0.406 0.33 0.736 0.736 0.736v0h3.411v8.324c-0.003 0.602-0.487 1.089-1.086 1.099h-0.001z"></path>
<path fill="#5a7197" d="M6.24 9.726h-2.755v-2.773h2.755zM4.060 9.15h1.605v-1.622h-1.605z"></path>
<path fill="#5a7197" d="M6.24 13.591h-2.755v-2.778h2.755zM4.060 13.016h1.605v-1.628h-1.605z"></path>
<path fill="#5a7197" d="M7.235 6.953h4.987v0.575h-4.987v-0.575z"></path>
<path fill="#5a7197" d="M7.235 8.058h4.987v0.575h-4.987v-0.575z"></path>
<path fill="#5a7197" d="M7.235 9.162h4.987v0.575h-4.987v-0.575z"></path>
<path fill="#5a7197" d="M7.235 10.813h4.987v0.575h-4.987v-0.575z"></path>
<path fill="#5a7197" d="M7.235 11.917h4.987v0.575h-4.987v-0.575z"></path>
<path fill="#5a7197" d="M7.235 13.016h4.987v0.575h-4.987v-0.575z"></path>
</svg>
