<svg xmlns="http://www.w3.org/2000/svg" xmlns:xlink="http://www.w3.org/1999/xlink" xmlns:sketch="http://www.bohemiancoding.com/sketch/ns" viewBox="0 0 30 30" version="1.1" x="0px" y="0px"><title>file_text_document_page_paper_files_text-doc-collection</title><desc>Created with Sketch.</desc><g stroke="none" stroke-width="1" fill="none" fill-rule="evenodd" sketch:type="MSPage"><g sketch:type="MSArtboardGroup" transform="translate(-360.000000, -315.000000)" fill="#000000"><path d="M366,321 L366,319 L368,319 L368,316 L381,316 L386,321 L386,340 L384,340 L384,340 L384,342 L382,342 L382,344 L364,344 L364,321 L366,321 Z M366,322 L366,342 L381,342 L381,343 L365,343 L365,322 L366,322 Z M383,340 L368,340 L368,320 L367,320 L367,341 L383,341 L383,340 L383,340 Z M380,317 L369,317 L369,339 L385,339 L385,322 L380,322 L380,317 L380,317 Z M381,317.4 L384.6,321 L381,321 L381,317.4 L381,317.4 Z M371,328 L379,328 L379,329 L371,329 L371,328 Z M371,334 L377,334 L377,335 L371,335 L371,334 Z M371,325 L383,325 L383,326 L371,326 L371,325 Z M371,331 L381,331 L381,332 L371,332 L371,331 Z" sketch:type="MSShapeGroup"></path></g></g></svg>