<?xml version="1.0" encoding="utf-8"?>
<!-- Generator: Adobe Illustrator 25.4.1, SVG Export Plug-In . SVG Version: 6.00 Build 0)  -->
<svg version="1.1" id="Layer_1" xmlns="http://www.w3.org/2000/svg" xmlns:xlink="http://www.w3.org/1999/xlink" x="0px" y="0px"
	 width="16" height="16" viewBox="0 0 32 32" style="enable-background:new 0 0 32 32;" xml:space="preserve">
<style type="text/css">
	.st0{fill:#5A7197;}
</style>
<path class="st0" d="M2.2,26.3h7.6c1.3,0,2.5,0.6,3.4,1.5l0.1,0.1c0.1,0.1,0.3,0.3,0.4,0.4c0.1,0,0.1,0.1,0.2,0.1
	c0.1,0.1,0.3,0.2,0.4,0.3l0.1,0c0.1,0,0.2,0.1,0.2,0.1c0.1,0,0.2,0.1,0.3,0.1c0.1,0,0.2,0,0.3,0.1c0.2,0,0.3,0.1,0.5,0.1l0.2,0
	c0.3,0,0.5,0,0.8-0.1c0.1,0,0.2,0,0.2-0.1c0.1,0,0.3-0.1,0.4-0.1h0l0.2-0.1l0.1,0h0c0.2-0.1,0.3-0.2,0.5-0.3l0.2-0.1
	c0.2-0.1,0.3-0.3,0.5-0.5l0,0l0.1-0.1c0.9-1,2.1-1.5,3.4-1.5h7.6c0.6,0,1.2-0.5,1.2-1.2c0,0,0,0,0,0V7c0-0.6-0.5-1.1-1.2-1.1h-2.3
	V3.5c0-0.4-0.3-0.8-0.8-0.8c0,0,0,0,0,0h-4.8c-2.2,0-4.4,0.9-6,2.4c-1.6-1.5-3.8-2.4-6-2.4H5.3c-0.4,0-0.8,0.3-0.8,0.8v2.3H2.2
	C1.6,5.8,1.1,6.3,1.1,7v18.2C1.1,25.8,1.6,26.3,2.2,26.3z M22.1,4.3h4v17h-4c-1.9,0-3.7,0.6-5.3,1.7V6.6C18.2,5.1,20.1,4.3,22.1,4.3
	z M6,4.3h4c2,0,3.9,0.8,5.3,2.2l0,0v16.5c-1.5-1.1-3.4-1.7-5.3-1.7H6V4.3z M2.6,7.4h1.9v14.7c0,0.4,0.3,0.8,0.8,0.8H10
	c2.1,0,4.1,0.9,5.5,2.4c0.3,0.3,0.8,0.3,1.1,0.1c0,0,0,0,0.1-0.1c1.4-1.6,3.4-2.4,5.5-2.4h4.8c0.4,0,0.8-0.3,0.8-0.8V7.4h1.9v17.4
	h-7.2c-1.7,0-3.4,0.7-4.5,2l0,0l0,0c-0.1,0.1-0.2,0.2-0.3,0.3l-0.1,0.1c-0.1,0.1-0.2,0.1-0.3,0.2h0l0,0l-0.1,0.1
	c-0.1,0-0.2,0.1-0.2,0.1l-0.1,0c-0.1,0-0.3,0-0.4,0h-0.1c-0.1,0-0.2,0-0.3,0c-0.1,0-0.1,0-0.2,0c-0.1,0-0.1,0-0.2-0.1l-0.1-0.1
	l-0.1,0c-0.1,0-0.2-0.1-0.3-0.2l-0.1-0.1c-0.1-0.1-0.2-0.2-0.3-0.2l-0.1-0.1c-1.2-1.3-2.8-2-4.5-2H2.6V7.4z"/>
<path class="st0" d="M8.2,8.2h1.3c1.1,0,2.2,0.3,3.2,0.8c0.4,0.2,0.8,0,1-0.4c0.2-0.4,0-0.8-0.3-1C12.2,7,10.8,6.7,9.5,6.7H8.2
	C7.8,6.7,7.4,7,7.4,7.4C7.4,7.8,7.8,8.2,8.2,8.2L8.2,8.2z"/>
<path class="st0" d="M8.2,11.6h1.3c1.1,0,2.2,0.3,3.2,0.8c0.4,0.2,0.8,0,1-0.4c0.2-0.4,0-0.8-0.3-1c-1.2-0.6-2.6-0.9-3.9-0.9H8.2
	c-0.4,0-0.8,0.3-0.8,0.8S7.8,11.6,8.2,11.6L8.2,11.6z"/>
<path class="st0" d="M8.2,15h1.3c1.1,0,2.2,0.3,3.2,0.8c0.4,0.2,0.8,0,1-0.4c0.2-0.4,0-0.8-0.3-1c-1.2-0.6-2.6-0.9-3.9-0.9H8.2
	c-0.4,0-0.8,0.3-0.8,0.8C7.4,14.6,7.8,15,8.2,15L8.2,15z"/>
<path class="st0" d="M12.7,19.1c0.4,0.2,0.8,0.1,1-0.3c0.2-0.4,0.1-0.8-0.3-1c0,0,0,0-0.1,0c-1.2-0.6-2.6-0.9-3.9-0.9H8.2
	c-0.4,0-0.8,0.3-0.8,0.8c0,0.4,0.3,0.8,0.8,0.8h1.3C10.6,18.4,11.7,18.6,12.7,19.1z"/>
<path class="st0" d="M19,9c0.1,0,0.2,0,0.3-0.1c1-0.5,2.1-0.8,3.2-0.8h1.3c0.4,0,0.8-0.3,0.8-0.8s-0.3-0.8-0.8-0.8h-1.3
	c-1,0-2.1,0.2-3.1,0.5c-0.3,0.1-0.6,0.2-0.9,0.4c-0.4,0.2-0.5,0.6-0.3,1C18.5,8.9,18.7,9,19,9L19,9z"/>
<path class="st0" d="M19,12.4c0.1,0,0.2,0,0.3-0.1c1-0.5,2.1-0.8,3.2-0.8h1.3c0.4,0,0.8-0.3,0.8-0.8c0-0.4-0.3-0.8-0.8-0.8h-1.3
	c-1,0-2.1,0.2-3.1,0.5c-0.3,0.1-0.6,0.2-0.9,0.4c-0.4,0.2-0.5,0.6-0.3,1C18.5,12.3,18.7,12.4,19,12.4L19,12.4z"/>
<path class="st0" d="M19,15.8c0.1,0,0.2,0,0.3-0.1c1-0.5,2.1-0.8,3.2-0.8h1.3c0.4,0,0.8-0.3,0.8-0.8c0-0.4-0.3-0.8-0.8-0.8h-1.3
	c-1,0-2.1,0.2-3.1,0.5c-0.3,0.1-0.6,0.2-0.9,0.4c-0.4,0.2-0.5,0.6-0.3,1C18.5,15.6,18.7,15.8,19,15.8L19,15.8z"/>
<path class="st0" d="M19,19.2c0.1,0,0.2,0,0.3-0.1c1-0.5,2.1-0.8,3.2-0.8h1.3c0.4,0,0.8-0.3,0.8-0.8c0-0.4-0.3-0.8-0.8-0.8h-1.3
	c-1,0-2.1,0.2-3.1,0.5c-0.3,0.1-0.6,0.2-0.9,0.4c-0.4,0.2-0.5,0.6-0.3,1C18.5,19,18.7,19.2,19,19.2L19,19.2z"/>
</svg>
