<?xml version="1.0" encoding="utf-8"?>
<!-- Generator: Adobe Illustrator 22.1.0, SVG Export Plug-In . SVG Version: 6.00 Build 0)  -->
<svg version="1.1"
	 id="Layer_1" xmlns:cc="http://creativecommons.org/ns#" xmlns:dc="http://purl.org/dc/elements/1.1/" xmlns:inkscape="http://www.inkscape.org/namespaces/inkscape" xmlns:rdf="http://www.w3.org/1999/02/22-rdf-syntax-ns#" xmlns:sodipodi="http://sodipodi.sourceforge.net/DTD/sodipodi-0.dtd" xmlns:svg="http://www.w3.org/2000/svg"
	 xmlns="http://www.w3.org/2000/svg" xmlns:xlink="http://www.w3.org/1999/xlink" x="0px" y="0px" viewBox="0 0 100 100"
	 style="enable-background:new 0 0 100 100;" xml:space="preserve">
<g transform="translate(0,-952.36218)">
	<path d="M7,963.4c-1.1,0-2,0.9-2,2s0.9,2,2,2h12.7c5.1,12.6,10.1,25.3,15.2,38l-4.7,11.2c-0.5,1.2,0.5,2.8,1.8,2.8h50
		c1.1,0,2-0.9,2-2c0-1.1-1-2-2-2H35l3.4-8.1l48.8-3.9c0.8-0.1,1.6-0.7,1.8-1.5l6-26c0.3-1.2-0.7-2.4-1.9-2.4H26.4l-3.5-8.8
		c-0.3-0.7-1.1-1.2-1.8-1.3H7z M27.9,977.4h62.6l-5.1,22.1l-47.1,3.8L27.9,977.4z M42,1023.4c-4.9,0-9,4.1-9,9s4.1,9,9,9
		c4.9,0,9-4.1,9-9S47,1023.4,42,1023.4z M72,1023.4c-4.9,0-9,4.1-9,9s4.1,9,9,9c4.9,0,9-4.1,9-9S77,1023.4,72,1023.4z M42,1027.4
		c2.8,0,5,2.2,5,5s-2.2,5-5,5c-2.8,0-5-2.2-5-5S39.2,1027.4,42,1027.4z M72,1027.4c2.8,0,5,2.2,5,5s-2.2,5-5,5c-2.8,0-5-2.2-5-5
		S69.2,1027.4,72,1027.4z"/>
</g>
</svg>
