<!-- Generated by IcoMoon.io -->
<svg version="1.1" xmlns="http://www.w3.org/2000/svg" width="16" height="16" viewBox="0 0 16 16">
<title>cart</title>
<path fill="#5a7197" d="M0.569 1.266c-0.19 0-0.346 0.156-0.346 0.346s0.156 0.346 0.346 0.346h2.195c0.881 2.178 1.745 4.372 2.627 6.567l-0.812 1.936c-0.086 0.207 0.086 0.484 0.311 0.484h8.641c0.19 0 0.346-0.156 0.346-0.346s-0.173-0.346-0.346-0.346h-8.123l0.588-1.4 8.434-0.674c0.138-0.017 0.277-0.121 0.311-0.259l1.037-4.493c0.052-0.207-0.121-0.415-0.328-0.415h-11.527l-0.605-1.521c-0.052-0.121-0.19-0.207-0.311-0.225h-2.437zM4.181 3.686h10.819l-0.881 3.819-8.14 0.657-1.797-4.476zM6.617 11.636c-0.847 0-1.555 0.709-1.555 1.555s0.709 1.555 1.555 1.555c0.847 0 1.555-0.709 1.555-1.555s-0.691-1.555-1.555-1.555zM11.802 11.636c-0.847 0-1.555 0.709-1.555 1.555s0.709 1.555 1.555 1.555c0.847 0 1.555-0.709 1.555-1.555s-0.691-1.555-1.555-1.555zM6.617 12.327c0.484 0 0.864 0.38 0.864 0.864s-0.38 0.864-0.864 0.864c-0.484 0-0.864-0.38-0.864-0.864s0.38-0.864 0.864-0.864zM11.802 12.327c0.484 0 0.864 0.38 0.864 0.864s-0.38 0.864-0.864 0.864c-0.484 0-0.864-0.38-0.864-0.864s0.38-0.864 0.864-0.864z"></path>
</svg>
