<!-- Generated by IcoMoon.io -->
<svg version="1.1" xmlns="http://www.w3.org/2000/svg" width="16" height="16" viewBox="0 0 16 16">
<title>checkout</title>
<path fill="#5a7197" d="M1.363 5.329l10.874-2.466-0.15-0.664c-0.042-0.189-0.232-0.308-0.42-0.266l-10.191 2.296c-0.189 0.042-0.308 0.231-0.266 0.42 0.052 0.226 0.103 0.456 0.154 0.682v0zM1.273 3.625l10.32-2.322c0.493-0.11 0.983 0.199 1.093 0.691l1.081 4.779h-0.646l-0.49-2.165-10.874 2.466 0.673 2.969 0.060 0.263c0.024 0.106 0.129 0.174 0.237 0.149l0.080-0.018v0.633l-0.012 0.003c-0.408 0.092-0.816-0.167-0.909-0.575l-1.307-5.78c-0.055-0.246-0.015-0.478 0.119-0.691s0.33-0.348 0.576-0.403v0zM3.952 6.947c-0.503 0-0.914 0.412-0.914 0.916v5.947c0 0.503 0.411 0.914 0.914 0.914h10.581c0.503 0 0.916-0.412 0.916-0.914v-5.947c0-0.503-0.412-0.916-0.916-0.916h-10.581zM14.31 9.609v0c0 0.079-0.065 0.14-0.14 0.14-0.902 0-1.805 0-2.707 0-0.077 0-0.14-0.064-0.14-0.14 0-0.403 0-0.807 0-1.21 0-0.077 0.064-0.14 0.14-0.14 0.902 0 1.805 0 2.707 0 0.079 0 0.14 0.062 0.14 0.14 0 0.403 0 0.807 0 1.21zM12.315 13.279c-0.079 0-0.143-0.064-0.143-0.14v-0.281c0-0.077 0.064-0.14 0.143-0.14h1.854c0.077 0 0.14 0.064 0.14 0.14v0.281c0 0.077-0.064 0.14-0.14 0.14h-1.854zM9.727 13.279c-0.077 0-0.14-0.064-0.14-0.14v-0.28c0-0.079 0.064-0.14 0.14-0.14h1.855c0.077 0 0.14 0.064 0.14 0.14v0.28c0 0.077-0.064 0.14-0.14 0.14h-1.855zM7.142 13.279c-0.077 0-0.14-0.064-0.14-0.14v-0.28c0-0.079 0.064-0.14 0.14-0.14h1.855c0.077 0 0.14 0.064 0.14 0.14v0.28c0 0.077-0.064 0.14-0.14 0.14h-1.855zM4.558 13.279c-0.077 0-0.14-0.064-0.14-0.14v-0.28c0-0.079 0.064-0.14 0.14-0.14h1.855c0.077 0 0.14 0.064 0.14 0.14v0.28c0 0.077-0.064 0.14-0.14 0.14h-1.855z"></path>
</svg>
