<svg xmlns:dc="http://purl.org/dc/elements/1.1/" xmlns:cc="http://creativecommons.org/ns#" xmlns:rdf="http://www.w3.org/1999/02/22-rdf-syntax-ns#" xmlns:svg="http://www.w3.org/2000/svg" xmlns="http://www.w3.org/2000/svg" xmlns:sodipodi="http://sodipodi.sourceforge.net/DTD/sodipodi-0.dtd" xmlns:inkscape="http://www.inkscape.org/namespaces/inkscape" version="1.1" x="0px" y="0px" viewBox="0 0 615.10248 555.15808" enable-background="new 0 0 595 842" xml:space="preserve"><path style="" d="M 33.420506,167.20708 482.49051,65.363177 l -6.223,-27.4494 c -1.729,-7.8132 -9.61,-12.7219 -17.354,-10.9937 L 38.052506,121.71268 c -7.813,1.7288 -12.722,9.542 -10.994,17.3546 2.143,9.3336 4.218,18.8062 6.362,28.1398 l 0,0 z M 29.686506,96.822077 455.87151,0.92347744 c 20.327,-4.56290004 40.585,8.22759996 45.149,28.55539956 l 44.665,197.397303 -26.688,0 -20.259,-89.3991 -449.071004,101.8444 27.795,122.5867 2.489,10.8557 c 0.968,4.3562 5.324,7.1903 9.749,6.1531 l 3.318,-0.7602 0,26.1352 -0.484,0.1443 c -16.87,3.8027 -33.671,-6.9139 -37.543,-23.7149 L 0.99250552,142.04638 c -2.28200002,-10.1642 -0.622,-19.705 4.90899998,-28.5549 5.5310005,-8.8504 13.6210005,-14.381903 23.7840005,-16.663603 l 0,0 z M 140.31151,233.99728 c -20.811,0 -37.751,17.0094 -37.751,37.8209 l 0,245.5889 c 0,20.8109 16.94,37.751 37.751,37.751 l 436.972,0 c 20.811,0 37.819,-17.0088 37.819,-37.751 l 0,-245.5889 c 0,-20.8115 -17.008,-37.8209 -37.819,-37.8209 l -436.972,0 0,0 z m 427.776,109.9347 c 0,-16.6631 0,-33.3255 0,-49.9892 0,-3.2497 -2.559,-5.8073 -5.808,-5.8073 -37.267,0 -74.534,0 -111.801,0 -3.181,0 -5.808,2.6269 -5.808,5.8073 0,16.6637 0,33.3261 0,49.9892 0,3.181 2.627,5.8079 5.808,5.8079 37.267,0 74.534,0 111.801,0 3.111,0 5.808,-2.5582 5.808,-5.8079 l 0,0 z m -82.416,151.5571 c -3.25,0 -5.878,-2.6275 -5.878,-5.808 l 0,-11.6153 c 0,-3.181 2.628,-5.8085 5.878,-5.8085 l 76.538,0 c 3.181,0 5.808,2.6275 5.808,5.8085 l 0,11.6153 c 0,3.1805 -2.627,5.808 -5.808,5.808 l -76.538,0 0,0 z m -106.823,0 c -3.181,0 -5.808,-2.6275 -5.808,-5.808 l 0,-11.5466 c 0,-3.2497 2.627,-5.8073 5.808,-5.8073 l 76.608,0 c 3.18,0 5.808,2.6269 5.808,5.8073 l 0,11.5466 c 0,3.1805 -2.628,5.808 -5.808,5.808 l -76.608,0 0,0 z m -106.755,0 c -3.18,0 -5.807,-2.6275 -5.807,-5.808 l 0,-11.5466 c 0,-3.2497 2.627,-5.8073 5.807,-5.8073 l 76.61,0 c 3.179,0 5.807,2.6269 5.807,5.8073 l 0,11.5466 c 0,3.1805 -2.628,5.808 -5.807,5.808 l -76.61,0 0,0 z m -106.753,0 c -3.18,0 -5.808,-2.6275 -5.808,-5.808 l 0,-11.5466 c 0,-3.2497 2.628,-5.8073 5.808,-5.8073 l 76.609,0 c 3.18,0 5.807,2.6269 5.807,5.8073 l 0,11.5466 c 0,3.1805 -2.627,5.808 -5.807,5.808 l -76.609,0 z" clip-rule="evenodd" fill="#000000" fill-rule="evenodd"></path></svg>