<?xml version="1.0" encoding="utf-8"?>
<!-- Generator: Adobe Illustrator 24.1.1, SVG Export Plug-In . SVG Version: 6.00 Build 0)  -->
<svg version="1.1" id="Layer_1" xmlns="http://www.w3.org/2000/svg" xmlns:xlink="http://www.w3.org/1999/xlink" x="0px" y="0px"
	 width="16" height="16" viewBox="0 0 32 32" style="enable-background:new 0 0 32 32;" xml:space="preserve">
<style type="text/css">
	.st0{fill:#5A7197;}
</style>
<path class="st0" d="M5.9,30.1h20.2c1.6,0,2.6-1.8,1.7-3.1l-8.5-13.1c-0.1-0.1-0.1-0.3-0.1-0.5V5.8c0.9-0.1,1.7-0.9,1.7-1.9
	c0-1.1-0.9-1.9-1.9-1.9h-5.8c-1.1,0-1.9,0.9-1.9,1.9c0,1,0.8,1.8,1.7,1.9v7.6c0,0.2-0.1,0.3-0.1,0.5L4.2,27
	C3.4,28.3,4.3,30.1,5.9,30.1L5.9,30.1z M12.3,3.9c0-0.4,0.4-0.8,0.8-0.8h5.8c0.4,0,0.8,0.3,0.8,0.8s-0.4,0.8-0.8,0.8h-5.8
	C12.7,4.6,12.3,4.3,12.3,3.9z M13.7,14.4c0.2-0.4,0.3-0.7,0.3-1.1V5.7h4v7.6c0,0.4,0.1,0.8,0.3,1.1l1,1.6c-0.1,0-0.1,0.1-0.1,0.1
	c-2.9,2.9-5.8,0.9-6.7,0.2C12.5,16.2,13.7,14.4,13.7,14.4z M5.2,27.6l6.7-10.3c0.7,0.5,2.2,1.5,4.1,1.5c1.2,0,2.6-0.5,4-1.8
	l6.8,10.6c0.2,0.2-0.4,1.3-0.7,1.3H5.9C5.3,28.9,4.9,28.2,5.2,27.6L5.2,27.6z"/>
<path class="st0" d="M13.8,24.5c1.1,0,2-0.9,2-2s-0.9-2-2-2s-2,0.9-2,2S12.7,24.5,13.8,24.5z M13.8,21.6c0.5,0,0.9,0.4,0.9,0.9
	s-0.4,0.9-0.9,0.9S13,22.9,13,22.5S13.4,21.6,13.8,21.6z"/>
<path class="st0" d="M18.8,28.1c1.4,0,2.6-1.2,2.6-2.6S20.2,23,18.8,23c-1.4,0-2.6,1.2-2.6,2.6S17.4,28.1,18.8,28.1z M18.8,24.2
	c0.8,0,1.4,0.6,1.4,1.4S19.6,27,18.8,27s-1.4-0.6-1.4-1.4S18,24.2,18.8,24.2z"/>
</svg>
