<?xml version="1.0" encoding="utf-8"?>
<!-- Generator: Adobe Illustrator 25.4.1, SVG Export Plug-In . SVG Version: 6.00 Build 0)  -->
<svg version="1.1" id="Layer_1" xmlns="http://www.w3.org/2000/svg" xmlns:xlink="http://www.w3.org/1999/xlink" x="0px" y="0px"
	 width="16" height="16" viewBox="0 0 100 100" style="enable-background:new 0 0 100 100;" xml:space="preserve">
<style type="text/css">
	.st0{fill:#5A7197;}
</style>
<g>
	<path class="st0" d="M50,18.8c-25.8,0-46.9,21-46.9,46.9v12.5c0,1.7,1.4,3.1,3.1,3.1h87.5c1.7,0,3.1-1.4,3.1-3.1V65.6
		C96.9,39.8,75.8,18.8,50,18.8z M90.6,75H9.4v-9.4C9.4,43.2,27.6,25,50,25s40.6,18.2,40.6,40.6V75z M87.5,65.6v3.1
		c0,1.7-1.4,3.1-3.1,3.1s-3.1-1.4-3.1-3.1v-3.1c0-17.2-14-31.2-31.2-31.2s-31.2,14-31.2,31.2v3.1c0,1.7-1.4,3.1-3.1,3.1
		s-3.1-1.4-3.1-3.1v-3.1c0-20.7,16.8-37.5,37.5-37.5S87.5,44.9,87.5,65.6z M63.4,44.7L54,54c0,0,0,0,0,0c-1.2-0.6-2.6-0.9-4-0.9
		c-5.2,0-9.4,4.2-9.4,9.4s4.2,9.4,9.4,9.4s9.4-4.2,9.4-9.4c0-1.4-0.4-2.8-0.9-4c0,0,0,0,0,0l9.4-9.4c1.2-1.2,1.2-3.2,0-4.4
		C66.6,43.4,64.6,43.4,63.4,44.7z M50,65.6c-1.7,0-3.1-1.4-3.1-3.1s1.4-3.1,3.1-3.1c1.7,0,3.1,1.4,3.1,3.1S51.7,65.6,50,65.6z"/>
</g>
</svg>
