<?xml version="1.0" encoding="utf-8"?>
<!-- Generator: Adobe Illustrator 25.4.1, SVG Export Plug-In . SVG Version: 6.00 Build 0)  -->
<svg version="1.1" id="Layer_1" xmlns="http://www.w3.org/2000/svg" xmlns:xlink="http://www.w3.org/1999/xlink" x="0px" y="0px"
	 width="16" height="16" viewBox="0 0 100 100" style="enable-background:new 0 0 100 100;" xml:space="preserve">
<style type="text/css">
	.st0{fill:#5A7197;}
</style>
<g>
	<g>
		<path class="st0" d="M77.5,34.4c-1.2-1.3-3.2-1.3-4.4,0c-1.2,1.2-1.2,3.2,0,4.4L84.4,50L73.1,61.2c-1.2,1.2-1.2,3.2,0,4.4
			c0.6,0.6,1.5,0.9,2.2,0.9s1.6-0.3,2.2-0.9l13.4-13.4c1.2-1.2,1.2-3.2,0-4.4L77.5,34.4z"/>
		<path class="st0" d="M61.5,13.3c-1.7-0.5-3.4,0.5-3.9,2.2L38.4,82.8c-0.5,1.7,0.5,3.4,2.2,3.9c0.3,0.1,0.5,0.1,0.8,0.1
			c1.4,0,2.6-0.9,3-2.3l19.1-67.3C64.1,15.5,63.1,13.7,61.5,13.3z"/>
		<path class="st0" d="M26.9,34.4c-1.2-1.3-3.2-1.3-4.4,0L9.1,47.8c-1.2,1.2-1.2,3.2,0,4.4l13.4,13.4c0.6,0.6,1.5,0.9,2.2,0.9
			s1.6-0.3,2.2-0.9c1.2-1.2,1.2-3.2,0-4.4L15.6,50l11.2-11.2C28.1,37.6,28.1,35.6,26.9,34.4z"/>
	</g>
</g>
</svg>
