<?xml version="1.0" encoding="utf-8"?>
<!-- Generator: Adobe Illustrator 27.7.0, SVG Export Plug-In . SVG Version: 6.00 Build 0)  -->
<svg version="1.1" id="Layer_1" xmlns="http://www.w3.org/2000/svg" xmlns:xlink="http://www.w3.org/1999/xlink" x="0px" y="0px"
	 viewBox="0 0 24 24" style="enable-background:new 0 0 24 24;" xml:space="preserve">
<style type="text/css">
	.st0{fill:none;stroke:#6F84A7;stroke-width:2;stroke-linecap:round;stroke-linejoin:round;}
</style>
<path class="st0" d="M8,7v8c0,1.1,0.9,2,2,2h6 M8,7V5c0-1.1,0.9-2,2-2h4.6c0.3,0,0.5,0.1,0.7,0.3l4.4,4.4C19.9,7.9,20,8.1,20,8.4V15
	c0,1.1-0.9,2-2,2h-2 M8,7H6C4.9,7,4,7.9,4,9v10c0,1.1,0.9,2,2,2h8c1.1,0,2-0.9,2-2v-2"/>
<line class="st0" x1="11.5" y1="10.6" x2="16.4" y2="10.6"/>
<line class="st0" x1="11.6" y1="13.5" x2="15" y2="13.5"/>
</svg>
