<?xml version="1.0" encoding="utf-8"?>
<!-- Generator: Adobe Illustrator 24.1.1, SVG Export Plug-In . SVG Version: 6.00 Build 0)  -->
<svg version="1.1" id="Layer_1" xmlns="http://www.w3.org/2000/svg" xmlns:xlink="http://www.w3.org/1999/xlink" x="0px" y="0px"
	 width="16" height="16" viewBox="0 0 32 32" style="enable-background:new 0 0 32 32;" xml:space="preserve">
<style type="text/css">
	.st0{fill:#5A7197;}
</style>
<path class="st0" d="M29.4,8.1c0,0,0-0.1,0-0.1c0,0,0-0.1,0-0.1s0-0.1-0.1-0.1c0,0,0,0,0-0.1c0,0,0-0.1-0.1-0.1
	c-0.1-0.1-0.1-0.2-0.2-0.2c0,0-0.1-0.1-0.1-0.1c0,0,0,0-0.1,0c0,0-0.1,0-0.1-0.1s-0.1,0-0.1,0l-5.3-1.8L23,3.9
	c-0.1-0.7-0.8-1.2-1.5-1.1l-4.2,0.6l-3.2-1.1c-0.1,0-0.3-0.1-0.4-0.1c0,0-0.1,0-0.1,0c0,0,0,0-0.1,0c-0.3,0-0.6,0.2-0.8,0.3
	c-0.2,0.1-0.3,0.3-0.4,0.5L12,4L6.3,4.8C5.6,4.9,5,5.6,5.1,6.3l1.7,12.2l-1.7,4.6c0,0.1,0,0.1-0.1,0.2c0,0.1,0,0.2,0,0.3
	c0,0.1,0,0.1,0,0.2c0,0,0,0.1,0,0.1c0,0,0,0,0,0.1c0,0.1,0.1,0.2,0.1,0.2c0,0,0,0,0,0.1c0,0.1,0.1,0.1,0.2,0.2c0,0,0.1,0.1,0.1,0.1
	c0,0,0.1,0.1,0.2,0.1c0,0,0,0,0.1,0c0,0,0.1,0,0.1,0.1s0.1,0,0.1,0l1.8,0.6L8,27.4c0.1,0.7,0.8,1.2,1.5,1.1l5.1-0.7l5.7,2
	c0.1,0,0.1,0,0.2,0c0.1,0,0.1,0,0.2,0c0.1,0,0.2,0,0.3,0c0.1,0,0.1,0,0.2-0.1s0.1,0,0.2-0.1c0.1,0,0.1-0.1,0.2-0.1
	c0.2-0.1,0.3-0.3,0.4-0.6l0.8-2.2l1.8-0.2c0.7-0.1,1.3-0.8,1.2-1.5l-0.6-4.7l0.1-0.3l4-11.2c0-0.1,0.1-0.2,0.1-0.3c0,0,0-0.1,0-0.1
	C29.4,8.3,29.4,8.3,29.4,8.1C29.4,8.1,29.4,8.1,29.4,8.1L29.4,8.1z M21.6,3.9c0.1,0,0.1,0,0.1,0.1l0.1,0.8l-2.1-0.7L21.6,3.9
	L21.6,3.9z M6.4,6.1c0-0.1,0-0.1,0.1-0.1l5.1-0.7l-1.2,3.3L8.5,8.9l0.2,1.2l1.2-0.2L7.7,16L6.4,6.1L6.4,6.1z M9.4,27.3
	c-0.1,0-0.1,0-0.1-0.1l-0.2-1.3l3,1L9.4,27.3L9.4,27.3z M24.6,25.1c0,0.1,0,0.1-0.1,0.1l-1.1,0.2l0.7-2.1l0.2-0.5L24.6,25.1
	L24.6,25.1z M28.2,8.4l-7.2,20.1c0,0-0.1,0.1-0.1,0.1c0,0,0,0,0,0L6.4,23.7c0,0,0,0,0,0s0,0,0,0c0,0,0,0,0,0c0,0,0-0.1,0-0.1
	l0.9-2.4l6.3-17.7c0,0,0,0,0,0c0,0,0.1-0.1,0.1-0.1c0,0,0,0,0,0l0.9,0.3l13.5,4.6c0,0,0,0,0,0C28.1,8.3,28.1,8.3,28.2,8.4
	C28.2,8.4,28.2,8.4,28.2,8.4L28.2,8.4z"/>
<path class="st0" d="M13.7,8l11.1,3.8l0.4-1.1L14.1,6.9L13.7,8z"/>
<path class="st0" d="M12.5,11.4l11.1,3.8l0.4-1.1l-11.1-3.8L12.5,11.4z"/>
<path class="st0" d="M11.3,14.8l11.1,3.8l0.4-1.1l-11.1-3.8L11.3,14.8z"/>
<path class="st0" d="M10.1,18.3L21.2,22l0.4-1.1l-11.1-3.8L10.1,18.3z"/>
<path class="st0" d="M9,21.1l11.1,3.8l0.4-1.1L9.4,20L9,21.1z"/>
</svg>
