<?xml version="1.0" encoding="utf-8"?>
<!-- Generator: Adobe Illustrator 25.2.1, SVG Export Plug-In . SVG Version: 6.00 Build 0)  -->
<svg version="1.1" id="Layer_1" xmlns="http://www.w3.org/2000/svg" xmlns:xlink="http://www.w3.org/1999/xlink" x="0px" y="0px"
	 viewBox="0 0 32 32" style="enable-background:new 0 0 32 32;" xml:space="preserve">
<style type="text/css">
	.st0{fill:#5A7197;}
</style>
<g transform="translate(0,-952.36218)">
	<path class="st0" d="M15.9,955.6c-2.1,0-4.2,0.8-5.8,2.4c-1.2,1.2-1.9,2.6-2.2,4.2c-3.1,0.6-5.4,3.3-5.4,6.5c0,3.7,3,6.7,6.7,6.7
		h3.2c0.5,0,0.9-0.4,0.9-0.9c0-0.5-0.4-0.9-0.9-0.9c0,0,0,0,0,0H9.3c-2.7,0-4.9-2.2-4.9-4.9c0-2.6,2-4.7,4.5-4.9
		c0.4,0,0.7-0.4,0.8-0.8c0.2-1.4,0.8-2.7,1.8-3.8c1.3-1.3,2.9-1.9,4.5-1.9s3.3,0.6,4.5,1.9c1.4,1.4,2.1,3.4,1.8,5.3
		c-0.1,0.5,0.3,0.9,0.8,1c0,0,0.1,0,0.1,0h0.3c2.3,0,4.1,1.8,4.1,4.1c0,2.3-1.8,4.1-4.1,4.1h-4.1c-0.5,0-0.9,0.4-0.9,0.9
		c0,0.5,0.4,0.9,0.9,0.9c0,0,0,0,0,0h4.1c3.2,0,5.8-2.6,5.8-5.8c0-3-2.3-5.5-5.3-5.8c0-2.1-0.7-4.2-2.3-5.8
		C20.1,956.4,18,955.6,15.9,955.6z M15.9,970.2c-0.5,0-0.9,0.4-0.9,0.9v7.9l-1.7-1.6c-0.3-0.3-0.9-0.3-1.2,0.1
		c-0.3,0.3-0.3,0.9,0.1,1.2l3.2,2.9c0.1,0.1,0.3,0.2,0.6,0.2c0.3,0,0.4-0.1,0.6-0.2l3.2-2.9c0.3-0.3,0.4-0.9,0.1-1.2
		c-0.3-0.3-0.9-0.4-1.2-0.1l-1.7,1.6V971C16.8,970.6,16.4,970.2,15.9,970.2L15.9,970.2z"/>
</g>
</svg>
