<svg xmlns="http://www.w3.org/2000/svg" xmlns:xlink="http://www.w3.org/1999/xlink" version="1.1" x="0px" y="0px" viewBox="0 0 100 100" style="enable-background:new 0 0 100 100;" xml:space="preserve"><path d="M92.5,37.5h-85C6.1,37.5,5,38.6,5,40v20c0,1.4,1.1,2.5,2.5,2.5h85c1.4,0,2.5-1.1,2.5-2.5V40C95,38.6,93.9,37.5,92.5,37.5z   M90,57.5H10v-15h80V57.5z"></path><path d="M92.5,5h-85C6.1,5,5,6.1,5,7.5v20C5,28.9,6.1,30,7.5,30h85c1.4,0,2.5-1.1,2.5-2.5v-20C95,6.1,93.9,5,92.5,5z M90,25H10V10  h80V25z"></path><path d="M92.5,70h-85C6.1,70,5,71.1,5,72.5v20C5,93.9,6.1,95,7.5,95h85c1.4,0,2.5-1.1,2.5-2.5v-20C95,71.1,93.9,70,92.5,70z M90,90  H10V75h80V90z"></path></svg>