<svg xmlns="http://www.w3.org/2000/svg" xmlns:xlink="http://www.w3.org/1999/xlink" version="1.1" x="0px" y="0px" viewBox="0 0 100 100" style="enable-background:new 0 0 100 100;" xml:space="preserve"><path d="M17,75h52V39H17V75z M43,62.6l5-4.2L65.4,73H20.6L38,58.3L43,62.6z M49.6,57L67,42.3v29.4L49.6,57z M43,59.9L20.6,41h44.9  L43,59.9z M36.4,57L19,71.7V42.3L36.4,57z M24,32h52v36h-6v-2h4V35.4l-3.3,3.3l-1.4-1.4l3.3-3.3H26v4h-2V32z M83,25v36h-6v-2h4V28.4  l-3.3,3.3l-1.4-1.4l3.3-3.3H33v4h-2v-6H83z"></path></svg>