<!-- Generated by IcoMoon.io -->
<svg version="1.1" xmlns="http://www.w3.org/2000/svg" width="16" height="16" viewBox="0 0 16 16">
<title>emails</title>
<path fill="#5a7197" d="M4.16 2.72c-0.299 0-0.6 0.104-0.811 0.315s-0.31 0.51-0.31 0.806v1.44h-1.12c-0.299 0-0.6 0.104-0.81 0.315s-0.31 0.51-0.31 0.806v5.76c0 0.296 0.1 0.593 0.31 0.806s0.512 0.315 0.81 0.315h9.92c0.299 0 0.6-0.104 0.81-0.315s0.31-0.509 0.31-0.806v-1.44h1.12c0.299 0 0.6-0.104 0.81-0.315s0.31-0.509 0.31-0.806v-5.76c0-0.296-0.1-0.593-0.31-0.806s-0.512-0.315-0.81-0.315h-9.92zM4.16 3.68h9.92c0.095 0 0.118 0.018 0.13 0.030s0.030 0.036 0.030 0.13v5.76c0 0.094-0.018 0.114-0.030 0.125s-0.035 0.035-0.13 0.035h-1.12v-3.36c0-0.296-0.1-0.593-0.31-0.806s-0.512-0.315-0.81-0.315h-7.84v-1.44c0-0.094 0.019-0.118 0.030-0.13s0.035-0.030 0.13-0.030zM2.81 6.24h8.139l-3.88 2.976c-0.115 0.088-0.033 0.065-0.19 0.065s-0.075 0.023-0.19-0.065l-3.88-2.976zM1.76 6.645l4.35 3.334c0.206 0.158 0.502 0.26 0.77 0.26s0.565-0.102 0.77-0.26l4.35-3.335v5.516c0 0.094-0.018 0.114-0.030 0.125s-0.035 0.035-0.13 0.035h-9.92c-0.095 0-0.118-0.023-0.13-0.035s-0.030-0.031-0.030-0.125v-5.516z"></path>
</svg>
