<svg xmlns="http://www.w3.org/2000/svg" xmlns:xlink="http://www.w3.org/1999/xlink" version="1.1" x="0px" y="0px" viewBox="0 0 100 100" style="enable-background:new 0 0 100 100;" xml:space="preserve"><path d="M94,78.2L55.9,14.4c-2.7-4.5-9.2-4.9-12-0.5L6.1,78.1C3.1,82.8,6.5,90,12.1,90h75.8  C93.4,90,96.8,82.9,94,78.2z M49.8,79.2c-2.7,0-4.9-2.2-4.9-4.9s2.2-4.9,4.9-4.9c2.7,0,4.9,2.2,4.9,4.9S52.5,79.2,49.8,79.2z   M55,61.2c0,2.7-2.3,4.9-5,4.9s-5-2.2-5-4.9V35.6c0-2.7,2.3-4.9,5-4.9s5,2.2,5,4.9V61.2z"></path></svg>