<svg xmlns="http://www.w3.org/2000/svg" viewBox="0 0 32 32"><title>faq</title><path d="M20.26,22v.63a.36.36,0,0,1-.36.36h-1a.36.36,0,0,1-.35-.36v0h0V22a.38.38,0,0,1,.38-.38h.92a.38.38,0,0,1,.36.38h0Zm1.14-5.62a2.65,2.65,0,0,0-1.65-.58h-.31a2.74,2.74,0,0,0-1.59.51h0a1.63,1.63,0,0,0-.64,1.29h0a.24.24,0,0,0,.24.24h0l1.05,0h0a.37.37,0,0,0,.36-.26h0a.63.63,0,0,1,.19-.31h0a.79.79,0,0,1,.54-.21h.1a.76.76,0,0,1,.76.76.61.61,0,0,1,0,.14h0V18a1.2,1.2,0,0,1-.19.64h0a2,2,0,0,1-.5.5h0a3.22,3.22,0,0,0-.86.78h0a1.31,1.31,0,0,0-.25.73h0a.24.24,0,0,0,.26.27h1.14a.29.29,0,0,0,.27-.24h0a1.8,1.8,0,0,1,.11-.43h0a1.14,1.14,0,0,1,.42-.45h0a2.68,2.68,0,0,0,.92-.78h0a1.87,1.87,0,0,0,.38-1.1h0a2.33,2.33,0,0,0-.74-1.56h0ZM4.2,18a1,1,0,0,0-.44.83.85.85,0,0,0,0,.23h0a1,1,0,0,0,.84.76h0a5.19,5.19,0,0,0,.72.05h.19a5.51,5.51,0,0,0,2.33-.51h0a8,8,0,0,0,1.36.56l.06,0v-.39a7.47,7.47,0,0,1,.11-1.26v.05a8.81,8.81,0,0,1-1.19-.55l0,0-.42-.23-.38.23a3.53,3.53,0,0,1-1.31.47h0a4.1,4.1,0,0,0,.54-1v0l.15-.45-.31-.34a5.69,5.69,0,0,1-1.61-3.94h0c0-3.49,3.32-6.35,7.36-6.35a7.42,7.42,0,0,1,6.83,4c.2,0,.42,0,.65,0h.14c.29,0,.58,0,.89,0A8.86,8.86,0,0,0,12.25,4.6c-4.91,0-8.91,3.55-8.91,7.91A7.16,7.16,0,0,0,5,17.11H5a2.42,2.42,0,0,1-.82.89Zm24.46,1.4a7.41,7.41,0,0,1-1.72,4.68h0a2.4,2.4,0,0,0,.81.89h0a1,1,0,0,1,.44.82.85.85,0,0,1,0,.23h0a1,1,0,0,1-.84.76h0a5.43,5.43,0,0,1-.72.05h-.17a5.52,5.52,0,0,1-2.4-.54l0,0a9.87,9.87,0,0,1-4.46,1.05h0c-5,0-9-3.6-9-8s4.07-8,9-8,9,3.59,9,8Zm-1.55,0c0-3.55-3.34-6.44-7.46-6.44s-7.46,2.89-7.46,6.44,3.34,6.43,7.46,6.43h0a8.32,8.32,0,0,0,4.12-1.07l0,0,.38-.24.38.24a3.84,3.84,0,0,0,1.37.47h0a4,4,0,0,1-.54-1v0l-.16-.44.32-.34a6,6,0,0,0,1.6-4Z"/></svg>