<?xml version="1.0" encoding="utf-8"?>
<!-- Generator: Adobe Illustrator 22.1.0, SVG Export Plug-In . SVG Version: 6.00 Build 0)  -->
<svg version="1.1"
	 id="Layer_1" xmlns:cc="http://creativecommons.org/ns#" xmlns:dc="http://purl.org/dc/elements/1.1/" xmlns:inkscape="http://www.inkscape.org/namespaces/inkscape" xmlns:rdf="http://www.w3.org/1999/02/22-rdf-syntax-ns#" xmlns:sodipodi="http://sodipodi.sourceforge.net/DTD/sodipodi-0.dtd" xmlns:svg="http://www.w3.org/2000/svg"
	 xmlns="http://www.w3.org/2000/svg" xmlns:xlink="http://www.w3.org/1999/xlink" x="0px" y="0px" viewBox="0 0 100 100"
	 style="enable-background:new 0 0 100 100;" xml:space="preserve">
<g transform="translate(0,-952.36218)">
	<path d="M11,958.4c-4.4,0-8,3.6-8,8v40c0,4.4,3.6,8,8,8h6.8l-1.8,17.8c-0.1,0.8,0.4,1.7,1.1,2s1.7,0.2,2.3-0.4l19.4-19.4H49v15.3
		c0,3.6,2.8,6.5,6.4,6.6l17.8,0.1l10.4,9.5c0.6,0.5,1.5,0.7,2.3,0.3c0.7-0.4,1.2-1.2,1.1-2l-0.8-7.8h4.4c3.5,0,6.4-3,6.4-6.6V1003
		c0-3.6-2.9-6.5-6.4-6.5l-9.7,0v-30c0-4.4-3.6-8-8-8L11,958.4z M11,962.4h62c2.3,0,4,1.7,4,4v30l-21.6-0.1c-3.6,0-6.4,3-6.4,6.6v7.5
		H38c-0.5,0-1,0.2-1.4,0.6l-16,16l1.4-14.4c0.1-1.1-0.9-2.2-2-2.2h-9c-2.3,0-4-1.7-4-4v-40C7,964.1,8.7,962.4,11,962.4L11,962.4z
		 M38.9,966.4c-5.7,0-10.6,3.4-11.8,8.4c-0.3,1,0.4,2.3,1.4,2.6c1.1,0.3,2.3-0.5,2.4-1.6c0.7-2.9,3.9-5.3,8-5.3
		c4.7,0,8.1,3.1,8.1,6.6c0,5.7-1.9,7.1-4.3,9.4s-5.7,5.5-5.7,12c0,1.1,0.9,2,2,2s2-1,2-2c0-5.4,1.8-6.7,4.3-9.1s5.7-5.6,5.7-12.3
		C51,970.9,45.4,966.4,38.9,966.4z M55.3,1000.4l35.3,0.1c1.3,0,2.4,1,2.4,2.5v26.8c0,1.5-1.1,2.6-2.4,2.6H84c-1.1,0-2.1,1.1-2,2.2
		l0.5,4.8l-7.2-6.5c-0.4-0.3-0.9-0.5-1.3-0.5l-18.6-0.1c-1.3,0-2.4-1.1-2.4-2.6v-26.8C53,1001.4,54,1000.3,55.3,1000.4L55.3,1000.4z
		 M39,1002.4c-1.1,0-2,0.9-2,2s0.9,2,2,2s2-0.9,2-2S40.1,1002.4,39,1002.4z M72,1003.4c-1.1,0-2,0.9-2,2v16c0,1.1,0.9,2,2,2
		s2-0.9,2-2v-16C74,1004.2,73.1,1003.4,72,1003.4z M72,1025.4c-1.1,0-2,0.9-2,2c0,1.1,0.9,2,2,2s2-0.9,2-2
		C74,1026.2,73.1,1025.4,72,1025.4z"/>
</g>
</svg>
