<!-- Generated by IcoMoon.io -->
<svg version="1.1" xmlns="http://www.w3.org/2000/svg" width="16" height="16" viewBox="0 0 16 16">
<title>folder</title>
<path fill="#5a7197" d="M1.303 13.004c0.045 0.026 0.093 0.045 0.16 0.049h11.484c0.138 0 0.253-0.094 0.289-0.227l1.587-6.338c0.022-0.088 0-0.182-0.054-0.253-0.057-0.071-0.142-0.116-0.236-0.116h-0.889v-1.289c0-0.165-0.133-0.298-0.298-0.298h-6.586l-1.098-1.466c-0.054-0.076-0.142-0.12-0.239-0.12h-3.959c-0.165 0-0.298 0.133-0.298 0.298v9.511c0 0.076 0.031 0.142 0.080 0.199l0.057 0.049zM1.76 3.542h3.516l1.098 1.466c0.054 0.076 0.142 0.12 0.239 0.12h6.435v0.991h-10c-0.138 0-0.253 0.093-0.289 0.227l-1 3.996v-6.799z"></path>
</svg>
