<?xml version="1.0" encoding="utf-8"?>
<!-- Generator: Adobe Illustrator 22.1.0, SVG Export Plug-In . SVG Version: 6.00 Build 0)  -->
<svg version="1.1"
	 id="Layer_1" xmlns:cc="http://creativecommons.org/ns#" xmlns:dc="http://purl.org/dc/elements/1.1/" xmlns:inkscape="http://www.inkscape.org/namespaces/inkscape" xmlns:rdf="http://www.w3.org/1999/02/22-rdf-syntax-ns#" xmlns:sodipodi="http://sodipodi.sourceforge.net/DTD/sodipodi-0.dtd" xmlns:svg="http://www.w3.org/2000/svg"
	 xmlns="http://www.w3.org/2000/svg" xmlns:xlink="http://www.w3.org/1999/xlink" x="0px" y="0px" viewBox="0 0 100 100"
	 style="enable-background:new 0 0 100 100;" xml:space="preserve">
<g transform="translate(0,-952.36218)">
	<path d="M7.9,969.4c-0.5,0.1-0.8,0.5-0.8,1c-0.1,26-0.1,36-0.1,64c0,0.5,0.5,1,1,1l70,0c0.4,0,0.8-0.3,1-0.7l14-48
		c0.2-0.6-0.3-1.3-1-1.3h-9l0-7c0-0.5-0.5-1-1-1H39.2l-10.7-7.8c-0.2-0.1-0.4-0.2-0.6-0.2C21.1,969.4,14,969.4,7.9,969.4L7.9,969.4z
		 M9.1,971.4h18.5l10.7,7.8c0.2,0.1,0.4,0.2,0.6,0.2H81l0,6c-21.1,0-42.1,0-63.2,0c-0.4,0.1-0.7,0.4-0.8,0.8l-8,38.5
		C9,1005.1,9,992.6,9.1,971.4L9.1,971.4z M90.7,987.4l-13.4,46l-68.1,0l9.6-46C42.8,987.4,66.7,987.4,90.7,987.4L90.7,987.4z"/>
</g>
</svg>
