<?xml version="1.0" encoding="utf-8"?>
<!-- Generator: Adobe Illustrator 22.1.0, SVG Export Plug-In . SVG Version: 6.00 Build 0)  -->
<svg version="1.1" id="Layer_1" xmlns="http://www.w3.org/2000/svg" xmlns:xlink="http://www.w3.org/1999/xlink" x="0px" y="0px"
	 viewBox="0 0 120 120" style="enable-background:new 0 0 120 120;" xml:space="preserve">
<title>Form</title>
<rect x="17.9" y="20.5" width="29" height="2.6"/>
<rect x="17.9" y="25.8" width="29" height="2.6"/>
<rect x="31" y="39" width="44.7" height="2.6"/>
<path d="M17.9,44.2h10.5V33.7H17.9V44.2z M20.5,36.3h5.3v5.3h-5.3L20.5,36.3z"/>
<path d="M17.9,60h10.5V49.5H17.9V60z M20.5,52.1h5.3v5.3h-5.3L20.5,52.1z"/>
<path d="M17.9,75.8h10.5V65.3H17.9V75.8z M20.5,67.9h5.3v5.3h-5.3L20.5,67.9z"/>
<rect x="17.9" y="83.7" width="57.9" height="2.6"/>
<rect x="17.9" y="91.6" width="36.8" height="2.6"/>
<rect x="31" y="70.5" width="25.1" height="2.6"/>
<polygon points="75.8,70.5 74.4,70.5 71.8,73.2 75.8,73.2 "/>
<polygon points="71.6,54.7 31,54.7 31,57.4 68.9,57.4 "/>
<polygon points="81.1,107.4 12.6,107.4 12.6,12.6 81.1,12.6 81.1,45.3 83.7,42.6 83.7,10 10,10 10,110 83.7,110 83.7,61.2 
	81.1,63.9 "/>
<path d="M108.5,27.1c-2.1-2-5.4-2-7.4,0L60.1,68.1l-2.6,2.6v7.4h7.4l2.6-2.6l14.9-14.9l1.9-1.9l24.2-24.2
	C110.5,32.5,110.5,29.2,108.5,27.1C108.5,27.1,108.5,27.1,108.5,27.1z M63.8,75.5h-3.7v-3.7l16.8-16.7l3.7,3.7L63.8,75.5z
	 M106.6,32.7L82.4,56.9l-3.7-3.7L102.9,29c1-1,2.7-1,3.7,0S107.6,31.7,106.6,32.7C106.6,32.7,106.6,32.7,106.6,32.7z"/>
</svg>
