<!-- Generated by IcoMoon.io -->
<svg version="1.1" xmlns="http://www.w3.org/2000/svg" width="16" height="16" viewBox="0 0 16 16">
<title>form</title>
<path fill="#5a7197" d="M13.812 4.507l-3.681-3.861c-0.068-0.073-0.163-0.115-0.26-0.115h-5.827c-1.075 0-1.963 0.884-1.963 1.959v11.019c0 1.075 0.888 1.959 1.963 1.959h7.909c1.075 0 1.963-0.884 1.963-1.959v-8.749c0-0.094-0.043-0.184-0.105-0.253zM10.238 1.805l2.464 2.587h-1.601c-0.476 0-0.862-0.382-0.862-0.859v-1.728zM13.196 13.51c0 0.679-0.563 1.238-1.241 1.238h-7.909c-0.674 0-1.241-0.559-1.241-1.238v-11.019c0-0.674 0.562-1.238 1.241-1.238h5.47v2.28c0 0.876 0.708 1.581 1.584 1.581h2.097v8.396z"></path>
<path fill="#5a7197" d="M5.030 12.258c-0.199 0-0.361 0.163-0.361 0.361s0.163 0.361 0.361 0.361h5.943c0.199 0 0.361-0.163 0.361-0.361s-0.163-0.361-0.365-0.361h-5.939z"></path>
<path fill="#5a7197" d="M9.678 5.29c-0.141-0.141-0.368-0.141-0.509 0l-3.229 3.218c-0.039 0.039-0.073 0.090-0.090 0.148l-0.65 2.049c-0.039 0.13-0.007 0.267 0.090 0.365 0.068 0.068 0.163 0.105 0.256 0.105 0.036 0 0.073-0.007 0.109-0.018l2.049-0.645c0.054-0.018 0.105-0.047 0.148-0.090l3.219-3.229c0.141-0.141 0.141-0.368 0-0.509l-1.392-1.392zM6.098 10.262l0.26-0.823 0.562 0.563-0.823 0.26zM7.596 9.656l-0.891-0.891 2.717-2.71 0.884 0.884-2.71 2.717z"></path>
</svg>
