<svg xmlns="http://www.w3.org/2000/svg" viewBox="0 0 32 32"><title>form</title><path d="M15.8,25.09a.48.48,0,0,1-.47-.47.13.13,0,0,1,0-.06h0l.72-5.63a.49.49,0,0,1,.06-.17h0L25.06,3.35a2.66,2.66,0,0,1,3.63-1h0A2.63,2.63,0,0,1,30,4.67,2.6,2.6,0,0,1,29.64,6h0L20.71,21.43a.37.37,0,0,1-.12.13h0L16.08,25a.4.4,0,0,1-.26.1ZM17,19.17l-.57,4.41,3.54-2.7,8.9-15.35a1.76,1.76,0,0,0,.21-.83A1.74,1.74,0,0,0,27.36,3h0a1.74,1.74,0,0,0-1.48.86h0Z"/><path d="M28,8.05A.61.61,0,0,1,27.8,8h0L24.14,5.87a.45.45,0,0,1-.26-.42A.46.46,0,0,1,24.34,5a.45.45,0,0,1,.26.08h0l3.67,2.12a.47.47,0,0,1,.24.4.48.48,0,0,1-.07.23h0a.49.49,0,0,1-.4.24Z"/><path d="M27,9.94a.4.4,0,0,1-.24-.07h0l-3.67-2.1a.47.47,0,0,1,.22-.88.43.43,0,0,1,.25.07h0l3.66,2.11a.44.44,0,0,1,.22.39.47.47,0,0,1-.45.47Z"/><path d="M20.3,21.66h0a.4.4,0,0,1-.22-.06h0l-3.78-2.16a.47.47,0,0,1-.22-.4.46.46,0,0,1,.69-.41h0l3.77,2.16a.46.46,0,0,1,.22.4.47.47,0,0,1-.45.47Z"/><path d="M28.6,30H3.4A1.4,1.4,0,0,1,2,28.6H2V19.18H2a1.4,1.4,0,0,1,1.4-1.4H15.3a.47.47,0,0,1,0,.94H3.4a.47.47,0,0,0-.47.46h0V28.6a.47.47,0,0,0,.47.46H28.6a.47.47,0,0,0,.46-.46V19.18a.46.46,0,0,0-.46-.46H23.7a.47.47,0,0,1,0-.94h4.9a1.4,1.4,0,0,1,1.4,1.4h0V28.6A1.4,1.4,0,0,1,28.6,30Z"/></svg>