<?xml version="1.0" encoding="utf-8"?>
<!-- Generator: Adobe Illustrator 22.1.0, SVG Export Plug-In . SVG Version: 6.00 Build 0)  -->
<svg version="1.1" id="Layer_1" xmlns="http://www.w3.org/2000/svg" xmlns:xlink="http://www.w3.org/1999/xlink" x="0px" y="0px"
	 viewBox="0 0 75 75" style="enable-background:new 0 0 75 75;" xml:space="preserve">
<style type="text/css">
	.st0{fill:none;stroke:#000000;stroke-width:2;stroke-linecap:round;}
</style>
<title>070-Gallery</title>
<desc>Created with Sketch.</desc>
<g>
	<g transform="translate(1.000000, 1.000000)">
		<path class="st0" d="M56.5,61h-48c-0.6,0-1-0.4-1-1V21c0-0.6,0.4-1,1-1h48c0.6,0,1,0.4,1,1v39C57.5,60.6,57.1,61,56.5,61L56.5,61z
			"/>
		<path class="st0" d="M7.5,46l18-16"/>
		<path class="st0" d="M11.5,20v-3c0-0.6,0.4-1,1-1h48c0.6,0,1,0.4,1,1v39c0,0.6-0.4,1-1,1h-3"/>
		<path class="st0" d="M15.5,16v-3c0-0.6,0.4-1,1-1h48c0.6,0,1,0.4,1,1v39c0,0.6-0.4,1-1,1h-3"/>
		<path class="st0" d="M25.5,30l18,16"/>
		<path class="st0" d="M50.5,38l-7,8"/>
		<path class="st0" d="M57.5,46l-7-8"/>
		<path class="st0" d="M45.5,31c0,1.7-1.3,3-3,3s-3-1.3-3-3c0-1.7,1.3-3,3-3S45.5,29.3,45.5,31L45.5,31z"/>
	</g>
</g>
</svg>
