<?xml version="1.0" encoding="utf-8"?>
<!-- Generator: Adobe Illustrator 26.0.2, SVG Export Plug-In . SVG Version: 6.00 Build 0)  -->
<svg version="1.1" id="Layer_1" xmlns="http://www.w3.org/2000/svg" xmlns:xlink="http://www.w3.org/1999/xlink" x="0px" y="0px"
	 viewBox="0 0 16 16" style="enable-background:new 0 0 16 16;" xml:space="preserve">
<style type="text/css">
	.st0{fill:#5A7197;}
	.st1{fill:none;stroke:#5A7197;stroke-width:0.8504;stroke-miterlimit:10;}
</style>
<path class="st0" d="M0.9,3h12.9c0.2,0,0.4,0.2,0.4,0.4v10.7c0,0.2-0.2,0.4-0.4,0.4H0.9c-0.2,0-0.4-0.1-0.4-0.4V3.4
	C0.6,3.1,0.8,3,0.9,3L0.9,3z M7.1,10.3l3.2-2.8c0.1-0.2,0.4-0.2,0.6,0l2.7,2.6V3.8H1.3v9l4.1-3.6C5.5,9,5.8,9.1,5.9,9.2L7.1,10.3
	L7.1,10.3z M13.4,11.2l-2.9-2.9l-2.9,2.5l2.9,2.9h2.9C13.4,13.7,13.4,11.2,13.4,11.2z M9.5,13.7L5.6,9.9l-4.3,3.8H9.5z"/>
<path class="st0" d="M6.1,4.8c0.8,0,1.4,0.6,1.4,1.3S6.9,7.5,6.1,7.5S4.8,6.9,4.8,6.1S5.4,4.8,6.1,4.8z M6.1,5.5
	c-0.3,0-0.6,0.2-0.6,0.6s0.2,0.6,0.6,0.6c0.3,0,0.6-0.2,0.6-0.6S6.5,5.5,6.1,5.5z"/>
<path class="st1" d="M2.1,3V2.2c0-0.1,0.1-0.1,0.1-0.1h12.6c0.1,0,0.1,0.1,0.1,0.1v10.5c0,0.1-0.1,0.1-0.1,0.1h-0.7"/>
</svg>
