<!-- Generated by IcoMoon.io -->
<svg version="1.1" xmlns="http://www.w3.org/2000/svg" width="16" height="16" viewBox="0 0 16 16">
<title>gallery</title>
<path fill="#5a7197" d="M13.096 14.4h-12.207c-0.237 0-0.474-0.237-0.474-0.474v-9.837c0-0.237 0.237-0.474 0.474-0.474h12.089c0.237 0 0.474 0.237 0.474 0.474v9.837c0.119 0.356-0.119 0.474-0.356 0.474zM0.889 4.089v9.837h12.089c0 0 0 0 0 0v-9.837h-12.089z"></path>
<path fill="#5a7197" d="M0.652 10.607c-0.119 0-0.119 0-0.237-0.119s-0.119-0.237 0-0.356l4.504-4.030c0.119-0.119 0.237-0.119 0.356 0s0.119 0.237 0 0.356l-4.385 4.148c-0.119 0-0.119 0-0.237 0z"></path>
<path fill="#5a7197" d="M14.044 13.452h-0.711c-0.119 0-0.237-0.119-0.237-0.237s0.119-0.237 0.237-0.237h0.711v-9.955h-12.089v0.711c0 0.119-0.119 0.237-0.237 0.237s-0.237 0-0.237-0.119v-0.83c0-0.237 0.237-0.474 0.474-0.474h12.089c0.237 0 0.474 0.237 0.474 0.474v9.837c0 0.356-0.119 0.593-0.474 0.593z"></path>
<path fill="#5a7197" d="M15.111 12.385h-0.711c-0.119 0-0.237-0.119-0.237-0.237s0.119-0.237 0.237-0.237h0.711v-9.837h-12.207v0.711c0 0.119-0.119 0.237-0.237 0.237s-0.237-0.119-0.237-0.237v-0.711c0-0.237 0.237-0.474 0.474-0.474h12.207c0.237 0 0.474 0.237 0.474 0.474v9.837c0 0.356-0.237 0.474-0.474 0.474z"></path>
<path fill="#5a7197" d="M9.778 10.607c-0.119 0-0.119 0-0.119-0.119l-4.622-3.911c-0.119-0.119-0.119-0.237 0-0.356s0.237-0.119 0.356 0l4.504 4.030c0.119 0.119 0.119 0.237 0 0.356 0 0 0 0-0.119 0z"></path>
<path fill="#5a7197" d="M9.778 10.607c0 0-0.119 0-0.119-0.119-0.119-0.119-0.119-0.237 0-0.356l1.778-2.015c0.119-0.119 0.237-0.119 0.356 0s0.119 0.237 0 0.356l-1.778 2.015c-0.119 0.119-0.119 0.119-0.237 0.119z"></path>
<path fill="#5a7197" d="M13.333 10.607c-0.119 0-0.119 0-0.237-0.119l-1.778-2.015c-0.119-0.119-0.119-0.237 0-0.356s0.237-0.119 0.356 0l1.778 2.015c0.119 0.119 0.119 0.237 0 0.356 0 0.119-0.119 0.119-0.119 0.119z"></path>
<path fill="#5a7197" d="M9.541 7.644c-0.593 0-1.067-0.474-1.067-1.067s0.474-0.948 1.067-0.948 1.067 0.474 1.067 1.067-0.474 0.948-1.067 0.948zM9.541 6.104c-0.356 0-0.474 0.237-0.474 0.474s0.119 0.593 0.474 0.593 0.474-0.237 0.474-0.474-0.237-0.593-0.474-0.593z"></path>
</svg>
