<!-- Generated by IcoMoon.io -->
<svg version="1.1" xmlns="http://www.w3.org/2000/svg" width="16" height="16" viewBox="0 0 16 16">
<title>globe</title>
<path fill="#5a7197" d="M8 0.5c4.142 0 7.5 3.357 7.5 7.5s-3.357 7.5-7.5 7.5c-4.142 0-7.5-3.357-7.5-7.5v0 0c0-4.142 3.357-7.5 7.5-7.5v0zM13.507 4.068c-0.506 0.35-1.084 0.666-1.695 0.92l-0.063 0.022-0.064 0.026c0.264 0.759 0.435 1.635 0.476 2.546l0.001 0.020h2.609c-0.079-1.351-0.54-2.581-1.278-3.599l0.014 0.020zM2.493 4.068c-0.711 0.987-1.163 2.205-1.231 3.525l-0.001 0.016h2.609c0.039-0.97 0.216-1.886 0.513-2.746l-0.020 0.067v0.070c-0.724-0.279-1.345-0.6-1.925-0.978l0.040 0.024h0.033zM13.507 11.932c0.719-0.986 1.176-2.204 1.252-3.524l0.001-0.018h-2.609c-0.031 0.967-0.203 1.884-0.496 2.745l0.020-0.066v-0.070c0.709 0.29 1.316 0.621 1.883 1.008l-0.035-0.023h-0.033zM1.261 8.37c0.070 1.353 0.529 2.585 1.268 3.604l-0.014-0.020c0.5-0.352 1.071-0.674 1.674-0.935l0.063-0.024 0.064-0.026c-0.263-0.77-0.428-1.658-0.455-2.579v-0.014zM7.646 10.261v-1.891h-3.042c0.025 0.849 0.171 1.654 0.424 2.411l-0.018-0.059c0.774-0.259 1.666-0.424 2.594-0.455h0.042zM11.429 8.375h-3.042v1.886c0.969 0.037 1.885 0.211 2.747 0.502l-0.069-0.020h-0.070c0.234-0.69 0.384-1.486 0.417-2.314v-0.016zM7.63 7.625v-1.886c-0.969-0.036-1.885-0.206-2.749-0.491l0.070 0.020h0.070c-0.243 0.693-0.399 1.492-0.434 2.324v0.016h3.042zM10.984 5.284c-0.769 0.252-1.655 0.415-2.575 0.45h-0.019v1.896h3.042c-0.042-0.875-0.206-1.699-0.474-2.472l0.019 0.063v0.064zM5.251 11.417c0.55 1.294 1.353 2.384 2.351 3.254l0.011 0.009v-3.696c-0.885 0.036-1.72 0.195-2.506 0.457l0.064-0.019h0.064zM8.37 14.691c1.008-0.865 1.809-1.939 2.34-3.158l0.023-0.056v-0.054c-0.7-0.232-1.509-0.38-2.346-0.412h-0.016zM5.279 4.593c0.697 0.228 1.503 0.371 2.336 0.401h0.015v-3.611c-0.979 0.852-1.761 1.904-2.286 3.094l-0.022 0.056v0.059zM10.726 4.593c-0.55-1.272-1.344-2.346-2.33-3.205l-0.011-0.009v3.621c0.875-0.037 1.701-0.189 2.482-0.441l-0.066 0.019h-0.064zM4.588 4.351c0.259-0.618 0.546-1.146 0.879-1.641l-0.021 0.034v0.038c0.35-0.516 0.715-0.968 1.114-1.386l-0.004 0.005c-1.437 0.32-2.669 1.062-3.589 2.089l-0.005 0.006c0.45 0.304 0.964 0.582 1.506 0.809l0.059 0.021h0.059zM9.474 1.4c0.79 0.814 1.439 1.77 1.904 2.826l0.024 0.061v0.064c0.639-0.26 1.188-0.555 1.699-0.9l-0.033 0.021h-0.033c-0.91-1.009-2.112-1.737-3.474-2.054l-0.045-0.009h-0.042zM9.575 14.574c1.387-0.333 2.572-1.059 3.466-2.051l0.005-0.006c-0.441-0.299-0.946-0.578-1.477-0.807l-0.060-0.024h-0.064c-0.474 1.128-1.107 2.095-1.885 2.925l0.005-0.005zM2.954 12.511c0.89 0.994 2.064 1.716 3.394 2.043l0.046 0.010h0.042c-0.751-0.798-1.375-1.728-1.829-2.75l-0.025-0.063v-0.064c-0.627 0.261-1.165 0.552-1.669 0.89l0.035-0.021h0.033z"></path>
</svg>
