<svg xmlns="http://www.w3.org/2000/svg" data-name="Layer 1" viewBox="0 0 100 100" x="0px" y="0px"><title>Home appliances</title><path d="M94.71,55.45l-44-44a1,1,0,0,0-1.38,0L26.16,34.58v-8a1,1,0,0,0-1-1H19.46a1,1,0,0,0-1,1V42.26L5.29,55.45A1,1,0,0,0,6,57.12h7.74L31.41,39.43,50,20.84,68.59,39.43,86.28,57.12H94A1,1,0,0,0,94.71,55.45Z"></path><path d="M18.48,57.93V87.88a1,1,0,0,0,1,1H36.33a1,1,0,0,0,1-1V74.45a12.69,12.69,0,1,1,25.38,0V87.88a1,1,0,0,0,1,1H80.54a1,1,0,0,0,1-1V57.93L50,26.41Z"></path></svg>