<!-- Generated by IcoMoon.io -->
<svg version="1.1" xmlns="http://www.w3.org/2000/svg" width="16" height="16" viewBox="0 0 16 16">
<title>home</title>
<path fill="#5a7197" d="M15.954 8.97l-7.828-7.828c-0.031-0.030-0.075-0.050-0.123-0.050s-0.091 0.018-0.123 0.050v0l-4.122 4.115v-1.423c0-0.098-0.080-0.178-0.178-0.178v0h-1.014c-0.098 0-0.178 0.080-0.178 0.178v0 2.789l-2.343 2.347c-0.029 0.031-0.046 0.074-0.046 0.12 0 0.097 0.076 0.174 0.172 0.178h1.377l6.451-6.454 6.454 6.454h1.374c0.096-0.004 0.172-0.081 0.172-0.178 0-0.046-0.017-0.088-0.046-0.12v0z"></path>
<path fill="#5a7197" d="M2.392 9.411v5.329c0 0.098 0.080 0.178 0.178 0.178v0h2.997c0.098 0 0.178-0.080 0.178-0.178v0-2.389c0-1.247 1.011-2.257 2.257-2.257s2.257 1.011 2.257 2.257v2.389c0 0.098 0.080 0.178 0.178 0.178v0h2.994c0.098 0 0.178-0.080 0.178-0.178v0-5.329l-5.612-5.608z"></path>
</svg>
