<?xml version="1.0" encoding="utf-8"?>
<!-- Generator: Adobe Illustrator 24.1.1, SVG Export Plug-In . SVG Version: 6.00 Build 0)  -->
<svg version="1.1" id="Layer_1" xmlns="http://www.w3.org/2000/svg" xmlns:xlink="http://www.w3.org/1999/xlink" x="0px" y="0px"
	 width="16" height="16" viewBox="0 0 32 32" style="enable-background:new 0 0 32 32;" xml:space="preserve">
<style type="text/css">
	.st0{fill:#5A7197;}
</style>
<path class="st0" d="M17.4,7.7c-0.7,0.3-1.1,0.9-1.1,1.8c0,0.6,0.1,1.1,0.5,1.4c0.4,0.3,0.8,0.4,1.2,0.1c0.5-0.2,0.7-0.6,0.9-1.2
	C19.3,8.4,18.4,7.3,17.4,7.7L17.4,7.7z"/>
<path class="st0" d="M16.2,12.1c-0.8,0.2-1.7,0.9-2.5,2c-0.6,0.8-0.8,1.3-0.7,1.5c0,0.1,0.1,0.1,0.2,0.1c0.1,0,0.4-0.4,0.7-0.9
	c0.3-0.5,0.7-0.9,0.8-1c0.4-0.4,0.8-0.1,0.6,0.5c0,0.2-0.4,1.5-0.9,2.9c-0.9,3.1-1.1,4-1.1,4.9c0,0.6,0,0.7,0.2,0.9
	c0.3,0.6,1.1,0.6,2,0.2c1.2-0.6,3-2.7,2.9-3.5c0-0.1-0.1-0.2-0.1-0.2c-0.1,0-0.2,0.1-1,1.2c-0.7,0.9-1.1,1.1-1.1,0.4
	c0-0.2,0.4-1.6,0.8-3.3c0.5-1.7,0.9-3.2,0.9-3.5c0.1-0.6,0.1-1.3-0.1-1.6C17.5,12.2,16.9,12,16.2,12.1L16.2,12.1z"/>
<path class="st0" d="M16,28.3C9.2,28.3,3.7,22.8,3.7,16S9.2,3.7,16,3.7c6.8,0,12.3,5.5,12.3,12.3S22.8,28.3,16,28.3z M16,4.6
	C9.7,4.6,4.6,9.7,4.6,16S9.7,27.4,16,27.4c6.3,0,11.4-5.1,11.4-11.4S22.3,4.6,16,4.6z"/>
<path class="st0" d="M16,28.6C9.1,28.6,3.4,22.9,3.4,16S9.1,3.4,16,3.4c6.9,0,12.6,5.6,12.6,12.6S22.9,28.6,16,28.6z M16,4
	C9.4,4,4,9.4,4,16s5.4,12,12,12c6.6,0,12-5.4,12-12S22.6,4,16,4z M16,27.7C9.6,27.7,4.3,22.4,4.3,16S9.6,4.3,16,4.3
	S27.7,9.6,27.7,16S22.4,27.7,16,27.7z M16,4.9C9.9,4.9,4.9,9.9,4.9,16s5,11.1,11.1,11.1s11.1-5,11.1-11.1S22.1,4.9,16,4.9z"/>
</svg>
