<?xml version="1.0" encoding="utf-8"?>
<!-- Generator: Adobe Illustrator 25.4.1, SVG Export Plug-In . SVG Version: 6.00 Build 0)  -->
<svg version="1.1" id="Layer_1" xmlns="http://www.w3.org/2000/svg" xmlns:xlink="http://www.w3.org/1999/xlink" x="0px" y="0px"
	 width="16" height="16" viewBox="0 0 100 100" style="enable-background:new 0 0 100 100;" xml:space="preserve">
<style type="text/css">
	.st0{fill:none;stroke:#5A7197;stroke-width:3;stroke-linecap:round;stroke-linejoin:round;stroke-miterlimit:10;}
</style>
<path class="st0" d="M89,89.4V11.9c0-2.4-1.9-4.3-4.3-4.3H16.9c-2.4,0-4.3,1.9-4.3,4.3v76.7c0,0,4.4-2.9,9.2,0.8
	c4.8,3.7,6.2,4,9.5,0.9c3.3-3.1,9.3-5,12.2-1.5c2.9,3.4,6.2,5,11.2,1.4c5-3.6,6.9-7.9,10.1-4c3.3,4,6.8,7,9.8,4.5
	c3-2.6,6-8.4,7.9-5.3C84.3,88.5,89,90.4,89,89.4z M72.9,22h3.2 M66.7,22H47.9 M76.1,35.2h-4.2 M48.2,35.2h18.1 M46.6,48.4h29.5
	 M77.4,61.6H42.1 M31.1,20.4l0,4.3 M31.1,51.8v-4.3 M37,26.1c0,0-12.4-4.9-12.1,3.8C25.2,36.9,39.3,34.2,37,43
	C34.9,51.1,25,45.9,25,45.9 M75.6,75.2l-5.4,1l-0.8-5.6l-3.6,5.6L62.8,72l-3.1,4.2L56.6,72l-1.5,4.2"/>
</svg>
