<svg xmlns="http://www.w3.org/2000/svg" xmlns:xlink="http://www.w3.org/1999/xlink" version="1.1" x="0px" y="0px" viewBox="-489 491 100 100" enable-background="new -489 491 100 100" xml:space="preserve"><path d="M-443.7,528.6c1.9,0,3.6,0.5,5.3,1.3l6.7-7c-3.5-2.6-7.6-3.8-12-3.8c-14.7,0-26.5,11.8-26.5,26.5  c0,14.7,11.8,26.5,26.5,26.5s26.5-11.8,26.5-26.5c0-4.2-1.2-8.4-3.8-12l-7,6.7c0.8,1.7,1.3,3.3,1.3,5.3c0,9.3-7.7,17-17,17  s-17-7.7-17-17C-460.7,536.3-453,528.6-443.7,528.6z M-413.5,525.5c3.6,5.7,5.8,13.2,5.8,20.1c0,19.8-16,35.9-35.9,35.9  c-19.8,0-35.9-16.1-35.9-35.9c0-19.9,16.1-35.9,35.9-35.9c6.7,0,14.3,2.1,20.1,5.8l6.6-6.8c-8-5.7-17.9-8.5-26.7-8.5  c-25,0-45.4,20.3-45.4,45.4c0,25,20.3,45.4,45.4,45.4s45.4-20.3,45.4-45.4c0-8.9-2.7-18.7-8.5-26.7L-413.5,525.5z M-440.6,538.7  c-1-0.5-2-0.7-3-0.7c-4.2,0-7.6,3.4-7.6,7.6c0,4.2,3.4,7.6,7.6,7.6s7.6-3.4,7.6-7.6c0-1.1-0.2-2-0.6-3l29-29l7.7-0.8l11-11.1  l-9.2-1.3l-1.4-9.4l-11,11l-0.8,7.6L-440.6,538.7z"></path></svg>