<!-- Generated by IcoMoon.io -->
<svg version="1.1" xmlns="http://www.w3.org/2000/svg" width="16" height="16" viewBox="0 0 16 16">
<title>landing</title>
<path fill="#6f84a7" d="M7.354 6.295c0.261 0 0.495 0.069 0.729 0.179l0.921-0.963c-0.481-0.357-1.045-0.522-1.65-0.522-2.021 0-3.644 1.623-3.644 3.644s1.622 3.644 3.644 3.644 3.644-1.623 3.644-3.644c0-0.578-0.165-1.155-0.523-1.65l-0.963 0.921c0.11 0.234 0.179 0.454 0.179 0.729 0 1.279-1.059 2.338-2.338 2.338s-2.338-1.059-2.338-2.338c0-1.279 1.059-2.338 2.338-2.338zM11.506 5.869c0.495 0.784 0.797 1.815 0.797 2.764 0 2.723-2.2 4.936-4.936 4.936-2.723 0-4.936-2.214-4.936-4.936 0-2.736 2.214-4.936 4.936-4.936 0.921 0 1.966 0.289 2.764 0.798l0.908-0.935c-1.1-0.784-2.461-1.169-3.671-1.169-3.438 0-6.242 2.791-6.242 6.242 0 3.438 2.791 6.242 6.242 6.242s6.242-2.791 6.242-6.242c0-1.224-0.371-2.571-1.169-3.671l-0.935 0.907zM7.78 7.684c-0.138-0.069-0.275-0.096-0.412-0.096-0.577 0-1.045 0.468-1.045 1.045s0.468 1.045 1.045 1.045 1.045-0.467 1.045-1.045c0-0.151-0.027-0.275-0.082-0.412l3.988-3.987 1.059-0.11 1.512-1.526-1.265-0.179-0.193-1.292-1.512 1.512-0.11 1.045-4.029 4.001z"></path>
</svg>
