<svg xmlns="http://www.w3.org/2000/svg" viewBox="0 0 32 32"><title>legal</title><path d="M17.89,4.4a4.54,4.54,0,0,1,2.95,3.38v0c.17.71.22.72-.27.71H19.21c-.59,0-.46.14-.86-1-.74-1.94-3.24-1.88-4.28-.92a1.7,1.7,0,0,0-.62,1.32,1.76,1.76,0,0,0,.61,1.33h0c1,.79,2,1.58,3.14,2.32l.15.09c1.05.74,2.18,1.38,3.18,2.18A3.78,3.78,0,0,1,20.07,20c-.24.11-.39.22-.84.43.27.3.58.6.81.84a3.82,3.82,0,0,1-1.16,6.15h0a6.26,6.26,0,0,1-2.7.6A6.38,6.38,0,0,1,13,27.19l0,0a4.34,4.34,0,0,1-2.16-3.14c0-.11,0-.33,0-.34.51-.17,1-.29,1.54-.44.32-.08.39.35.51.58a4.23,4.23,0,0,0,1,1.34h0a3.63,3.63,0,0,0,4.34.18,1.88,1.88,0,0,0,.61-1.4,1.92,1.92,0,0,0-.73-1.5h0c-1.16-.94-2.41-1.72-3.61-2.59a37.5,37.5,0,0,1-3.37-2.54l.06.05a3.77,3.77,0,0,1,1.06-6.05l.43-.24-.55-.77a3.73,3.73,0,0,1,1.89-6A5,5,0,0,1,15.92,4a5.14,5.14,0,0,1,2,.41l0,0Zm2,12.76A3.27,3.27,0,0,0,18.41,15h0c-1.37-1-2.79-1.88-4.2-2.79a.78.78,0,0,0-.34-.09.75.75,0,0,0-.26.05h0c-2,1.18-2.06,2.95-.48,4.13s3.06,2.06,4.61,3.07a.87.87,0,0,0,.36.09.63.63,0,0,0,.19,0h0a2.62,2.62,0,0,0,1.59-2.24Z"/></svg>