<!-- Generated by IcoMoon.io -->
<svg version="1.1" xmlns="http://www.w3.org/2000/svg" width="16" height="16" viewBox="0 0 16 16">
<title>legal</title>
<path fill="#5a7197" d="M9.004 1.838c0.797 0.285 1.392 0.955 1.564 1.78l0.003 0.016c0.090 0.377 0.117 0.382-0.143 0.377h-0.722c-0.313 0-0.244 0.074-0.457-0.531-0.393-1.031-1.721-0.999-2.274-0.489-0.202 0.167-0.329 0.418-0.329 0.697 0 0.001 0 0.002 0 0.004v0c0 0.282 0.125 0.534 0.323 0.705l0.001 0.001c0.531 0.42 1.062 0.839 1.668 1.232l0.080 0.048c0.558 0.393 1.158 0.733 1.689 1.158 0.455 0.371 0.743 0.932 0.743 1.56 0 0.732-0.392 1.374-0.977 1.724l-0.010 0.005c-0.127 0.058-0.207 0.117-0.446 0.228 0.143 0.159 0.308 0.319 0.43 0.446 0.357 0.365 0.577 0.866 0.577 1.417 0 0.818-0.483 1.522-1.181 1.844l-0.013 0.005c-0.416 0.201-0.904 0.319-1.42 0.319-0.005 0-0.010 0-0.014 0h0.001c-0.005 0-0.012 0-0.018 0-0.615 0-1.191-0.164-1.688-0.449l0.016 0.009c-0.608-0.347-1.037-0.949-1.145-1.655l-0.002-0.013c0-0.058 0-0.175 0-0.181 0.271-0.090 0.531-0.154 0.818-0.234 0.17-0.042 0.207 0.186 0.271 0.308 0.134 0.278 0.312 0.515 0.529 0.71l0.002 0.002c0.329 0.269 0.754 0.432 1.216 0.432 0.407 0 0.784-0.126 1.095-0.341l-0.006 0.004c0.2-0.183 0.324-0.445 0.324-0.736 0-0.002 0-0.005 0-0.007v0c-0.001-0.322-0.152-0.609-0.386-0.795l-0.002-0.002c-0.616-0.499-1.28-0.914-1.918-1.376-0.678-0.456-1.261-0.899-1.819-1.373l0.029 0.023 0.032 0.027c-0.357-0.361-0.577-0.858-0.577-1.407 0-0.793 0.46-1.478 1.128-1.802l0.012-0.005 0.228-0.128-0.292-0.409c-0.288-0.342-0.463-0.787-0.463-1.274 0-0.912 0.615-1.68 1.453-1.91l0.014-0.003c0.283-0.112 0.609-0.176 0.951-0.176 0.020 0 0.041 0 0.062 0.001h-0.003c0.384 0.001 0.749 0.081 1.081 0.224l-0.018-0.006zM10.066 8.616c-0.096-0.487-0.384-0.892-0.779-1.143l-0.007-0.004c-0.728-0.531-1.482-0.999-2.231-1.482-0.052-0.029-0.114-0.046-0.18-0.048h-0.001c-0.050 0.001-0.097 0.011-0.141 0.028l0.003-0.001c-1.062 0.627-1.094 1.567-0.255 2.194s1.626 1.094 2.449 1.631c0.055 0.029 0.121 0.046 0.19 0.048h0.001c0.015 0.002 0.033 0.004 0.050 0.004s0.035-0.001 0.052-0.004h-0.002c0.475-0.205 0.809-0.654 0.845-1.186v-0.004z"></path>
</svg>
