<svg xmlns="http://www.w3.org/2000/svg" viewBox="0 0 32 32"><title>listing</title><path d="M27.46,30H4.54a.31.31,0,0,1-.31-.32h0V2.32h0a.31.31,0,0,1,.09-.22h0A.36.36,0,0,1,4.54,2H24a.32.32,0,0,1,.23.09h0l3.43,3.42a.32.32,0,0,1,.09.23h0V29.68h0a.31.31,0,0,1-.31.32h0Zm-22.6-.64H27.14V5.87L23.89,2.63h-19Z"/><path d="M10.27,9.48H8a.33.33,0,0,1-.32-.3h0V6.88h0A.32.32,0,0,1,8,6.56h2.3a.31.31,0,0,1,.31.32h0v2.3a.32.32,0,0,1-.32.3Zm-2-.64H10V7.2H8.3Z"/><path d="M10.27,14.61H8a.32.32,0,0,1-.32-.32h0V12A.32.32,0,0,1,8,11.69h2.29a.32.32,0,0,1,.32.32h0v2.28a.32.32,0,0,1-.32.32ZM8.3,14H10V12.33H8.3Z"/><path d="M10.27,19.74H8a.33.33,0,0,1-.32-.32h0V17.14h0A.32.32,0,0,1,8,16.82h2.3a.31.31,0,0,1,.31.32h0v2.28a.32.32,0,0,1-.32.32Zm-2-.64H10V17.46H8.3Z"/><path d="M10.27,24.87H8a.32.32,0,0,1-.32-.32h0V22.29A.32.32,0,0,1,8,22h2.29a.32.32,0,0,1,.32.32h0v2.28a.32.32,0,0,1-.32.3Zm-2-.64H10V22.59H8.3Z"/><path d="M20,7.77H12a.33.33,0,0,1-.32-.32A.32.32,0,0,1,12,7.13h8a.32.32,0,0,1,.32.32.32.32,0,0,1-.32.32Z"/><path d="M23.45,9.48H12a.32.32,0,0,1-.31-.32h0A.31.31,0,0,1,12,8.84H23.45a.32.32,0,0,1,.32.32h0a.32.32,0,0,1-.32.32Z"/><path d="M20,12.9H12a.32.32,0,0,1,0-.64h8.1a.32.32,0,0,1,0,.64Z"/><path d="M23.45,14.61H12a.31.31,0,0,1-.31-.32h0A.31.31,0,0,1,12,14H23.45a.32.32,0,0,1,.32.32h0a.32.32,0,0,1-.32.32Z"/><path d="M20,18H12a.32.32,0,0,1-.32-.32h0a.32.32,0,0,1,.32-.32h8a.32.32,0,0,1,.32.32h0A.32.32,0,0,1,20,18Z"/><path d="M23.45,19.74H12a.32.32,0,1,1,0-.64h11.5a.32.32,0,0,1,0,.64Z"/><path d="M20,23.16H12a.32.32,0,0,1-.32-.32h0a.32.32,0,0,1,.32-.32h8a.32.32,0,0,1,.32.32h0a.32.32,0,0,1-.32.32Z"/><path d="M23.45,24.87H12a.32.32,0,0,1,0-.64H23.45a.32.32,0,0,1,0,.64Z"/><path d="M27.46,6H24a.33.33,0,0,1-.31-.32h0V2.31a.32.32,0,0,1,.63,0h0V5.42h3.11a.32.32,0,0,1,.32.32h0a.32.32,0,0,1-.31.3h0Z"/></svg>