<!-- Generated by IcoMoon.io -->
<svg version="1.1" xmlns="http://www.w3.org/2000/svg" width="16" height="16" viewBox="0 0 16 16">
<title>listing</title>
<path fill="#5a7197" d="M13.584 2.624l-1.68-1.696c-0.336-0.336-0.784-0.529-1.264-0.529h-6.976c0 0 0 0 0 0-0.48 0-0.928 0.192-1.264 0.529s-0.529 0.784-0.529 1.264v11.632c0 0.976 0.8 1.776 1.776 1.776h8.656c0.976 0 1.776-0.8 1.776-1.776v-9.952c0.032-0.464-0.16-0.912-0.496-1.248zM13.12 3.088c0.16 0.16 0.256 0.352 0.304 0.56h-2.304c-0.144 0-0.256-0.112-0.256-0.256v-2.304c0.208 0.048 0.4 0.144 0.56 0.304l1.696 1.696zM12.335 14.944h-8.672c-0.624 0-1.12-0.496-1.12-1.12v-11.647c0-0.304 0.112-0.576 0.336-0.8 0.208-0.208 0.496-0.336 0.8-0.336 0 0 0 0 0 0l6.544 0.016v2.336c0 0.496 0.416 0.912 0.912 0.912h2.32v9.505c0 0.624-0.512 1.137-1.12 1.137z"></path>
<path fill="#5a7197" d="M10.896 9.137h-3.968c-0.176 0-0.336 0.144-0.336 0.336 0 0.176 0.144 0.336 0.336 0.336h3.984c0.176 0 0.336-0.144 0.336-0.336-0.016-0.192-0.16-0.336-0.352-0.336z"></path>
<path fill="#5a7197" d="M10.896 6.224h-3.968c-0.176 0-0.336 0.144-0.336 0.336 0 0.176 0.144 0.336 0.336 0.336h3.984c0.176 0 0.336-0.144 0.336-0.336-0.016-0.192-0.16-0.336-0.352-0.336z"></path>
<path fill="#5a7197" d="M10.896 12.033h-3.968c-0.176 0-0.336 0.144-0.336 0.336s0.144 0.336 0.336 0.336h3.984c0.176 0 0.336-0.144 0.336-0.336s-0.16-0.336-0.352-0.336z"></path>
<path fill="#5a7197" d="M5.456 6.048h-0.352c-0.176 0-0.336 0.144-0.336 0.336v0.352c0 0.176 0.144 0.336 0.336 0.336h0.352c0.176 0 0.336-0.144 0.336-0.336v-0.352c-0.016-0.192-0.16-0.336-0.336-0.336z"></path>
<path fill="#5a7197" d="M5.456 8.96h-0.352c-0.176 0-0.336 0.144-0.336 0.336v0.352c0 0.176 0.144 0.336 0.336 0.336h0.352c0.176 0 0.336-0.144 0.336-0.336v-0.368c-0.016-0.176-0.16-0.32-0.336-0.32z"></path>
<path fill="#5a7197" d="M5.456 11.856h-0.352c-0.176 0-0.336 0.144-0.336 0.336v0.352c0 0.176 0.144 0.336 0.336 0.336h0.352c0.176 0 0.336-0.144 0.336-0.336v-0.352c-0.016-0.192-0.16-0.336-0.336-0.336z"></path>
</svg>
