<!-- Generated by IcoMoon.io -->
<svg version="1.1" xmlns="http://www.w3.org/2000/svg" width="16" height="16" viewBox="0 0 16 16">
<title>location</title>
<path fill="#5a7197" d="M8 13.488l-0.272-0.288c-0.16-0.192-4.080-4.56-4.080-8.033 0-2.415 1.952-4.368 4.353-4.368s4.352 1.952 4.352 4.353c0 3.472-3.921 7.856-4.080 8.033l-0.272 0.304zM8 1.52c-2 0-3.633 1.632-3.633 3.633 0 2.703 2.752 6.192 3.633 7.248 0.88-1.056 3.633-4.544 3.633-7.248 0-2-1.632-3.632-3.633-3.632z"></path>
<path fill="#5a7197" d="M8 7.472c-1.28 0-2.32-1.040-2.32-2.32s1.024-2.32 2.32-2.32c1.28 0 2.32 1.041 2.32 2.32 0 0 0 0 0 0 0 1.28-1.040 2.32-2.32 2.32zM8 3.552c-0.88 0-1.6 0.72-1.6 1.6s0.72 1.6 1.6 1.6 1.6-0.72 1.6-1.6c0-0.896-0.72-1.6-1.6-1.6 0 0 0 0 0 0z"></path>
<path fill="#5a7197" d="M10.224 11.888c-0.177 0.255-0.352 0.48-0.512 0.687 2.832 0.144 4.512 0.624 4.752 0.928-0.288 0.368-2.592 0.975-6.464 0.975s-6.176-0.608-6.464-0.975c0.24-0.304 1.92-0.784 4.752-0.928-0.16-0.208-0.336-0.432-0.512-0.687-2.127 0.144-4.976 0.528-4.976 1.617 0 1.648 6.464 1.695 7.2 1.695s7.2-0.048 7.2-1.695c0-1.088-2.847-1.473-4.976-1.617z"></path>
</svg>
