<?xml version="1.0" encoding="utf-8"?>
<!-- Generator: Adobe Illustrator 22.1.0, SVG Export Plug-In . SVG Version: 6.00 Build 0)  -->
<svg version="1.1" id="Layer_1" xmlns="http://www.w3.org/2000/svg" xmlns:xlink="http://www.w3.org/1999/xlink" x="0px" y="0px"
	 viewBox="0 0 100 100" style="enable-background:new 0 0 100 100;" xml:space="preserve">
<title>Ui Location Map OL</title>
<path d="M50,84.3l-1.7-1.8c-1-1.2-25.5-28.5-25.5-50.2C22.8,17.2,35,5,50,5s27.2,12.2,27.2,27.2c0,21.7-24.5,49.1-25.5,50.2L50,84.3
	z M50,9.5c-12.5,0-22.7,10.2-22.7,22.7c0,16.9,17.2,38.7,22.7,45.3c5.5-6.6,22.7-28.4,22.7-45.3C72.7,19.7,62.5,9.5,50,9.5z"/>
<path d="M50,46.7c-8,0-14.5-6.5-14.5-14.5S41.9,17.7,50,17.7c8,0,14.5,6.5,14.5,14.5c0,0,0,0,0,0C64.5,40.2,58,46.7,50,46.7z
	 M50,22.2c-5.5,0-10,4.5-10,10s4.5,10,10,10s10-4.5,10-10C60,26.6,55.5,22.2,50,22.2C50,22.2,50,22.2,50,22.2z"/>
<path d="M63.9,74.3c-1.1,1.6-2.2,3-3.2,4.3c17.7,0.9,28.2,3.9,29.7,5.8c-1.8,2.3-16.2,6.1-40.4,6.1s-38.6-3.8-40.4-6.1
	c1.5-1.9,12-4.9,29.7-5.8c-1-1.3-2.1-2.7-3.2-4.3C22.8,75.2,5,77.6,5,84.4C5,94.7,45.4,95,50,95s45-0.3,45-10.6
	C95,77.6,77.2,75.2,63.9,74.3z"/>
</svg>
