<?xml version="1.0" encoding="utf-8"?>
<!-- Generator: Adobe Illustrator 27.7.0, SVG Export Plug-In . SVG Version: 6.00 Build 0)  -->
<svg version="1.1" id="Layer_1" xmlns="http://www.w3.org/2000/svg" xmlns:xlink="http://www.w3.org/1999/xlink" x="0px" y="0px"
	 viewBox="0 0 24 24" style="enable-background:new 0 0 24 24;" xml:space="preserve">
<style type="text/css">
	.st0{fill:none;stroke:#6F84A7;stroke-width:2;stroke-linecap:round;stroke-linejoin:round;}
	.st1{fill:#6F84A7;stroke:#FFFFFF;stroke-width:0.2835;stroke-miterlimit:10;}
	.st2{fill:#6F84A7;}
</style>
<path class="st0" d="M14.5,6.4c4-1.2,8.4,2.5,7.5,6.7c-0.5,2-4.2,7.7-6.7,6.1"/>
<path class="st1" d="M5,13.3c-0.2,0-0.5-0.1-0.7-0.3c-1.7-1.6-2.6-3.9-2.2-6.3c0.3-2.3,1.7-4.2,3.8-5.1c2.3-1.1,5-0.7,7,0.9
	c2.1,1.6,3,4.2,2.5,6.7c-0.1,0.5-0.6,0.9-1.2,0.8c-0.5-0.1-0.9-0.6-0.8-1.2c0.4-1.7-0.3-3.5-1.8-4.7c-1.5-1.2-3.3-1.4-5-0.7
	c-1.4,0.7-2.4,2-2.6,3.6c-0.3,1.7,0.3,3.4,1.6,4.5c0.4,0.4,0.4,1,0.1,1.4C5.5,13.2,5.3,13.3,5,13.3z"/>
<path class="st2" d="M10.7,17c-1.8,0-3.2-1.4-3.2-3.2c0-1.8,1.4-3.2,3.2-3.2s3.2,1.4,3.2,3.2C13.9,15.6,12.4,17,10.7,17z M10.7,12.6
	c-0.7,0-1.2,0.5-1.2,1.2S10,15,10.7,15s1.2-0.5,1.2-1.2S11.3,12.6,10.7,12.6z"/>
<path class="st2" d="M15.9,9.1c-0.4,0-0.8,0.1-1.2,0.3c0.6,0.5,1.1,1.1,1.4,1.8c0.6,0.1,1,0.6,1,1.1c0,0.4-0.2,0.7-0.5,0.9
	c0.1,0.7,0,1.5-0.2,2.2c1.5-0.2,2.7-1.5,2.7-3.1C19.1,10.6,17.6,9.1,15.9,9.1z"/>
<path class="st2" d="M7.9,8.6C7.7,8.4,7.6,8.2,7.6,7.9c0-0.7,0.5-1.2,1.2-1.2S10,7.2,10,7.9c0,0,0,0.1,0,0.1c0.2,0,0.5,0,0.7,0
	c0.5,0,0.9,0.1,1.3,0.2c0-0.1,0-0.1,0-0.2c0-1.8-1.4-3.2-3.2-3.2S5.6,6.1,5.6,7.9c0,0.8,0.3,1.5,0.7,2C6.8,9.4,7.3,8.9,7.9,8.6z"/>
<path class="st1" d="M10.7,22.5c-0.7,0-1.3-0.3-1.7-0.7l-3.1-3.1c-1.3-1.3-2-3-2-4.8c0-1.8,0.7-3.5,2-4.8c1.3-1.3,3-2,4.8-2
	s3.5,0.7,4.8,2c2.7,2.7,2.7,7,0,9.7l-3.1,3.1C11.9,22.2,11.3,22.5,10.7,22.5C10.7,22.5,10.7,22.5,10.7,22.5z M10.7,9
	c-1.3,0-2.5,0.5-3.4,1.4s-1.4,2.1-1.4,3.4c0,1.3,0.5,2.5,1.4,3.4l3.1,3.1c0.1,0.1,0.3,0.1,0.3,0.1s0.2,0,0.3-0.1l3.1-3.1l0,0
	c1.9-1.9,1.9-5,0-6.8C13.2,9.5,12,9,10.7,9z"/>
</svg>
