<?xml version="1.0" encoding="utf-8"?>
<!-- Generator: Adobe Illustrator 26.3.1, SVG Export Plug-In . SVG Version: 6.00 Build 0)  -->
<svg version="1.1" id="Layer_1" xmlns="http://www.w3.org/2000/svg" xmlns:xlink="http://www.w3.org/1999/xlink" x="0px" y="0px"
	 viewBox="0 0 16 16" style="enable-background:new 0 0 16 16;" xml:space="preserve">
<style type="text/css">
	.st0{fill:#5A7197;}
</style>
<path class="st0" d="M5.1,14.8L5,14.7c-0.1-0.1-2.1-2.4-2.1-4.2c0-1.3,1-2.3,2.3-2.3s2.3,1,2.3,2.3c0,1.8-2.1,4.1-2.1,4.2L5.1,14.8
	L5.1,14.8z M5.1,8.6c-1,0-1.9,0.9-1.9,1.9c0,1.4,1.4,3.2,1.9,3.8C5.6,13.7,7,11.9,7,10.5C7,9.4,6.1,8.6,5.1,8.6L5.1,8.6z"/>
<path class="st0" d="M5.1,11.7c-0.7,0-1.2-0.5-1.2-1.2s0.5-1.2,1.2-1.2c0.7,0,1.2,0.5,1.2,1.2l0,0C6.3,11.2,5.8,11.7,5.1,11.7z
	 M5.1,9.6c-0.5,0-0.8,0.4-0.8,0.8s0.4,0.8,0.8,0.8c0.5,0,0.8-0.4,0.8-0.8C5.9,10,5.6,9.6,5.1,9.6L5.1,9.6z"/>
<path class="st0" d="M7.4,7.8L7.2,7.6C7.1,7.5,5.1,5.2,5.1,3.4c0-1.3,1-2.3,2.3-2.3s2.3,1,2.3,2.3c0,1.8-2.1,4.1-2.1,4.2L7.4,7.8
	L7.4,7.8z M7.4,1.5c-1,0-1.9,0.9-1.9,1.9c0,1.4,1.4,3.2,1.9,3.8c0.5-0.6,1.9-2.4,1.9-3.8C9.3,2.4,8.4,1.5,7.4,1.5L7.4,1.5z"/>
<path class="st0" d="M7.4,4.6c-0.7,0-1.2-0.5-1.2-1.2s0.5-1.2,1.2-1.2c0.7,0,1.2,0.5,1.2,1.2l0,0C8.6,4.1,8,4.6,7.4,4.6z M7.4,2.6
	C6.9,2.6,6.5,3,6.5,3.4s0.4,0.8,0.8,0.8c0.5,0,0.8-0.4,0.8-0.8C8.2,2.9,7.8,2.6,7.4,2.6L7.4,2.6z"/>
<path class="st0" d="M10.9,12.1l-0.1-0.2c-0.1-0.1-2.1-2.4-2.1-4.2c0-1.3,1-2.3,2.3-2.3s2.3,1,2.3,2.3c0,1.8-2.1,4.1-2.1,4.2
	L10.9,12.1L10.9,12.1z M10.9,5.8C9.8,5.8,9,6.6,9,7.7c0,1.4,1.4,3.2,1.9,3.8c0.5-0.6,1.9-2.4,1.9-3.8C12.8,6.6,11.9,5.8,10.9,5.8
	L10.9,5.8z"/>
<path class="st0" d="M10.9,8.9c-0.7,0-1.2-0.5-1.2-1.2s0.5-1.2,1.2-1.2c0.7,0,1.2,0.5,1.2,1.2l0,0C12.1,8.4,11.5,8.9,10.9,8.9z
	 M10.9,6.9c-0.5,0-0.8,0.4-0.8,0.8s0.4,0.8,0.8,0.8s0.8-0.4,0.8-0.8C11.7,7.2,11.3,6.9,10.9,6.9L10.9,6.9z"/>
</svg>
