<?xml version="1.0" encoding="utf-8"?>
<!-- Generator: Adobe Illustrator 25.4.1, SVG Export Plug-In . SVG Version: 6.00 Build 0)  -->
<svg version="1.1" id="Layer_1" xmlns="http://www.w3.org/2000/svg" xmlns:xlink="http://www.w3.org/1999/xlink" x="0px" y="0px"
	 width="16" height="16" viewBox="0 0 32 32" style="enable-background:new 0 0 32 32;" xml:space="preserve">
<style type="text/css">
	.st0{fill:#5A7197;}
</style>
<g>
	<path class="st0" d="M20,9l-1.1-3.5c-0.2-0.6-0.8-0.9-1.5-0.8c-0.3,0.1-0.5,0.3-0.7,0.6c-0.1,0.3-0.2,0.6-0.1,0.8l0.3,1
		c-2.9,3.4-5.2,5.1-8.2,6.2l-0.3-1.1l-5.1,1.6c-1,0.3-1.8,1-2.3,1.9c-0.5,0.9-0.6,1.9-0.2,2.9v0c0.5,1.6,2,2.7,3.6,2.7
		c0.3,0,0.5,0,0.8,0l3.6,6.3c0,0.1,0.2,0.2,0.3,0.2c0,0,0.1,0,0.2,0l2-1.1c0.1,0,0.1-0.1,0.2-0.3l0.1-0.9c0.1-0.6-0.2-1.2-0.8-1.4
		l-0.2-0.1c-0.3-0.1-0.4-0.4-0.4-0.7l0-0.2c0.1-0.6-0.2-1.2-0.8-1.4l-0.2-0.1C9.1,21.4,9,21.2,9,20.8l0.1-0.7l1.7-0.6l-0.3-1.1
		c1.4-0.4,2.8-0.6,4.2-0.6c1.7,0,3.6,0.3,6.1,0.9l0.3,1c0.1,0.5,0.6,0.8,1.1,0.8c0.1,0,0.2,0,0.4,0c0.3-0.1,0.5-0.3,0.7-0.6
		c0.1-0.3,0.2-0.6,0.1-0.8l-1.1-3.5c0.6-0.3,1.1-0.8,1.3-1.5c0.3-0.8,0.3-1.7,0-2.5C23,9.9,21.5,8.8,20,9z M9,22.2l0.2,0.1
		c0.3,0.1,0.4,0.4,0.4,0.7l0,0.2c-0.1,0.6,0.2,1.2,0.8,1.4l0.2,0.1c0.3,0.1,0.4,0.4,0.4,0.7l-0.1,0.8l-1.6,0.8L6,21.1l2.3-0.7l0,0.4
		C8.2,21.3,8.5,22,9,22.2z M5.5,20.5c-0.3,0.1-0.6,0.1-0.9,0.1c-1.4,0-2.6-0.9-3-2.2v0c-0.2-0.8-0.1-1.6,0.2-2.4
		c0.4-0.8,1-1.3,1.8-1.6L8,13.1l0.1,0.4l0,0l1.6,5.2l0,0l0.1,0.4L5.5,20.5z M14.7,17.2c-1.5,0-3,0.2-4.5,0.7l-0.7-2.1L9,14
		c3.5-1.2,5.9-3.3,8.3-6l3.2,10C18.2,17.4,16.4,17.2,14.7,17.2z M22.5,19.7c0,0.1-0.1,0.2-0.3,0.2c-0.2,0.1-0.5,0-0.5-0.3L17.4,6
		c0-0.1,0-0.2,0-0.3c0-0.1,0.1-0.2,0.3-0.2c0,0,0.1,0,0.1,0c0.2,0,0.4,0.1,0.4,0.3l4.3,13.6C22.6,19.4,22.5,19.6,22.5,19.7z
		 M22.8,13.8c-0.2,0.5-0.5,0.8-0.9,1l-1.6-5.2c1.1-0.1,2.2,0.8,2.6,2C23.1,12.5,23,13.2,22.8,13.8z"/>
	<path class="st0" d="M31,9.2c-0.8-2.6-2.6-4.7-5-6l-0.3,0.6c2.3,1.2,3.9,3.2,4.7,5.6s0.5,5-0.7,7.3l0.6,0.3
		C31.6,14.6,31.8,11.8,31,9.2z"/>
	<path class="st0" d="M24.8,5.3l-0.3,0.6c1.7,0.9,2.9,2.4,3.5,4.2s0.4,3.8-0.5,5.4l0.6,0.3c0.9-1.8,1.1-3.9,0.5-6
		C28,7.9,26.7,6.3,24.8,5.3z"/>
	<path class="st0" d="M23.7,7.5l-0.3,0.6c2.3,1.2,3.2,4,2,6.3l0.6,0.3C27.3,12.1,26.3,8.9,23.7,7.5z"/>
</g>
</svg>
