<?xml version="1.0" encoding="utf-8"?>
<!-- Generator: Adobe Illustrator 24.1.1, SVG Export Plug-In . SVG Version: 6.00 Build 0)  -->
<svg version="1.1" id="Layer_1" xmlns="http://www.w3.org/2000/svg" xmlns:xlink="http://www.w3.org/1999/xlink" x="0px" y="0px"
	 width="16" height="16" viewBox="0 0 32 32" style="enable-background:new 0 0 32 32;" xml:space="preserve">
<style type="text/css">
	.st0{fill:#6f84a7;}
</style>
<path class="st0" d="M4,26.7C4,28.5,5.5,30,7.3,30H27c0.4,0,0.6-0.2,0.6-0.6V24c0-0.4-0.2-0.6-0.6-0.6h-0.4c3.1-5,0.6-11.5-5.1-13.1
	c-0.1-0.3-0.3-0.5-0.5-0.8l0.8-1.2c1.2,0.2,1.7-0.8,1.7-0.8C24,7,23.8,6,23.1,5.5c0,0-0.3-0.2-0.1-0.5c0,0,0.9-1.2-0.4-2.2l-0.8-0.5
	c-0.7-0.5-1.7-0.2-2.2,0.5c-0.2,0.3-0.4,0.3-0.6,0.2c-0.7-0.5-1.6-0.2-2.2,0.5C16.5,4,16.6,4.7,17,5.3l-5.4,8.5
	c-0.2,0.3-0.1,0.6,0.2,0.8l0.2,0.2l-0.7,1.3c-0.2,0.3-0.1,0.6,0.2,0.8l2.3,1.5c0.4,0.2,0.7-0.1,0.8-0.2l0.8-1.2l0.2,0.2
	c0.4,0.2,0.7,0,0.8-0.2l1.6-2.6c0.3,0.1,1.3,0.4,2.4-0.4c4.6,1.3,4.9,7.8,0.4,9.4h-5.6c0.3-0.2,1.7-1.2,1.7-1.2c0.5-0.4,0.2-1-0.4-1
	H5c-0.6,0-0.8,0.7-0.3,1c0,0,1.6,1.2,1.9,1.4C4.5,24.1,4,25.9,4,26.7L4,26.7z M17.9,4.3L17.9,4.3c0.2-0.3,0.5-0.2,0.6-0.2
	c0.8,0.4,1.7,0.2,2.2-0.5l0.1-0.1c0.1-0.2,0.4-0.2,0.5-0.1l0.7,0.5c0.2,0.2,0.2,0.5,0.1,0.5L22,4.5c-0.5,0.7-0.2,1.7,0.5,2.2
	c0.2,0.1,0.2,0.3,0.1,0.5l-0.1,0.1C22.2,7.5,22,7.3,22,7.3l0,0l0,0l-3.8-2.4C17.9,4.6,17.8,4.4,17.9,4.3L17.9,4.3z M14,17l-1.3-0.9
	l0.5-0.7l1.3,0.9L14,17z M18.9,13.3c-1,0-1.8-0.8-1.8-1.8s0.8-1.8,1.8-1.8s1.8,0.8,1.8,1.8S19.9,13.3,18.9,13.3z M20.2,8.9
	c-0.4-0.2-0.8-0.3-1.3-0.3c-1.6,0-3,1.3-3,3c0,0.9,0.4,1.8,1.1,2.3l-1.3,2l-0.2-0.2l-2.3-1.5L13,14.1l5.1-8l2.8,1.8L20.2,8.9
	L20.2,8.9z M21.4,13.1c0.3-0.5,0.5-1,0.5-1.5c4.8,1.8,6.5,7.8,3.4,11.8h-2.2C26.6,20.5,25.6,14.8,21.4,13.1L21.4,13.1z M14.8,22.3
	c-0.8,0.5-1.5,0.9-2.1,1.1H8.8c-0.7-0.2-1.4-0.6-2.2-1.1H14.8z M7.3,24.6h19.1v4.3H7.3c-1.2,0-2.1-0.9-2.1-2.1
	C5.2,26.1,5.6,24.7,7.3,24.6z"/>
</svg>
