<?xml version="1.0" encoding="utf-8"?>
<!-- Generator: Adobe Illustrator 25.4.1, SVG Export Plug-In . SVG Version: 6.00 Build 0)  -->
<svg version="1.1" id="Layer_1" xmlns="http://www.w3.org/2000/svg" xmlns:xlink="http://www.w3.org/1999/xlink" x="0px" y="0px"
	 width="16" height="16" viewBox="0 0 32 32" style="enable-background:new 0 0 32 32;" xml:space="preserve">
<style type="text/css">
	.st0{fill:#5A7197;}
</style>
<path class="st0" d="M11.1,6.6v7.2v11.7c-0.8-0.5-1.9-0.9-3.2-0.9c-2.4,0-4.4,1.2-4.4,2.7c0,1.5,2,2.7,4.4,2.7s4.4-1.2,4.4-2.7V13.4
	l12.9-3.8v11.3C24.4,20.3,23.3,20,22,20c-2.4,0-4.4,1.2-4.4,2.7c0,1.5,2,2.7,4.4,2.7c2.4,0,4.4-1.2,4.4-2.7V9.2V2L11.1,6.6z"/>
</svg>
