<!-- Generated by IcoMoon.io -->
<svg version="1.1" xmlns="http://www.w3.org/2000/svg" width="16" height="16" viewBox="0 0 16 16">
<title>newsletter</title>
<path fill="#5a7197" d="M2.482 6.607l-0.75-0.555 0.75-0.566v1.121zM6.074 2.707c0 0 0 0 0 0s0 0 0 0h4.868v1.576c0 0.152 0.123 0.274 0.274 0.274h1.754v2.452l-4.13 3.049-0.24-0.177c-0.022-0.016-0.044-0.031-0.066-0.046-0.32-0.197-0.732-0.197-1.051 0-0.023 0.014-0.045 0.029-0.066 0.046l-0.254 0.188-4.13-3.057v-4.305h3.044zM7.494 1.706c0.282-0.214 0.694-0.214 0.977-0.001l0.608 0.455h-2.188l0.602-0.454zM14.267 6.052l-0.749 0.553v-1.115l0.749 0.562zM12.538 4.010h-1.048v-0.955l1.048 0.955zM9.302 10.398l5.15-3.802v7.594l-5.15-3.792zM7.74 10.322c0.117-0.085 0.272-0.107 0.408-0.064 0.046 0.014 0.089 0.036 0.127 0.064l5.61 4.131h-11.758l5.61-4.131zM1.548 6.596l5.151 3.811-5.151 3.792v-7.603zM15 6.049c0-0.007 0-0.014-0.001-0.022 0-0.002 0-0.005-0.001-0.008-0.002-0.020-0.007-0.040-0.014-0.058-0.001-0.002-0.001-0.003-0.002-0.005-0.002-0.007-0.006-0.015-0.009-0.022-0.001-0.003-0.004-0.006-0.005-0.009-0.004-0.006-0.006-0.012-0.009-0.016-0.002-0.003-0.005-0.007-0.007-0.011s-0.004-0.005-0.005-0.007-0.004-0.005-0.006-0.007-0.005-0.006-0.008-0.009c-0.005-0.005-0.009-0.009-0.014-0.014-0.002-0.002-0.005-0.005-0.007-0.007-0.007-0.006-0.013-0.012-0.020-0.016-0.001 0-0.001-0.001-0.002-0.002l-0.001-0.001c-0.001 0-0.001-0.001-0.002-0.001l-1.37-1.027v-0.521c0 0 0 0 0-0.001 0-0.008 0-0.018-0.001-0.026 0-0.002 0-0.005-0.001-0.007-0.001-0.007-0.002-0.013-0.004-0.020 0-0.002-0.001-0.005-0.001-0.007-0.002-0.008-0.004-0.016-0.007-0.024 0-0.001-0.001-0.002-0.001-0.005-0.002-0.007-0.005-0.013-0.007-0.020-0.001-0.002-0.002-0.005-0.004-0.007-0.004-0.007-0.006-0.013-0.009-0.019-0.001-0.001-0.001-0.002-0.002-0.003-0.005-0.007-0.009-0.014-0.014-0.021-0.001-0.002-0.002-0.003-0.004-0.006-0.004-0.005-0.008-0.011-0.012-0.015-0.001-0.002-0.004-0.003-0.005-0.006-0.006-0.006-0.011-0.012-0.018-0.018 0 0-0.001-0.001-0.001-0.001l-2.028-1.85c-0.009-0.008-0.019-0.015-0.028-0.022-0.002-0.001-0.005-0.003-0.007-0.005-0.009-0.006-0.020-0.012-0.030-0.018-0.001-0.001-0.004-0.001-0.005-0.002-0.009-0.005-0.019-0.008-0.028-0.012-0.002-0.001-0.005-0.001-0.007-0.002-0.011-0.003-0.022-0.006-0.033-0.008-0.002 0-0.005-0.001-0.007-0.001-0.009-0.001-0.020-0.002-0.030-0.002-0.002 0-0.005 0-0.007 0s-0.002 0-0.004 0h-1.225l-1.191-0.894c-0.475-0.356-1.162-0.355-1.636 0.002l-1.182 0.891h-3.226c-0.152 0-0.274 0.123-0.274 0.274v2.366l-1.37 1.032c0 0-0.001 0-0.001 0.001l-0.002 0.002c-0.001 0.001-0.002 0.002-0.004 0.003-0.006 0.005-0.012 0.009-0.018 0.015-0.002 0.002-0.005 0.005-0.007 0.007-0.005 0.005-0.009 0.009-0.013 0.014-0.002 0.003-0.006 0.006-0.008 0.009s-0.004 0.005-0.005 0.006-0.004 0.006-0.005 0.008c-0.002 0.003-0.005 0.007-0.007 0.011-0.004 0.006-0.007 0.012-0.009 0.016-0.001 0.003-0.004 0.006-0.005 0.009-0.004 0.007-0.007 0.015-0.009 0.022 0 0.001-0.001 0.002-0.001 0.005-0.007 0.019-0.012 0.038-0.014 0.058 0 0.002 0 0.006-0.001 0.008-0.001 0.007-0.001 0.014-0.001 0.021 0 0.001 0 0.003 0 0.005v8.423c0 0.142 0.059 0.271 0.156 0.365 0.029 0.036 0.065 0.064 0.106 0.081 0.083 0.049 0.181 0.077 0.286 0.077h12.904c0.302 0 0.548-0.235 0.548-0.524v-8.423c0-0.001 0-0.003 0-0.005v0zM4.929 5.529c-0.152 0-0.274-0.122-0.274-0.274s0.122-0.274 0.274-0.274h6.141c0.152 0 0.274 0.122 0.274 0.274s-0.123 0.274-0.274 0.274h-6.141zM4.929 6.902c-0.152 0-0.274-0.122-0.274-0.274s0.122-0.274 0.274-0.274h6.141c0.152 0 0.274 0.122 0.274 0.274s-0.123 0.274-0.274 0.274h-6.141zM9.913 7.727c0.152 0 0.274 0.122 0.274 0.274s-0.123 0.274-0.274 0.274h-3.827c-0.152 0-0.274-0.123-0.274-0.274s0.122-0.274 0.274-0.274h3.827z"></path>
</svg>
