<svg xmlns="http://www.w3.org/2000/svg" xmlns:xlink="http://www.w3.org/1999/xlink" version="1.1" x="0px" y="0px" viewBox="0 0 100 100" enable-background="new 0 0 100 100" xml:space="preserve"><path d="M62.448,5H15v90h69.231V26.783L62.448,5z M63.462,10.909l14.86,14.86h-14.86V10.909z M18.462,91.538V8.462H60v20.769h20.769  v62.308H18.462z"></path><rect x="28.846" y="77.692" width="41.538" height="1.731"></rect><rect x="28.846" y="50" width="41.538" height="1.731"></rect><rect x="28.846" y="43.077" width="41.538" height="1.731"></rect><rect x="28.846" y="36.154" width="41.538" height="1.731"></rect><rect x="28.846" y="29.231" width="24.231" height="1.731"></rect><rect x="28.846" y="63.846" width="13.846" height="1.731"></rect><rect x="28.846" y="56.923" width="13.846" height="1.731"></rect><rect x="28.846" y="70.769" width="13.846" height="1.731"></rect><path d="M47.885,56.923V72.5h22.5V56.923H47.885z M68.51,58.654l-9.375,6.923l-9.375-6.923H68.51z M68.654,70.769H49.615v-10.07  l9.519,7.03l9.519-7.03V70.769z"></path></svg>