<?xml version="1.0" encoding="utf-8"?>
<!-- Generator: Adobe Illustrator 26.0.1, SVG Export Plug-In . SVG Version: 6.00 Build 0)  -->
<svg version="1.1" id="Layer_1" xmlns="http://www.w3.org/2000/svg" xmlns:xlink="http://www.w3.org/1999/xlink" x="0px" y="0px"
	 viewBox="0 0 16 16" style="enable-background:new 0 0 16 16;" xml:space="preserve">
<style type="text/css">
	.st0{fill:#5A7197;}
</style>
<path class="st0" d="M10.4,8.1V1.5c0-0.1-0.1-0.1-0.1-0.1c0,0,0,0,0,0H1.5c-0.1,0-0.1,0.1-0.1,0.1c0,0,0,0,0,0v11.3
	C1.4,13,1.4,13,1.5,13c0,0,0,0,0,0h6.4c0.1,0.2,0.1,0.4,0.2,0.6H1.5c-0.4,0-0.8-0.4-0.8-0.8V1.5c0-0.4,0.4-0.8,0.8-0.8h8.8
	c0.4,0,0.8,0.4,0.8,0.8v6.3C10.9,7.9,10.7,8,10.4,8.1z M9.2,2.8H4.5v0.6h4.7V2.8z M9.2,4.9H4.5v0.6h4.7V4.9z M9.2,6.9H4.5v0.6h4.7
	V6.9z M9,9H4.5v0.6h4C8.7,9.3,8.8,9.1,9,9z M4.5,11.6h3.3c0-0.2,0-0.4,0.1-0.6H4.5V11.6z M3.4,2.3H2.3v1.1h1.1V2.3z M3.4,4.4H2.3
	v1.1h1.1V4.4z M3.4,6.4H2.3v1.1h1.1V6.4z M3.4,8.5H2.3v1.1h1.1V8.5z M2.3,11.6h1.1v-1.1H2.3V11.6z M10.6,11.6
	c-0.1-0.1-0.3-0.1-0.5,0c-0.1,0.1-0.1,0.3,0,0.5c0,0,0,0,0,0l1.3,1.3c0.1,0.1,0.3,0.1,0.5,0c0,0,0,0,0,0l3.3-3.3
	c0.1-0.1,0.1-0.3,0-0.5c-0.1-0.1-0.3-0.1-0.5,0l-3.1,3.1L10.6,11.6z M14.9,11.2c-0.2,0-0.3,0.2-0.3,0.4c0.2,1.5-1,2.9-2.5,3.1
	c-1.5,0.2-2.9-1-3.1-2.5c-0.2-1.5,1-2.9,2.5-3.1c0.6-0.1,1.3,0.1,1.8,0.4c0.2,0.1,0.4,0.1,0.5,0C14,9.4,14,9.2,13.8,9c0,0,0,0,0,0
	C12.2,8,10.1,8.4,9,10c-1.1,1.6-0.6,3.7,1,4.8s3.7,0.6,4.8-1c0.4-0.7,0.6-1.5,0.6-2.3C15.3,11.4,15.1,11.2,14.9,11.2
	C15,11.2,15,11.2,14.9,11.2L14.9,11.2z"/>
</svg>
