<?xml version="1.0" encoding="UTF-8"?>
<svg id="Layer_1" xmlns="http://www.w3.org/2000/svg" version="1.1" viewBox="0 0 820 820">
  <!-- Generator: Adobe Illustrator 29.5.1, SVG Export Plug-In . SVG Version: 2.1.0 Build 141)  -->
  <defs>
    <style>
      .st0 {
        fill: #6f84a7;
        fill-rule: evenodd;
      }
    </style>
  </defs>
  <path class="st0" d="M256.3,353.9c-15.1-8.4-33.5-8.4-48.6,0l-165.1,91.7c-1.2.7-2.4,1.4-3.5,2.3-.8.7-1.6,1.4-2.2,2.2-3.1,3.5-4.9,8.1-4.9,13.1v182.3c0,18.2,9.8,34.9,25.7,43.7l150,83.3c15.1,8.4,33.5,8.4,48.6,0l150-83.3c15.9-8.8,25.7-25.5,25.7-43.7v-182.3c0-5-1.9-9.6-4.9-13.1-.7-.8-1.4-1.5-2.2-2.2-1.1-.9-2.2-1.7-3.5-2.3l-165.1-91.7ZM227.1,388.9c3-1.7,6.7-1.7,9.7,0l37.4,20.8-132.2,76.3c-1.3.7-2.4,1.6-3.5,2.5l-45.4-25.2,134-74.4ZM178.8,510.9l48.3,26.8c3,1.7,6.7,1.7,9.7,0l134-74.4-55.8-31-136.1,78.6ZM72,645.6v-148.4l135.7,75.4c1.4.8,2.8,1.5,4.3,2.1v154.5l-134.9-74.9c-3.2-1.8-5.1-5.1-5.1-8.7h0ZM386.9,654.4l-134.9,74.9v-154.5c1.5-.6,2.9-1.3,4.3-2.1l135.7-75.4v148.4c0,3.6-2,7-5.1,8.7h0Z"/>
  <path class="st0" d="M616.3,353.9c-15.1-8.4-33.5-8.4-48.6,0l-165.1,91.7c-1.2.7-2.4,1.4-3.5,2.3-.8.7-1.6,1.4-2.2,2.2-3.1,3.5-4.9,8.1-4.9,13.1v182.3c0,18.2,9.8,34.9,25.7,43.7l150,83.3c15.1,8.4,33.5,8.4,48.6,0l150-83.3c15.9-8.8,25.7-25.5,25.7-43.7v-182.3c0-5-1.9-9.6-4.9-13.1-.7-.8-1.4-1.5-2.2-2.2-1.1-.9-2.2-1.7-3.5-2.3l-165.1-91.7ZM587.1,388.9c3-1.7,6.7-1.7,9.7,0l37.4,20.8-132.2,76.3c-1.3.7-2.4,1.6-3.5,2.5l-45.4-25.2,134-74.4ZM538.8,510.9l48.3,26.8c3,1.7,6.7,1.7,9.7,0l134-74.4-55.8-31-136.1,78.6ZM432,645.6v-148.4l135.7,75.4c1.4.8,2.8,1.5,4.3,2.1v154.5l-134.9-74.9c-3.2-1.8-5.1-5.1-5.1-8.7h0ZM746.9,654.4l-134.9,74.9v-154.5c1.5-.6,2.9-1.3,4.3-2.1l135.7-75.4v148.4c0,3.6-2,7-5.1,8.7h0Z"/>
  <path class="st0" d="M436.3,53.6c-15.1-8.4-33.5-8.4-48.6,0l-165.1,91.7c-1.2.7-2.4,1.4-3.5,2.3-.8.7-1.6,1.4-2.2,2.2-3.1,3.5-4.9,8.1-4.9,13.1v182.3c0,18.2,9.8,34.9,25.7,43.7l150,83.3c15.1,8.4,33.5,8.4,48.6,0l150-83.3c15.9-8.8,25.7-25.5,25.7-43.7v-182.3c0-5-1.9-9.6-4.9-13.1-.7-.8-1.4-1.5-2.2-2.2-1.1-.9-2.2-1.7-3.5-2.3l-165.1-91.7ZM407.1,88.6c3-1.7,6.7-1.7,9.7,0l37.4,20.8-132.2,76.3c-1.3.7-2.4,1.6-3.5,2.5l-45.4-25.2,134-74.4ZM358.8,210.6l48.3,26.8c3,1.7,6.7,1.7,9.7,0l134-74.4-55.8-31-136.1,78.6ZM252,345.3v-148.4l135.7,75.4c1.4.8,2.8,1.5,4.3,2.1v154.5l-134.9-74.9c-3.2-1.8-5.1-5.1-5.1-8.7h0ZM566.9,354.1l-134.9,74.9v-154.5c1.5-.6,2.9-1.3,4.3-2.1l135.7-75.4v148.4c0,3.6-2,7-5.1,8.7h0Z"/>
</svg>