<?xml version="1.0" encoding="UTF-8"?>
<svg id="Layer_1" xmlns="http://www.w3.org/2000/svg" version="1.1" viewBox="0 0 820 820">
  <!-- Generator: Adobe Illustrator 29.5.1, SVG Export Plug-In . SVG Version: 2.1.0 Build 141)  -->
  <defs>
    <style>
      .st0 {
        fill: #6f84a7;
        fill-rule: evenodd;
      }
    </style>
  </defs>
  <path class="st0" d="M455.5,17.4c-28.3-15.7-62.7-15.7-91.1,0L55,189.4c-2.3,1.2-4.5,2.7-6.5,4.4-1.5,1.3-2.9,2.6-4.2,4.1-5.8,6.6-9.2,15.2-9.2,24.6v341.9c0,34.1,18.5,65.4,48.2,82l281.3,156.2c28.3,15.7,62.7,15.7,91.1,0l281.2-156.2c29.8-16.5,48.2-47.9,48.2-82V222.5c0-9.4-3.5-18.1-9.2-24.6-1.3-1.5-2.7-2.9-4.2-4.1-2-1.7-4.2-3.1-6.5-4.4L455.5,17.4ZM400.9,83c5.7-3.1,12.5-3.1,18.2,0l70.1,38.9-247.9,143.1c-2.4,1.4-4.5,3-6.5,4.7l-85-47.2,251.2-139.5ZM310.3,311.7l90.6,50.3c5.7,3.1,12.5,3.1,18.2,0l251.2-139.5-104.7-58.1-255.3,147.4ZM110,564.4v-278.2l254.5,141.4c2.6,1.5,5.3,2.8,8,4v289.7l-252.9-140.5c-6-3.3-9.6-9.6-9.6-16.4h0ZM700.4,580.8l-252.9,140.5v-289.7c2.7-1.2,5.4-2.5,8-4l254.5-141.4v278.2c0,6.8-3.7,13.1-9.6,16.4h0Z"/>
</svg>