<?xml version="1.0" encoding="UTF-8"?>
<svg id="Layer_1" xmlns="http://www.w3.org/2000/svg" version="1.1" viewBox="0 0 24 24">
  <!-- Generator: Adobe Illustrator 29.5.1, SVG Export Plug-In . SVG Version: 2.1.0 Build 141)  -->
  <defs>
    <style>
      .st0 {
        fill: #6f84a7;
        fill-rule: evenodd;
      }

      .st1 {
        fill: none;
        stroke: #6f84a7;
        stroke-linecap: round;
        stroke-linejoin: round;
        stroke-width: 2px;
      }
    </style>
  </defs>
  <circle class="st1" cx="17.7" cy="16" r="4.3"/>
  <line class="st1" x1="20.3" y1="19.5" x2="22.3" y2="22.5"/>
  <path class="st0" d="M12.4,18.6l-1,.6v-7.6c0,0,.1,0,.2-.1l6.6-3.7v2.3c.7,0,1.4.2,2,.5v-4.5c0-.2,0-.5-.2-.6,0,0,0,0-.1-.1,0,0-.1,0-.2-.1L11.6.7c-.7-.4-1.6-.4-2.4,0L1.2,5.2c0,0-.1,0-.2.1,0,0,0,0-.1.1-.2.2-.2.4-.2.6v8.9c0,.9.5,1.7,1.3,2.1l7.3,4.1c.7.4,1.6.4,2.4,0l1.8-1c-.5-.5-.8-1-1-1.7ZM10.2,2.5c.1,0,.3,0,.5,0l1.8,1-6.5,3.7c0,0-.1,0-.2.1l-2.2-1.2,6.6-3.6ZM9.4,19.1l-6.6-3.7c-.2,0-.3-.3-.3-.4h0v-7.3l6.6,3.7c0,0,.1,0,.2.1v7.6ZM10.2,9.7l-2.4-1.3,6.7-3.8,2.7,1.5-6.6,3.6c-.1,0-.3,0-.5,0Z"/>
</svg>