<!-- Generated by IcoMoon.io -->
<svg version="1.1" xmlns="http://www.w3.org/2000/svg" width="16" height="16" viewBox="0 0 16 16">
<title>page</title>
<path fill="#5a7197" d="M14.054 4.932c0 0 0 0 0 0 0-0.1-0.040-0.191-0.105-0.258v0l-4.126-4.21c-0.067-0.068-0.16-0.11-0.263-0.11 0 0 0 0 0 0h-5.774c-1.017 0-1.841 0.824-1.841 1.841v0 11.611c0 1.017 0.824 1.841 1.841 1.841v0h8.427c1.017 0 1.841-0.824 1.841-1.841v0zM9.902 1.594l3.068 3.142h-3.068zM12.213 14.91h-8.427c-0.61 0-1.104-0.495-1.104-1.104v0-11.611c0-0.61 0.495-1.104 1.104-1.104v0h5.378v3.647c0 0.406 0.33 0.736 0.736 0.736v0h3.417v8.333c0 0.61-0.495 1.104-1.104 1.104v0z"></path>
</svg>
