<?xml version="1.0" encoding="utf-8"?>
<!-- Generator: Adobe Illustrator 26.3.1, SVG Export Plug-In . SVG Version: 6.00 Build 0)  -->
<svg version="1.1" xmlns="http://www.w3.org/2000/svg" xmlns:xlink="http://www.w3.org/1999/xlink" x="0px" y="0px"
	 viewBox="0 0 100 100" style="enable-background:new 0 0 100 100;" xml:space="preserve">
<style type="text/css">
	.st0{fill:#5A7197;}
</style>
<g id="Layer_2">
</g>
<g id="Layer_1">
	<g>
		<rect x="22.7" y="57.6" class="st0" width="6.8" height="28.3"/>
		<rect x="34.6" y="57.6" class="st0" width="6.8" height="28.3"/>
		<path class="st0" d="M17.3,97.5h65.4c0.7,0,1.2-0.5,1.2-1.2v-4.1c0-0.7-0.5-1.2-1.2-1.2H17.3c-0.7,0-1.2,0.5-1.2,1.2v4.1
			C16.1,97,16.7,97.5,17.3,97.5z"/>
		<rect x="58.6" y="57.6" class="st0" width="6.8" height="28.3"/>
		<rect x="46.6" y="57.6" class="st0" width="6.8" height="28.3"/>
		<path class="st0" d="M76.3,45.9c-3-10.7-12.3-18.9-23.7-20v-8.6h11.9c0.7,0,1.2-0.5,1.2-1.2v-9c0-0.7-0.5-1.2-1.2-1.2H52.6V3.7
			c0-0.7-0.5-1.2-1.2-1.2h-2.8c-0.7,0-1.2,0.5-1.2,1.2v22.1c-11.5,1-21,9.2-24,20.1h-6.1c-0.7,0-1.2,0.5-1.2,1.2v4.1
			c0,0.7,0.5,1.2,1.2,1.2h65.4c0.7,0,1.2-0.5,1.2-1.2v-4.1c0-0.7-0.5-1.2-1.2-1.2H76.3z"/>
		<rect x="70.5" y="57.6" class="st0" width="6.8" height="28.3"/>
	</g>
</g>
</svg>
