<?xml version="1.0" encoding="utf-8"?>
<!-- Generator: Adobe Illustrator 24.1.1, SVG Export Plug-In . SVG Version: 6.00 Build 0)  -->
<svg version="1.1" id="Layer_1" xmlns="http://www.w3.org/2000/svg" xmlns:xlink="http://www.w3.org/1999/xlink" x="0px" y="0px"
	 width="16" height="16" viewBox="0 0 32 32" style="enable-background:new 0 0 32 32;" xml:space="preserve">
<style type="text/css">
	.st0{fill:#5A7197;}
</style>
<path class="st0" d="M3.1,4.5h25.7c0.4,0,0.8,0.4,0.8,0.8v21.4c0,0.5-0.4,0.8-0.8,0.8H3.1c-0.5,0-0.8-0.3-0.8-0.8V5.3
	C2.4,4.8,2.8,4.5,3.1,4.5L3.1,4.5z M15.4,19.2l6.3-5.5c0.3-0.3,0.8-0.3,1.1,0l5.3,5.2V6.1H3.9v18l8.1-7.2c0.3-0.3,0.8-0.2,1.1,0.1
	L15.4,19.2L15.4,19.2z M28.1,21l-5.9-5.8l-5.7,5l5.8,5.7h5.8C28.1,25.9,28.1,21,28.1,21z M20.2,25.9l-7.7-7.5L4,25.9
	C4,25.9,20.2,25.9,20.2,25.9z"/>
<path class="st0" d="M13.5,8.1c1.5,0,2.7,1.1,2.7,2.7s-1.1,2.7-2.7,2.7s-2.7-1.1-2.7-2.7S12,8.1,13.5,8.1z M13.5,9.6
	c-0.7,0-1.1,0.5-1.1,1.1s0.5,1.1,1.1,1.1c0.7,0,1.1-0.5,1.1-1.1S14.2,9.6,13.5,9.6z"/>
</svg>
