<?xml version="1.0" encoding="utf-8"?>
<!-- Generator: Adobe Illustrator 27.7.0, SVG Export Plug-In . SVG Version: 6.00 Build 0)  -->
<svg version="1.1" id="Layer_1" xmlns="http://www.w3.org/2000/svg" xmlns:xlink="http://www.w3.org/1999/xlink" x="0px" y="0px"
	 viewBox="0 0 16 16" style="enable-background:new 0 0 16 16;" xml:space="preserve">
<style type="text/css">
	.st0{fill:#6F84A7;stroke:#6F84A7;stroke-width:0.2835;stroke-miterlimit:10;}
</style>
<path class="st0" d="M6.1,7.2L6.8,8l-5.3,5c-0.4,0.4-0.5,1.1-0.1,1.6C1.9,15,2.6,14.9,3,14.5l5-5.2l4.8,5.2c0.5,0.5,1.3,0.5,1.7,0
	c0.5-0.5,0.5-1.2,0-1.7L9.2,7.9l0.3-0.3l0.3,0.3c0.2,0.2,0.4,0.3,0.7,0.3c0.3,0,0.5-0.1,0.7-0.3l3.6-3.6c0.1-0.1,0.1-0.3,0-0.4
	l-0.4-0.4c-0.1-0.1-0.3-0.1-0.4,0L11.3,6c-0.1,0.1-0.2,0.1-0.3,0.1C11,6,11,5.9,11,5.8l2.6-2.6c0.1-0.1,0.1-0.1,0.1-0.2
	c0-0.1-0.1-0.2-0.1-0.2l-0.4-0.4c-0.1-0.1-0.3-0.1-0.4,0l-2.6,2.6C10.1,5,10,5,9.9,5C9.8,4.9,9.8,4.8,9.8,4.7l2.6-2.6
	c0.1-0.1,0.1-0.3,0-0.4l-0.4-0.4c-0.1-0.1-0.3-0.1-0.4,0L7.9,4.9c-0.4,0.4-0.4,1,0,1.4l0.3,0.3L8,6.8L7.2,6.1c0.4-1,0.1-2.5-0.9-3.5
	c-1.2-1.2-3.5-2.1-4.6-1S1.5,5.1,2.5,6.3C3.5,7.2,4.9,7.7,6.1,7.2L6.1,7.2z M2.7,14.2c-0.3,0.3-0.7,0.3-1,0c-0.3-0.3-0.3-0.7,0-1
	l5.3-5l0.1,0.1l0.5,0.6C7.7,8.9,2.7,14.2,2.7,14.2z M8.6,6.8c0.1-0.1,0.1-0.2,0.1-0.3S8.6,6.3,8.6,6.3L8.3,6c-0.2-0.2-0.2-0.6,0-0.8
	l3.5-3.5l0.3,0.3L9.6,4.4C9.3,4.7,9.4,5.1,9.7,5.3c0.2,0.2,0.5,0.1,0.8-0.1L13,2.7L13.2,3l-2.6,2.6c-0.3,0.3-0.2,0.8,0.1,0.9
	c0.2,0.2,0.5,0.1,0.8-0.1l2.5-2.5l0.3,0.3l-3.5,3.5c-0.2,0.2-0.6,0.2-0.8,0L9.7,7.4C9.6,7.3,9.5,7.3,9.4,7.3c-0.1,0-0.2,0.1-0.3,0.1
	L8.9,7.7L8.7,7.5L8.3,7.1L8.6,6.8L8.6,6.8z M14.1,13.1L14.1,13.1c0.3,0.3,0.3,0.8,0,1.1c-0.3,0.3-0.8,0.3-1.1,0
	C12.5,13.7,7,7.6,6.4,7.1C6.6,6.9,6.8,6.7,7,6.5C9.5,8.9,11.6,10.7,14.1,13.1z M1.9,1.9c0.9-0.9,3-0.1,4,0.9
	c1.7,1.7,1.2,4.1-0.8,4.1c-0.8,0-1.6-0.4-2.2-1C1.9,5,1,2.8,1.9,1.9z"/>
</svg>
