<?xml version="1.0" encoding="utf-8"?>
<!-- Generator: Adobe Illustrator 24.1.1, SVG Export Plug-In . SVG Version: 6.00 Build 0)  -->
<svg version="1.1" id="Layer_1" xmlns="http://www.w3.org/2000/svg" xmlns:xlink="http://www.w3.org/1999/xlink" x="0px" y="0px"
	 width="16" height="16" viewBox="0 0 32 32" style="enable-background:new 0 0 32 32;" xml:space="preserve">
<style type="text/css">
	.st0{fill:#6f84a7;}
</style>
<path class="st0" d="M12.6,14.6l1.3,1.4l-9.7,9.1c-0.8,0.8-0.9,2.1-0.1,2.9c0.8,0.8,2.1,0.7,2.9-0.1l9.1-9.6l8.8,9.6
	c0.9,0.9,2.3,0.9,3.1,0c0.9-0.9,0.9-2.2,0-3.1l-9.7-8.9l0.5-0.5l0.5,0.5c0.3,0.3,0.8,0.5,1.3,0.5s1-0.2,1.3-0.5l6.6-6.6
	c0.2-0.2,0.2-0.6,0-0.8l-0.8-0.8c-0.2-0.2-0.6-0.2-0.8,0l-4.7,4.7c-0.1,0.1-0.3,0.2-0.5,0.1c-0.2-0.1-0.2-0.4-0.1-0.5l4.7-4.7
	c0.1-0.1,0.2-0.2,0.2-0.4c0-0.1-0.1-0.3-0.2-0.4l-0.8-0.8c-0.2-0.2-0.6-0.2-0.8,0L20,10.4c-0.1,0.1-0.3,0.2-0.5,0.1
	c-0.2-0.1-0.2-0.4-0.1-0.5l4.7-4.7c0.2-0.2,0.2-0.6,0-0.8l-0.8-0.8c-0.2-0.2-0.6-0.2-0.8,0l-6.6,6.6c-0.7,0.7-0.7,1.9,0,2.6l0.5,0.5
	L16,13.9l-1.4-1.3c0.8-1.9,0.2-4.5-1.7-6.4C10.7,4,6.4,2.4,4.4,4.4c-2,2-0.3,6.4,1.7,8.5C7.8,14.6,10.5,15.5,12.6,14.6L12.6,14.6z
	 M6.4,27.4c-0.5,0.5-1.3,0.5-1.8,0c-0.5-0.5-0.5-1.3,0-1.8l9.7-9.1l0.1,0.1l1,1.1C15.5,17.7,6.4,27.4,6.4,27.4z M17.1,13.9
	c0.1-0.1,0.2-0.3,0.2-0.5s-0.1-0.4-0.2-0.5l-0.5-0.5c-0.4-0.4-0.4-1.1,0-1.5l6.5-6.5l0.5,0.5L19,9.4c-0.5,0.5-0.4,1.4,0.2,1.7
	c0.4,0.3,1,0.2,1.4-0.2l4.6-4.6l0.5,0.5L21,11.5c-0.5,0.5-0.4,1.4,0.2,1.7c0.4,0.3,1,0.2,1.4-0.2l4.6-4.6l0.5,0.5l-6.5,6.5
	c-0.4,0.4-1.1,0.4-1.5,0l-0.5-0.5c-0.1-0.1-0.3-0.2-0.5-0.2c-0.2,0-0.4,0.1-0.5,0.2l-0.5,0.5l-0.3-0.2l-0.8-0.8L17.1,13.9L17.1,13.9
	z M27.3,25.3L27.3,25.3c0.6,0.6,0.6,1.5,0,2.1c-0.6,0.6-1.5,0.6-2,0c-0.9-1-11.1-12.1-12.1-13.1c0.4-0.3,0.7-0.6,1-1
	C18.9,17.6,22.6,20.9,27.3,25.3z M4.9,4.9c1.6-1.6,5.5-0.1,7.4,1.7c3.1,3.1,2.2,7.5-1.5,7.5c-1.4,0-2.9-0.7-4.1-1.9
	C4.9,10.5,3.2,6.6,4.9,4.9z"/>
</svg>
