<svg xmlns="http://www.w3.org/2000/svg" xmlns:xlink="http://www.w3.org/1999/xlink" version="1.1" x="0px" y="0px" viewBox="0 0 100 100" style="enable-background:new 0 0 100 100;" xml:space="preserve"><g><path d="M52.3,56.5l-6.6,6.6l0.1,0.5c0.8,3.6-0.4,7.4-3.1,10.1l-7.1,7.1c-2.1,2.1-5,3.3-8,3.3c-3.1,0-5.9-1.2-8-3.3l-0.3-0.3   c-4.3-4.3-4.3-11.7,0-16l7.1-7.1c2.7-2.7,6.6-3.9,10.4-3.1l0.5,0.1l6.6-6.6l-1.2-0.5c-7.8-3.4-16.6-1.8-22.4,4l-7.3,7.1   C5,66.2,5,79,12.9,86.8l0.3,0.3C17.1,91,22.3,93,27.4,93c5.1,0,10.3-2,14.2-5.9l7.1-7.1c5.9-5.9,7.6-14.9,4-22.4L52.3,56.5z"></path><path d="M87.1,13.2l-0.3-0.3C83.1,9.1,78.2,7,72.8,7c0,0-0.1,0-0.1,0c-5.4,0-10.4,2.1-14.2,5.9L51.4,20c-5.9,5.9-7.6,14.9-4,22.4   l0.5,1.1l6.6-6.6l-0.1-0.5c-0.8-3.6,0.3-7.4,3.1-10.3l7.1-7.1c4.3-4.3,11.7-4.3,16,0l0.3,0.3c2.1,2.1,3.3,4.9,3.3,8   c0,3-1.2,5.9-3.3,8l-7.1,7.3c-2.7,2.7-6.6,3.9-10.4,3.1l-0.5-0.1l-6.6,6.6l1.2,0.5c2.7,1.2,5.6,1.8,8.4,1.8c5.2,0,10.2-2,14-5.8   l7.1-7.1C95,33.8,95,21,87.1,13.2z"></path><path d="M35.1,60.8c0,1.1,0.5,2.1,1.3,2.9c0.9,0.9,2,1.3,3,1.3c1.1,0,2.2-0.4,3.1-1.3l21.4-21.4c0.8-0.8,1.3-1.9,1.3-3.1   c0-1.1-0.5-2.2-1.3-3c-1.7-1.7-4.4-1.7-6.1,0L36.4,57.6C35.5,58.4,35.1,59.6,35.1,60.8z"></path></g></svg>