<!-- Generated by IcoMoon.io -->
<svg version="1.1" xmlns="http://www.w3.org/2000/svg" width="16" height="16" viewBox="0 0 16 16">
<title>redirect</title>
<path fill="#5a7197" d="M8.314 8.889l-0.902 0.902 0.013 0.069c0.11 0.493-0.054 1.012-0.424 1.381l-0.971 0.971c-0.287 0.287-0.683 0.451-1.094 0.451-0.424 0-0.807-0.164-1.094-0.451l-0.041-0.041c-0.588-0.588-0.588-1.6 0-2.188l0.971-0.971c0.369-0.369 0.902-0.534 1.422-0.424l0.069 0.013 0.902-0.902-0.164-0.069c-1.066-0.465-2.27-0.246-3.063 0.547l-0.999 0.971c-1.094 1.066-1.094 2.817-0.013 3.883l0.041 0.041c0.534 0.534 1.245 0.807 1.942 0.807s1.409-0.274 1.942-0.807l0.971-0.971c0.807-0.807 1.040-2.037 0.547-3.063l-0.054-0.151z"></path>
<path fill="#5a7197" d="M13.073 2.968l-0.041-0.041c-0.506-0.519-1.176-0.807-1.915-0.807 0 0-0.013 0-0.013 0-0.739 0-1.422 0.287-1.942 0.807l-0.971 0.971c-0.807 0.807-1.040 2.038-0.547 3.063l0.069 0.151 0.902-0.902-0.013-0.069c-0.11-0.493 0.041-1.012 0.424-1.409l0.971-0.971c0.588-0.588 1.6-0.588 2.188 0l0.041 0.041c0.287 0.287 0.451 0.67 0.451 1.094 0 0.41-0.164 0.807-0.451 1.094l-0.971 0.999c-0.369 0.369-0.902 0.534-1.422 0.424l-0.069-0.013-0.902 0.902 0.164 0.069c0.369 0.164 0.766 0.246 1.148 0.246 0.711 0 1.395-0.274 1.915-0.793l0.971-0.971c1.094-1.066 1.094-2.817 0.013-3.883z"></path>
<path fill="#5a7197" d="M5.963 9.477c0 0.151 0.069 0.287 0.178 0.396 0.123 0.123 0.274 0.178 0.41 0.178 0.151 0 0.301-0.054 0.424-0.178l2.927-2.927c0.11-0.11 0.178-0.26 0.178-0.424 0-0.151-0.069-0.301-0.178-0.41-0.233-0.233-0.601-0.233-0.834 0l-2.927 2.927c-0.123 0.11-0.178 0.274-0.178 0.437z"></path>
</svg>
