<?xml version="1.0" encoding="utf-8"?>
<!-- Generator: Adobe Illustrator 24.1.1, SVG Export Plug-In . SVG Version: 6.00 Build 0)  -->
<svg version="1.1" id="Layer_1" xmlns="http://www.w3.org/2000/svg" xmlns:xlink="http://www.w3.org/1999/xlink" x="0px" y="0px"
	 width="16" height="16" viewBox="0 0 32 32" style="enable-background:new 0 0 32 32;" xml:space="preserve">
<style type="text/css">
	.st0{fill:#5A7197;}
</style>
<path class="st0" d="M16,2.6c0.7,0,1.3,0.2,1.9,0.6c0.3-0.2,0.7-0.3,1-0.3c1.1,0,2.1,0.9,2.1,2.1c0,0.5-0.2,1-0.5,1.3
	c0.2,0.3,0.3,0.6,0.4,1c0.7-0.1,1.4-0.1,2.1-0.1c2,0.1,3.7,0.7,4.5,2.1c1,1.7,0.4,4-1.2,6.2c-0.1,0.2-0.3,0.4-0.4,0.5
	c0.1,0.2,0.3,0.4,0.4,0.5c1.5,2.2,2.2,4.4,1.2,6.2c-0.1,0.2-0.2,0.3-0.4,0.5c0,0.2,0.1,0.4,0.1,0.5c0,1.1-0.9,2.1-2.1,2.1
	c-0.8,0-1.4-0.4-1.8-1c-0.7,0-1.6,0-2.4-0.1c-0.1,0.2-0.2,0.4-0.3,0.6c-1.1,2.4-2.8,4.1-4.8,4.1s-3.6-1.7-4.8-4.1
	c-0.1-0.2-0.2-0.4-0.3-0.6c-0.7,0.1-1.4,0.1-2,0.1c-0.3,0.8-1.1,1.3-1.9,1.3C5.9,26.1,5,25.2,5,24c0-0.2,0-0.4,0.1-0.5
	c-0.3-0.2-0.5-0.5-0.7-0.8c-1-1.7-0.4-4,1.2-6.2C5.7,16.4,5.8,16.2,6,16c-0.1-0.2-0.3-0.4-0.4-0.5C4,13.3,3.4,11,4.4,9.3
	c0.9-1.5,2.7-2.1,5-2.1c0.5,0,1.1,0,1.6,0.1c0.1-0.2,0.2-0.4,0.3-0.6C12.4,4.3,14,2.6,16,2.6L16,2.6z M16,3.8
	c-1.3,0-2.6,1.2-3.7,3.4c0,0.1-0.1,0.2-0.1,0.3c1.2,0.3,2.5,0.7,3.8,1.2c1.3-0.5,2.6-0.9,3.8-1.2c-0.1-0.2-0.2-0.4-0.2-0.5
	C19.4,7,19.2,7.1,19,7.1c-1.1,0-2.1-0.9-2.1-2.1c0-0.3,0.1-0.6,0.2-0.9C16.7,3.9,16.4,3.8,16,3.8L16,3.8z M19,4.1
	c-0.5,0-0.9,0.4-0.9,0.9s0.4,0.9,0.9,0.9s0.9-0.4,0.9-0.9S19.5,4.1,19,4.1z M23.1,8.4c-0.5,0-1.1,0-1.6,0.1c0.4,1.2,0.7,2.5,0.9,3.9
	c1.1,0.9,2.1,1.8,2.9,2.7c0.1-0.1,0.1-0.2,0.2-0.3c1.4-2,1.8-3.8,1.1-4.9C26.1,9,24.8,8.4,23.1,8.4z M9.3,8.4c-2,0-3.3,0.5-3.9,1.5
	c-0.6,1.1-0.3,2.9,1.1,4.9c0.1,0.1,0.1,0.2,0.2,0.3c0.8-0.9,1.8-1.8,2.9-2.7c0.2-1.4,0.5-2.7,0.9-3.9C10.1,8.4,9.7,8.4,9.3,8.4
	L9.3,8.4z M20.2,8.6c-0.9,0.2-1.8,0.4-2.7,0.8c0.6,0.3,1.2,0.6,1.7,0.9s1.1,0.7,1.7,1C20.8,10.4,20.5,9.5,20.2,8.6z M11.7,8.7
	c-0.3,0.8-0.5,1.7-0.7,2.7c0.5-0.4,1.1-0.7,1.7-1c0.6-0.3,1.2-0.6,1.7-0.9C13.5,9.1,12.6,8.8,11.7,8.7L11.7,8.7z M16,10
	c-0.9,0.4-1.8,0.8-2.7,1.3s-1.7,1.1-2.5,1.6c-0.1,1-0.2,2-0.2,3c0,1,0.1,2,0.2,3c0.8,0.6,1.6,1.1,2.5,1.6c0.9,0.5,1.8,1,2.7,1.3
	c0.9-0.4,1.8-0.8,2.7-1.3s1.7-1.1,2.5-1.6c0.1-1,0.2-2,0.2-3c0-1-0.1-2-0.2-3c-0.8-0.6-1.6-1.1-2.5-1.7S16.9,10.4,16,10z M16,13.6
	c1.3,0,2.4,1.1,2.4,2.4s-1.1,2.4-2.4,2.4c-1.3,0-2.4-1.1-2.4-2.4S14.7,13.6,16,13.6z M22.5,14c0,0.6,0.1,1.3,0.1,2
	c0,0.7,0,1.3-0.1,2c0.8-0.6,1.4-1.3,2-2C23.9,15.3,23.2,14.7,22.5,14z M9.5,14c-0.8,0.6-1.4,1.3-2,2c0.6,0.7,1.2,1.3,2,2
	c0-0.6-0.1-1.3-0.1-2S9.5,14.7,9.5,14z M25.3,16.9c-0.8,0.9-1.8,1.8-2.9,2.7c-0.2,1.4-0.5,2.7-0.9,3.9c0.6,0.1,1.2,0.1,1.7,0.1
	c0.1-1.1,1-2,2.1-2c0.5,0,1,0.2,1.3,0.5c0,0,0,0,0,0c0.6-1.1,0.3-2.9-1.1-4.9C25.4,17.1,25.3,17,25.3,16.9L25.3,16.9z M6.7,16.9
	c-0.1,0.1-0.1,0.2-0.2,0.3c-1.4,2-1.8,3.8-1.1,4.9c0.1,0.1,0.2,0.3,0.3,0.4C6.1,22.2,6.5,22,7.1,22c1,0,1.8,0.7,2,1.7
	c0.5,0,0.9,0,1.5-0.1c-0.4-1.2-0.7-2.5-0.9-3.9C8.6,18.8,7.6,17.9,6.7,16.9L6.7,16.9z M20.9,20.6c-0.5,0.4-1.1,0.7-1.7,1
	s-1.2,0.6-1.7,0.9c0.9,0.3,1.8,0.6,2.7,0.8C20.5,22.5,20.8,21.6,20.9,20.6z M11.1,20.6c0.2,1,0.4,1.9,0.7,2.7
	c0.9-0.2,1.8-0.4,2.7-0.8c-0.6-0.3-1.2-0.6-1.7-0.9C12.1,21.3,11.6,21,11.1,20.6L11.1,20.6z M25.2,22.8c-0.5,0-0.9,0.4-0.9,0.9
	s0.4,0.9,0.9,0.9s0.9-0.4,0.9-0.9S25.7,22.8,25.2,22.8z M7.1,23.1c-0.5,0-0.9,0.4-0.9,0.9s0.4,0.9,0.9,0.9S8,24.5,8,24
	S7.6,23.1,7.1,23.1z M16,23.3c-1.3,0.5-2.6,0.9-3.8,1.2c0,0.1,0.1,0.2,0.1,0.3c1,2.2,2.4,3.4,3.7,3.4s2.6-1.2,3.7-3.4
	c0-0.1,0.1-0.2,0.1-0.3C18.6,24.2,17.3,23.8,16,23.3L16,23.3z"/>
</svg>
