<svg xmlns="http://www.w3.org/2000/svg" xmlns:xlink="http://www.w3.org/1999/xlink" version="1.1" x="0px" y="0px" viewBox="0 0 100 100" style="enable-background:new 0 0 100 100;" xml:space="preserve"><g><path d="M43.9,82.5c8.3,0,16-2.7,22.2-7.3l17.4,17.4c1,1,2.3,1.5,3.5,1.5s2.6-0.5,3.5-1.5c2-2,2-5.1,0-7.1L73.3,68.2   c5.1-6.4,8.1-14.5,8.1-23.2c0-20.7-16.8-37.5-37.5-37.5S6.4,24.3,6.4,45S23.2,82.5,43.9,82.5z M43.9,17.5   C59,17.5,71.4,29.8,71.4,45S59,72.5,43.9,72.5S16.4,60.2,16.4,45S28.7,17.5,43.9,17.5z"></path><path d="M32.4,35h24c1.7,0,3-1.3,3-3s-1.3-3-3-3h-24c-1.7,0-3,1.3-3,3S30.7,35,32.4,35z"></path><path d="M32.4,48h24c1.7,0,3-1.3,3-3s-1.3-3-3-3h-24c-1.7,0-3,1.3-3,3S30.7,48,32.4,48z"></path><path d="M32.4,61h12c1.7,0,3-1.3,3-3s-1.3-3-3-3h-12c-1.7,0-3,1.3-3,3S30.7,61,32.4,61z"></path></g></svg>