<!-- Generated by IcoMoon.io -->
<svg version="1.1" xmlns="http://www.w3.org/2000/svg" width="16" height="16" viewBox="0 0 16 16">
<title>search</title>
<path fill="#5a7197" d="M7.024 13.2c1.327 0 2.56-0.431 3.552-1.168l2.784 2.784c0.16 0.16 0.368 0.24 0.56 0.24s0.416-0.080 0.56-0.24c0.32-0.32 0.32-0.816 0-1.136l-2.752-2.768c0.816-1.024 1.296-2.32 1.296-3.712 0-3.312-2.688-6-6-6s-6 2.688-6 6 2.688 6 6 6zM7.024 2.8c2.416 0 4.4 1.968 4.4 4.4s-1.983 4.4-4.4 4.4-4.4-1.968-4.4-4.4 1.968-4.4 4.4-4.4z"></path>
<path fill="#5a7197" d="M5.184 5.6h3.84c0.272 0 0.48-0.208 0.48-0.48s-0.208-0.48-0.48-0.48h-3.84c-0.272 0-0.48 0.208-0.48 0.48s0.208 0.48 0.48 0.48z"></path>
<path fill="#5a7197" d="M5.184 7.68h3.84c0.272 0 0.48-0.208 0.48-0.48s-0.208-0.48-0.48-0.48h-3.84c-0.272 0-0.48 0.208-0.48 0.48s0.208 0.48 0.48 0.48z"></path>
<path fill="#5a7197" d="M5.184 9.76h1.92c0.272 0 0.48-0.208 0.48-0.48s-0.208-0.48-0.48-0.48h-1.92c-0.272 0-0.48 0.208-0.48 0.48s0.208 0.48 0.48 0.48z"></path>
</svg>
