<?xml version="1.0" encoding="UTF-8"?>
<svg id="Layer_1" xmlns="http://www.w3.org/2000/svg" version="1.1" xmlns:cc="http://creativecommons.org/ns#" xmlns:dc="http://purl.org/dc/elements/1.1/" xmlns:inkscape="http://www.inkscape.org/namespaces/inkscape" xmlns:rdf="http://www.w3.org/1999/02/22-rdf-syntax-ns#" xmlns:sodipodi="http://sodipodi.sourceforge.net/DTD/sodipodi-0.dtd" xmlns:svg="http://www.w3.org/2000/svg" viewBox="0 0 24 24">
  <!-- Generator: Adobe Illustrator 29.1.0, SVG Export Plug-In . SVG Version: 2.1.0 Build 142)  -->
  <defs>
    <style>
      .st0 {
        fill: none;
        stroke-linecap: round;
        stroke-linejoin: round;
        stroke-width: 1.5px;
      }

      .st0, .st1 {
        stroke: #6f84a7;
      }

      .st1 {
        fill: #6f84a7;
        stroke-miterlimit: 10;
        stroke-width: .5px;
      }
    </style>
  </defs>
  <path class="st1" d="M18.7,13.7c-.3,0-.6.1-.8.3h0s-.5.5-1.1,1.1-1.1,1.1-1.3,1.3c-.1.2-.1.4,0,.5.2.1.4.1.5,0h0c.1-.1.7-.7,1.3-1.3s1.1-1.1,1.1-1.1h0c0,0,.1,0,.2,0,.2,0,.3.2.3.4s0,.2,0,.3h0s-2.3,2.7-3.7,4.4c-.4.5-1,.9-1.7.9h-4.5c-.5,0-1,0-1.4.5l-1.1,1c-.2.2-.2.4,0,.5.2.2.4.2.5,0h0s1.1-1.1,1.1-1.1c.2-.2.4-.2.8-.2h4.5c1.1,0,1.8-.7,2.3-1.2,1.5-1.7,3.7-4.4,3.7-4.4,0,0,0,0,0,0,.2-.2.2-.5.2-.7,0-.7-.5-1.2-1.1-1.2ZM8.7,16.5c-.8,0-1.6.1-2.3.7l-2.7,2.3c-.2.1-.2.4,0,.5s.4.2.5,0l2.7-2.2c.5-.4,1.1-.5,1.8-.5h5.5c0,.2,0,.4,0,.6-.2.3-.4.4-.5.4h-3.6c-.2,0-.4.2-.4.4s.2.4.4.4h3.6c.5,0,1-.4,1.2-.8.2-.5.3-1.1,0-1.6,0,0-.2-.2-.3-.2h-5.8Z"/>
  <path class="st0" d="M11.1,3.6c.3-1.2,2-1.2,2.3,0,.2.6.8,1,1.4.8.1,0,.2,0,.3-.1,1.1-.6,2.3.5,1.6,1.6-.3.5-.2,1.2.4,1.6.1,0,.2.1.3.1,1.2.3,1.2,1.9,0,2.2-.6.1-1,.8-.9,1.4,0,.1,0,.2.1.3.6,1-.6,2.2-1.6,1.6-.6-.3-1.3-.2-1.6.4,0,0-.1.2-.1.3-.3,1.2-2,1.2-2.3,0-.2-.6-.8-1-1.4-.8-.1,0-.2,0-.3.1-1.1.6-2.3-.5-1.6-1.6.3-.5.2-1.2-.4-1.6-.1,0-.2-.1-.3-.1-1.2-.3-1.2-1.9,0-2.2.6-.1,1-.8.9-1.4,0-.1,0-.2-.1-.3-.6-1,.6-2.2,1.6-1.6.7.4,1.6,0,1.8-.7Z"/>
  <path class="st0" d="M14.3,8.7c0,1.1-.9,2-2,2s-2-.9-2-2,.9-2,2-2,2,.9,2,2Z"/>
</svg>