<?xml version="1.0" encoding="utf-8"?>
<!-- Generator: Adobe Illustrator 25.4.1, SVG Export Plug-In . SVG Version: 6.00 Build 0)  -->
<svg version="1.1"
	 id="Layer_1" xmlns:cc="http://creativecommons.org/ns#" xmlns:dc="http://purl.org/dc/elements/1.1/" xmlns:inkscape="http://www.inkscape.org/namespaces/inkscape" xmlns:rdf="http://www.w3.org/1999/02/22-rdf-syntax-ns#" xmlns:sodipodi="http://sodipodi.sourceforge.net/DTD/sodipodi-0.dtd" xmlns:svg="http://www.w3.org/2000/svg"
	 xmlns="http://www.w3.org/2000/svg" xmlns:xlink="http://www.w3.org/1999/xlink" x="0px" y="0px" viewBox="0 0 100 100"
	 width="16" height="16" style="enable-background:new 0 0 100 100;" xml:space="preserve">
<style type="text/css">
	.st0{fill:#5A7197;}
</style>
<g transform="translate(0,-952.36218)">
	<path class="st0" d="M46.5,958.4c-0.9,0.1-1.6,0.7-1.8,1.6l-1,4.9c-0.8,0.3-1.5,0.6-2.2,0.9l-4.2-2.8c-0.8-0.5-1.8-0.4-2.5,0.3
		c-1.5,1.5-3.2,3-4.8,4.6c-0.7,0.7-0.8,1.7-0.2,2.5l2.8,4.2c-0.4,0.7-0.7,1.5-0.9,2.3l-5,1.1c-0.9,0.2-1.6,1-1.6,2
		c0,2.2,0,4.3,0,6.5c0,0.9,0.7,1.7,1.6,1.9l5,1.1c0.3,0.8,0.6,1.5,0.9,2.3l-2.8,4.2c-0.5,0.8-0.4,1.8,0.2,2.5
		c1.6,1.6,3.2,3.1,4.8,4.6c0.7,0.7,1.7,0.8,2.5,0.3l4.2-2.8c0.7,0.4,1.5,0.7,2.2,0.9l1,4.9c0.2,0.9,1,1.6,2,1.6h6.6
		c1,0,1.8-0.7,2-1.6l1-4.9c0.8-0.3,1.5-0.6,2.2-0.9l4.2,2.8c0.8,0.5,1.8,0.4,2.5-0.3c1.5-1.5,3.2-3,4.8-4.6c0.7-0.7,0.8-1.7,0.2-2.5
		l-2.8-4.2c0.4-0.7,0.7-1.5,0.9-2.3l5-1.1c0.9-0.2,1.6-1,1.6-1.9c0-2.2,0-4.3,0-6.5c0-1-0.7-1.8-1.6-2l-5-1.1
		c-0.3-0.8-0.6-1.5-0.9-2.3l2.8-4.2c0.5-0.8,0.4-1.9-0.2-2.5c-1.6-1.6-3.2-3.1-4.8-4.6c-0.7-0.7-1.7-0.8-2.5-0.3l-4.2,2.8
		c-0.7-0.4-1.5-0.7-2.2-0.9l-1-4.9c-0.2-0.9-1-1.6-2-1.6h-6.6C46.6,958.4,46.6,958.4,46.5,958.4z M48.3,962.4h3.3l0.9,4.3
		c0.2,0.7,0.7,1.3,1.5,1.5c1.3,0.4,2.6,0.9,3.8,1.6c0.7,0.4,1.5,0.4,2.1-0.1l3.8-2.4c0.8,0.8,1.6,1.5,2.4,2.3l-2.5,3.8
		c-0.4,0.6-0.5,1.4-0.1,2.1c0.7,1.2,1.2,2.5,1.6,3.8c0.2,0.7,0.8,1.3,1.5,1.4l4.5,0.9c0,1.1,0,2.2,0,3.3l-4.5,1
		c-0.7,0.2-1.3,0.7-1.5,1.4c-0.4,1.3-0.9,2.6-1.6,3.8c-0.4,0.7-0.3,1.5,0.1,2.1L66,997c-0.8,0.8-1.6,1.6-2.4,2.3l-3.8-2.5
		c-0.6-0.4-1.4-0.4-2.1,0c-1.2,0.7-2.4,1.2-3.8,1.6c-0.7,0.2-1.3,0.8-1.5,1.5l-0.9,4.3h-3.3l-0.9-4.3c-0.2-0.7-0.7-1.3-1.5-1.5
		c-1.3-0.4-2.6-0.9-3.8-1.6c-0.6-0.4-1.5-0.4-2.1,0l-3.8,2.5c-0.8-0.8-1.6-1.6-2.4-2.3l2.5-3.7c0.4-0.6,0.5-1.5,0.1-2.1
		c-0.7-1.2-1.2-2.5-1.6-3.8c-0.2-0.7-0.8-1.3-1.5-1.4l-4.5-1c0-1.1,0-2.2,0-3.3l4.5-0.9c0.7-0.2,1.3-0.7,1.5-1.4
		c0.4-1.3,0.9-2.7,1.6-3.8c0.4-0.7,0.3-1.5-0.1-2.1l-2.5-3.8c0.8-0.8,1.6-1.5,2.4-2.3l3.8,2.4c0.6,0.4,1.4,0.4,2.1,0.1
		c1.2-0.7,2.4-1.2,3.8-1.6c0.7-0.2,1.3-0.8,1.5-1.5L48.3,962.4z M50,975.3c-4.4,0-8,3.6-8,8c0,4.4,3.6,8,8,8s8-3.6,8-8
		C58,978.9,54.4,975.3,50,975.3z M50,979.3c2.2,0,4,1.8,4,4c0,2.2-1.8,4-4,4c-2.2,0-4-1.8-4-4C46,981.1,47.8,979.3,50,979.3z
		 M87.2,998.6c-1.6,0-3,0.7-4,1.8l0,0c0,0,0,0.1,0,0.1c0,0-2.7,2.7-5.7,5.7c-3,3-6.1,6-7,7.1c-0.7,0.8-0.7,2.1,0.1,2.8
		c0.8,0.7,2.1,0.7,2.8-0.1c0,0,0,0,0,0c0.6-0.7,3.9-3.9,6.8-6.9s5.7-5.7,5.7-5.7c0,0,0,0,0.1,0c0.3-0.4,0.7-0.5,1.2-0.5
		c0.9,0,1.8,0.9,1.8,2.2c0,0.6-0.2,1.1-0.5,1.5c0,0,0,0,0,0c-0.1,0.1-12,14.5-19.8,23.5c-2.1,2.5-5.1,5-9.2,5H35.8
		c-2.6,0-5.2,0.5-7.3,2.5l-5.7,5.5c-0.8,0.8-0.8,2-0.1,2.8c0.8,0.8,2,0.8,2.8,0.1c0,0,0,0,0.1-0.1l5.7-5.5c1.1-1.1,2.3-1.3,4.5-1.3
		h23.7c5.7,0,9.8-3.5,12.2-6.4c7.8-9.1,19.9-23.6,19.9-23.6c0,0,0-0.1,0.1-0.1c0.8-1.1,1.3-2.4,1.3-3.9
		C93,1001.6,90.5,998.6,87.2,998.6z M34.4,1013.5c-4.2,0-8.6,0.6-12.1,3.5L7.7,1029c-0.9,0.7-1,2-0.3,2.8s2,1,2.8,0.3l14.6-11.9
		c2.4-2,5.7-2.6,9.6-2.6h29.4c0.3,1,0.3,2.2-0.3,3.4c-0.8,1.5-2.2,2.3-2.8,2.2c-0.1,0-0.1,0-0.2,0H41.4c-1.1,0-2,0.9-2,2
		c0,1.1,0.9,2,2,2c0,0,0,0,0.1,0h18.9h0.2v0c2.9,0.2,5.3-1.9,6.6-4.3c1.3-2.5,1.8-5.8-0.2-8.4c-0.4-0.5-1-0.8-1.6-0.8H34.4z"/>
</g>
</svg>
