<?xml version="1.0" encoding="utf-8"?>
<!-- Generator: Adobe Illustrator 27.7.0, SVG Export Plug-In . SVG Version: 6.00 Build 0)  -->
<svg version="1.1" id="Layer_1" xmlns="http://www.w3.org/2000/svg" xmlns:xlink="http://www.w3.org/1999/xlink" x="0px" y="0px"
	 viewBox="0 0 16 16" style="enable-background:new 0 0 16 16;" xml:space="preserve">
<style type="text/css">
	.st0{fill:#6F84A7;stroke:#6F84A7;stroke-width:0.2835;stroke-miterlimit:10;}
</style>
<path class="st0" d="M7.3,6.8C7.2,6.3,6.8,5.9,6.4,5.7C5.6,5.3,4.7,5.4,4,5.5c-0.1,0-0.2,0.1-0.2,0.2s0,0.2,0,0.2
	C3.8,6,4,6.2,4.1,6.4C4.2,6.7,4.3,7,4.4,7.3c0.2,0.8,0.8,1.4,1.8,1.4c0.1,0,0.2,0,0.3,0c0.2,0,0.2-0.1,0.2-0.3S6.6,8.2,6.5,8.2
	C5.7,8.3,5.1,7.8,5,7.2C4.9,6.9,4.8,6.5,4.6,6.2C4.6,6.1,4.5,6.1,4.5,6c0.7-0.1,1.2,0,1.7,0.2C6.5,6.4,6.8,6.7,6.8,7
	c0.1,0.2,0.1,0.3,0.1,0.6C6.7,7.3,6.3,7,6,6.7C5.9,6.6,5.7,6.6,5.6,6.8S5.5,7.1,5.7,7.2C6.2,7.6,6.5,8,6.8,8.3
	c0,0.1,0.1,0.1,0.1,0.1c0.5,0.6,0.7,1.1,0.8,1.5c0,0.1,0.1,0.1,0.1,0.1c-0.3,0.6-0.4,1.1-0.6,1.6c-0.1,0.1,0.1,0.3,0.2,0.3h0.1
	c0.2,0,0.2-0.1,0.2-0.2c0.1-0.4,0.2-0.9,0.5-1.5l0,0c0.1-0.4,0.4-0.7,0.6-1.1h0.1C9.4,8.9,10.2,9,10.2,9c0.1,0.1,0.3-0.1,0.4-0.2
	s-0.1-0.3-0.2-0.4c0,0-0.4-0.1-0.9-0.1c0.4-0.4,0.9-0.7,1.4-0.9C11,7.4,11,7.2,11,7.1s-0.2-0.2-0.4-0.2C10.3,7.1,10,7.2,9.8,7.4V7.4
	C9.8,7.2,9.7,7.1,9.6,7C9.4,7,9.2,7.1,9.2,7.2L8.9,8c0,0,0,0,0,0.1C8.6,8.4,8.3,8.8,8.1,9.2C7.9,8.8,8,8.3,8.1,8.1
	c0.1-0.5,0.6-0.9,1-1.2c0.9-0.4,1.8-0.4,2.8-0.3c-0.1,0.2-0.1,0.2-0.2,0.3c-0.3,0.6-0.4,1.1-0.5,1.6s-0.4,1-0.8,1.2
	c-0.4,0.3-1,0.4-1.6,0.2C8.6,9.9,8.4,10,8.4,10.1s0.1,0.3,0.2,0.4c0.2,0.1,0.5,0.1,0.7,0.1c0.5,0,0.9-0.1,1.4-0.4
	c0.6-0.4,0.9-0.9,1.1-1.6c0.1-0.4,0.2-1,0.4-1.4c0.1-0.2,0.3-0.5,0.4-0.7c0.1-0.1,0.1-0.2,0-0.2s-0.1-0.2-0.2-0.2
	C11.2,6,10,5.9,8.8,6.4C8.2,6.7,7.7,7.3,7.5,7.9C7.4,8.1,7.4,8.2,7.4,8.4C7.3,8.3,7.3,8.2,7.2,8.2C7.4,7.7,7.5,7.2,7.3,6.8L7.3,6.8z
	"/>
<path class="st0" d="M5.8,13.4C5.8,13.4,5.8,13.4,5.8,13.4c0.2,0,0.3-0.1,0.3-0.1c0.1-0.1,0-0.3-0.2-0.4C3.7,12,2.4,9.8,2.7,7.4
	C3,4.7,5.2,2.7,7.9,2.7L7.2,3.2C7.1,3.3,7.1,3.5,7.2,3.6c0.1,0,0.2,0.1,0.2,0.1c0.1,0,0.1,0,0.2,0l1.2-1C8.9,2.5,9,2.3,8.9,2.2
	L7.9,1C7.8,0.9,7.6,0.8,7.5,0.9S7.3,1.2,7.4,1.3l0.7,0.8c-3,0-5.6,2.3-5.9,5.3C1.9,9.9,3.3,12.4,5.8,13.4L5.8,13.4z"/>
<path class="st0" d="M10.1,3c2.2,0.9,3.6,3.2,3.3,5.6c-0.3,2.7-2.6,4.8-5.2,4.8l0.7-0.6C9,12.8,9.1,12.6,9,12.5s-0.2-0.1-0.4-0.1
	l-1.2,1c-0.1,0.1-0.1,0.1-0.1,0.2s0,0.1,0.1,0.2l1,1.2c0.1,0.1,0.1,0.1,0.2,0.1s0.1,0,0.1-0.1c0.1-0.1,0.1-0.2,0.1-0.4L8,13.9l0,0
	c3,0,5.6-2.2,5.9-5.3c0.3-2.6-1.2-5.1-3.6-6.1c-0.1,0-0.3,0-0.4,0.2S9.9,3,10.1,3L10.1,3z"/>
</svg>
