<?xml version="1.0" encoding="utf-8"?>
<!-- Generator: Adobe Illustrator 24.1.1, SVG Export Plug-In . SVG Version: 6.00 Build 0)  -->
<svg version="1.1" id="Layer_1" xmlns="http://www.w3.org/2000/svg" xmlns:xlink="http://www.w3.org/1999/xlink" x="0px" y="0px"
	 width="16" height="16" viewBox="0 0 32 32" style="enable-background:new 0 0 32 32;" xml:space="preserve">
<style type="text/css">
	.st0{fill:#6f84a7;}
</style>
<path class="st0" d="M14.7,13.6c-0.3-1-1-1.8-1.9-2.2c-1.7-0.8-3.4-0.7-4.9-0.5c-0.2,0-0.4,0.1-0.4,0.3s-0.1,0.4,0,0.5
	c0.2,0.3,0.5,0.7,0.6,1c0.3,0.6,0.5,1.3,0.6,1.9c0.3,1.5,1.7,2.9,3.7,2.9c0.2,0,0.4,0,0.6,0c0.3,0,0.5-0.3,0.5-0.6s-0.3-0.5-0.6-0.5
	c-1.5,0.2-2.8-0.8-3-1.9c-0.1-0.7-0.3-1.5-0.7-2.2C9.1,12.1,9,12.1,9,12c1.3-0.1,2.4,0,3.4,0.5c0.6,0.3,1.1,0.8,1.3,1.5
	c0.1,0.3,0.2,0.7,0.1,1.2c-0.5-0.6-1.1-1.1-1.8-1.8c-0.2-0.2-0.6-0.2-0.8,0.1s-0.2,0.6,0.1,0.8c1,0.8,1.7,1.6,2.2,2.3
	c0,0.1,0.1,0.1,0.2,0.2c1,1.3,1.3,2.3,1.5,3c0,0.1,0.1,0.2,0.1,0.3c-0.6,1.2-0.9,2.3-1.1,3.1c-0.1,0.3,0.1,0.6,0.4,0.6
	c0,0,0.1,0,0.1,0c0.3,0,0.5-0.2,0.5-0.5c0.1-0.8,0.5-1.9,1-3c0,0,0,0,0,0c0.3-0.7,0.8-1.4,1.3-2.1c0,0,0.1,0,0.1,0
	c1.2-0.5,2.7-0.2,2.7-0.2c0.3,0.1,0.6-0.1,0.7-0.4s-0.1-0.6-0.4-0.7c0,0-0.8-0.2-1.8-0.1c0.8-0.7,1.7-1.4,2.8-1.9
	c0.3-0.1,0.4-0.5,0.3-0.7s-0.5-0.4-0.7-0.3c-0.6,0.3-1.2,0.6-1.7,1l0-0.1c0.1-0.3-0.1-0.6-0.4-0.7c-0.3-0.1-0.6,0.1-0.7,0.4L17.9,16
	c0,0,0,0,0,0.1c-0.7,0.7-1.3,1.5-1.8,2.3c-0.3-0.9-0.1-1.7,0-2.3c0.3-1,1.1-1.9,2-2.4c1.7-0.8,3.5-0.9,5.6-0.7
	c-0.2,0.3-0.3,0.5-0.4,0.7c-0.6,1.1-0.8,2.2-1,3.2c-0.2,1-0.8,2-1.6,2.5c-0.9,0.6-2,0.7-3.3,0.4c-0.3-0.1-0.6,0.1-0.7,0.4
	s0.1,0.6,0.4,0.7c0.5,0.1,1,0.2,1.4,0.2c1,0,1.9-0.3,2.7-0.7c1.1-0.7,1.8-1.8,2.1-3.2c0.2-0.9,0.4-2,0.9-2.9c0.2-0.3,0.6-1,0.9-1.4
	c0.1-0.2,0.1-0.4,0-0.5s-0.3-0.3-0.4-0.3c-2.2-0.2-4.7-0.4-7.1,0.7c-1.2,0.6-2.2,1.7-2.6,3c-0.1,0.3-0.2,0.6-0.2,0.9
	c-0.1-0.1-0.2-0.3-0.3-0.4C14.9,15.4,15,14.5,14.7,13.6L14.7,13.6z"/>
<path class="st0" d="M11.5,26.9c0.1,0,0.1,0,0.2,0c0.2,0,0.4-0.1,0.5-0.3c0.1-0.3,0-0.6-0.3-0.7c-4.4-1.9-7-6.3-6.5-11
	C6,9.4,10.5,5.4,15.8,5.3l-1.4,1.1c-0.2,0.2-0.3,0.5-0.1,0.8c0.1,0.1,0.3,0.2,0.4,0.2c0.1,0,0.2,0,0.3-0.1l2.5-2
	C17.9,5,18,4.7,17.8,4.4l-2-2.5c-0.2-0.2-0.5-0.3-0.8-0.1s-0.3,0.5-0.1,0.8l1.3,1.6c-6,0-11.1,4.5-11.8,10.6
	C3.8,19.9,6.6,24.8,11.5,26.9L11.5,26.9z"/>
<path class="st0" d="M20.2,6.1c4.4,1.8,7.1,6.4,6.6,11.1c-0.6,5.4-5.1,9.5-10.4,9.6l1.4-1.1c0.2-0.2,0.3-0.5,0.1-0.8
	s-0.5-0.3-0.8-0.1l-2.5,2c-0.1,0.1-0.2,0.2-0.2,0.4s0,0.3,0.1,0.4l2,2.5c0.1,0.1,0.3,0.2,0.4,0.2c0.1,0,0.2,0,0.3-0.1
	c0.2-0.2,0.3-0.5,0.1-0.8l-1.3-1.6c0,0,0,0,0,0c6,0,11.1-4.5,11.8-10.6c0.6-5.2-2.4-10.2-7.2-12.2c-0.3-0.1-0.6,0-0.7,0.3
	S19.9,6,20.2,6.1L20.2,6.1z"/>
</svg>
