<?xml version="1.0" encoding="UTF-8"?>
<svg id="Layer_1" xmlns="http://www.w3.org/2000/svg" version="1.1" viewBox="0 0 24 24">
  <!-- Generator: Adobe Illustrator 29.1.0, SVG Export Plug-In . SVG Version: 2.1.0 Build 142)  -->
  <defs>
    <style>
      .st0 {
        fill: none;
        stroke: #6f84a7;
        stroke-linecap: round;
        stroke-linejoin: round;
        stroke-width: 2px;
      }
    </style>
  </defs>
  <path class="st0" d="M7.7,2.3l-3.4.8c-1,.2-1.6,1.2-1.4,2.2l.8,3.4c.1.5.4.9.8,1.1l9.2,5.8c.7.4,1.6.4,2.1-.2,1.4-1.4,2.5-3.2,3.2-5,.3-.7,0-1.6-.7-2L9.1,2.5c-.4-.3-.9-.3-1.4-.2Z"/>
  <path class="st0" d="M6.1,5.6h0s0,0,0,0h0Z"/>
  <path class="st0" d="M5.6,13.8v.7c.2.5.5.9.9,1.1l9.2,5.8c.7.4,1.6.4,2.1-.2,1.4-1.4,2.5-3.2,3.2-5,.3-.7,0-1.6-.7-2h0"/>
</svg>