<?xml version="1.0" encoding="utf-8"?>
<!-- Generator: Adobe Illustrator 27.7.0, SVG Export Plug-In . SVG Version: 6.00 Build 0)  -->
<svg version="1.1" id="Layer_1" xmlns="http://www.w3.org/2000/svg" xmlns:xlink="http://www.w3.org/1999/xlink" x="0px" y="0px"
	 viewBox="0 0 16 16" style="enable-background:new 0 0 16 16;" xml:space="preserve">
<style type="text/css">
	.st0{fill:#6F84A7;stroke:#6F84A7;stroke-width:0.7087;stroke-miterlimit:10;}
	.st1{fill:#6F84A7;stroke:#6F84A7;stroke-width:0.2835;stroke-miterlimit:10;}
</style>
<path class="st0" d="M4.5,11.9c0-0.4-0.4-0.8-0.8-0.8H3.3c0.4-0.3,0.5-0.9,0.2-1.4S2.6,9.2,2.2,9.6C1.8,9.9,1.7,10.5,2,10.9
	C2,11,2.1,11.1,2.2,11.1H1.8c-0.4,0-0.8,0.4-0.8,0.8v0.8h3.5L4.5,11.9L4.5,11.9z M2.7,9.8c0.3,0,0.6,0.3,0.6,0.6s-0.3,0.6-0.6,0.6
	s-0.6-0.3-0.6-0.6C2.2,10,2.4,9.8,2.7,9.8z M4.1,12.3H1.4v-0.4c0-0.2,0.2-0.4,0.4-0.4h1.9c0.2,0,0.4,0.2,0.4,0.4L4.1,12.3L4.1,12.3z
	"/>
<path class="st0" d="M14.6,10.3c0-0.5-0.4-1-1-1s-1,0.4-1,1c0,0.3,0.1,0.6,0.4,0.8h-0.4c-0.4,0-0.8,0.4-0.8,0.8v0.8h3.5v-0.8
	c0-0.4-0.4-0.8-0.8-0.8h-0.4C14.4,10.9,14.6,10.7,14.6,10.3z M14.9,11.9v0.4h-2.7v-0.4c0-0.2,0.2-0.4,0.4-0.4h1.9
	C14.8,11.5,14.9,11.7,14.9,11.9z M13.6,10.9c-0.3,0-0.6-0.3-0.6-0.6c0-0.3,0.3-0.6,0.6-0.6c0.3,0,0.6,0.3,0.6,0.6
	C14.2,10.7,13.9,10.9,13.6,10.9z"/>
<path class="st0" d="M9.8,3.2c0-0.4-0.4-0.8-0.8-0.8H8.7c0.4-0.3,0.5-0.9,0.2-1.4S7.9,0.6,7.5,0.9C7.1,1.2,7,1.9,7.3,2.3
	c0.1,0.1,0.1,0.1,0.2,0.2H7.1c-0.4,0-0.8,0.4-0.8,0.8V4h3.5L9.8,3.2L9.8,3.2z M8.1,1.1c0.3,0,0.6,0.3,0.6,0.6S8.4,2.3,8.1,2.3
	C7.7,2.3,7.5,2,7.5,1.7S7.7,1.1,8.1,1.1z M9.4,3.6H6.7V3.2c0-0.2,0.2-0.4,0.4-0.4H9c0.2,0,0.4,0.2,0.4,0.4L9.4,3.6L9.4,3.6z"/>
<path class="st0" d="M10.9,13.4c-1.8,1-3.9,1-5.7,0L5,13.8c1.9,1.1,4.3,1.1,6.2,0L10.9,13.4z"/>
<path class="st0" d="M2.4,8.5L2.4,8.5c0-2.1,1.1-4,2.9-5L5,3.2C3.1,4.3,1.9,6.3,1.9,8.5v0L2.4,8.5z"/>
<path class="st0" d="M13.8,8.5h0.4c0-2.2-1.2-4.2-3.1-5.3l-0.2,0.4C12.7,4.6,13.8,6.4,13.8,8.5z"/>
<path class="st1" d="M5.5,6.9H5v0.4h0.5c0,0.1,0,0.1,0.1,0.2L5.2,7.9l0.3,0.3l0.3-0.4C5.9,8,6,8,6.1,8v0.5h0.4V8
	c0.1,0,0.1,0,0.2-0.1l0.3,0.4L7.4,8L7,7.6c0-0.1,0.1-0.1,0.1-0.2h0.5V7H7.1c0-0.1,0-0.1-0.1-0.2l0.4-0.3L7.1,6.1L6.8,6.4
	c-0.1,0-0.1-0.1-0.2-0.1V5.9H6.1v0.5C6,6.3,6,6.4,5.9,6.4L5.5,6.1L5.2,6.4l0.3,0.3C5.5,6.8,5.5,6.9,5.5,6.9z M6.3,6.7
	c0.2,0,0.4,0.2,0.4,0.4c0,0.2-0.2,0.4-0.4,0.4c-0.2,0-0.4-0.2-0.4-0.4C5.9,6.9,6.1,6.7,6.3,6.7z"/>
<path class="st0" d="M9.4,8.7C9,8.7,8.7,9,8.7,9.4S9,10,9.4,10S10,9.7,10,9.4S9.7,8.7,9.4,8.7z M9.4,9.6c-0.1,0-0.2-0.1-0.2-0.2
	s0.1-0.2,0.2-0.2c0.1,0,0.2,0.1,0.2,0.2S9.5,9.6,9.4,9.6z"/>
<path class="st1" d="M10,7.4H8.7v0.4L8.5,7.5L7.5,8.4l0.3,0.3H7.4V10h0.4l-0.3,0.3l0.9,0.9L8.7,11v0.4H10V11l0.3,0.3l0.9-0.9L11,10
	h0.4V8.7H11l0.3-0.3l-0.9-0.9L10,7.8C10,7.8,10,7.4,10,7.4z M10.2,8.3l0.1-0.1l0.3,0.3l-0.1,0.1c-0.1,0.1-0.1,0.3,0,0.5
	c0.1,0.1,0.1,0.1,0.2,0.1h0.2v0.4h-0.2c-0.2,0-0.3,0.2-0.3,0.3c0,0.1,0,0.2,0.1,0.2l0.1,0.1l-0.3,0.3l-0.2-0.1
	c-0.1-0.1-0.3-0.1-0.5,0c-0.1,0.1-0.1,0.1-0.1,0.2v0.2H9.2v-0.2c0-0.2-0.2-0.3-0.3-0.3c-0.1,0-0.2,0-0.2,0.1l-0.1,0.1l-0.3-0.3
	l0.1-0.1c0.1-0.1,0.1-0.3,0-0.5C8.2,9.6,8.1,9.6,8,9.6H7.8V9.2h0.2c0.2,0,0.3-0.2,0.3-0.3c0-0.1,0-0.2-0.1-0.2L8.1,8.4l0.3-0.3
	l0.1,0.1c0.1,0.1,0.3,0.1,0.5,0C9.1,8.2,9.2,8.1,9.2,8V7.8h0.4V8c0,0.2,0.2,0.3,0.3,0.3C10,8.4,10.1,8.3,10.2,8.3z"/>
</svg>
