<?xml version="1.0" encoding="utf-8"?>
<!-- Generator: Adobe Illustrator 25.4.1, SVG Export Plug-In . SVG Version: 6.00 Build 0)  -->
<svg version="1.1" id="Layer_1" xmlns="http://www.w3.org/2000/svg" xmlns:xlink="http://www.w3.org/1999/xlink" x="0px" y="0px"
	 width="16" height="16" viewBox="0 0 100 100" style="enable-background:new 0 0 100 100;" xml:space="preserve">
<style type="text/css">
	.st0{fill:#5A7197;}
</style>
<path class="st0" d="M29.8,76.4c0-3-2.5-5.5-5.5-5.5h-2.7c3-2.3,3.6-6.6,1.4-9.6s-6.6-3.6-9.6-1.4s-3.6,6.6-1.4,9.6
	c0.4,0.5,0.9,1,1.4,1.4h-2.7c-3,0-5.5,2.5-5.5,5.5v5.5h24.7V76.4z M17.4,61.3c2.3,0,4.1,1.8,4.1,4.1c0,2.3-1.8,4.1-4.1,4.1
	s-4.1-1.8-4.1-4.1C13.3,63.1,15.2,61.3,17.4,61.3z M27.1,79.1H7.8v-2.7c0-1.5,1.2-2.7,2.7-2.7h13.7c1.5,0,2.7,1.2,2.7,2.7V79.1z"/>
<path class="st0" d="M90.3,65.4c0-3.8-3.1-6.9-6.9-6.9s-6.9,3.1-6.9,6.9c0,2.2,1,4.2,2.7,5.5h-2.7c-3,0-5.5,2.5-5.5,5.5v5.5h24.7
	v-5.5c0-3-2.5-5.5-5.5-5.5h-2.7C89.2,69.6,90.3,67.6,90.3,65.4z M93,76.4v2.7H73.8v-2.7c0-1.5,1.2-2.7,2.7-2.7h13.7
	C91.8,73.6,93,74.9,93,76.4z M83.4,69.5c-2.3,0-4.1-1.8-4.1-4.1c0-2.3,1.8-4.1,4.1-4.1c2.3,0,4.1,1.8,4.1,4.1
	C87.5,67.7,85.7,69.5,83.4,69.5z"/>
<path class="st0" d="M62.8,24.2c0-3-2.5-5.5-5.5-5.5h-2.7c3-2.3,3.6-6.6,1.4-9.6s-6.6-3.6-9.6-1.4c-3,2.3-3.6,6.6-1.4,9.6
	c0.4,0.5,0.9,1,1.4,1.4h-2.7c-3,0-5.5,2.5-5.5,5.5v5.5h24.7V24.2z M50.4,9.1c2.3,0,4.1,1.8,4.1,4.1s-1.8,4.1-4.1,4.1
	s-4.1-1.8-4.1-4.1S48.1,9.1,50.4,9.1z M60,26.9H40.8v-2.7c0-1.5,1.2-2.7,2.7-2.7h13.7c1.5,0,2.7,1.2,2.7,2.7V26.9z"/>
<path class="st0" d="M68.4,83.9c-11,6.4-24.6,6.5-35.7,0.1l-1.4,2.4c11.9,6.8,26.6,6.8,38.5-0.1L68.4,83.9z"/>
<path class="st0" d="M14.7,53.2V53c0-12.8,6.8-24.5,17.9-30.9l-1.4-2.4C19.3,26.6,12,39.3,12,53v0.1L14.7,53.2z"/>
<path class="st0" d="M86.1,53h2.7c0-13.7-7.3-26.4-19.2-33.3l-1.4,2.4C79.3,28.5,86.1,40.3,86.1,53z"/>
<path class="st0" d="M34.1,43.4h-2.9v2.7h2.9c0.1,0.5,0.3,0.9,0.6,1.4l-2.1,2.1l1.9,2l2.1-2.2c0.4,0.3,0.9,0.5,1.4,0.6V53h2.7v-2.9
	c0.5-0.1,0.9-0.3,1.4-0.6l2.1,2.2l2-2l-2.2-2.1c0.3-0.4,0.5-0.9,0.6-1.4h2.9v-2.7h-2.9c-0.1-0.5-0.3-0.9-0.6-1.4l2.2-2.1L44.4,38
	l-2.2,2.1c-0.4-0.3-0.9-0.5-1.4-0.6v-2.9h-2.7v2.9c-0.5,0.1-0.9,0.3-1.4,0.6L34.6,38l-1.9,1.9l2.1,2.1
	C34.5,42.5,34.3,42.9,34.1,43.4z M39.4,42.1c1.5,0,2.7,1.2,2.7,2.7s-1.2,2.7-2.7,2.7c-1.5,0-2.7-1.2-2.7-2.7S37.9,42.1,39.4,42.1z"
	/>
<path class="st0" d="M58.7,54.4c-2.3,0-4.1,1.8-4.1,4.1s1.8,4.1,4.1,4.1s4.1-1.8,4.1-4.1S60.9,54.4,58.7,54.4z M58.7,59.9
	c-0.8,0-1.4-0.6-1.4-1.4s0.6-1.4,1.4-1.4s1.4,0.6,1.4,1.4S59.4,59.9,58.7,59.9z"/>
<path class="st0" d="M62.8,46.2h-8.2v2.4l-1.7-1.7L47,52.7l1.7,1.7h-2.4v8.2h2.4L47,64.4l5.8,5.8l1.7-1.7v2.4h8.2v-2.4l1.7,1.7
	l5.8-5.8l-1.7-1.7H71v-8.2h-2.4l1.7-1.7l-5.8-5.8l-1.7,1.7V46.2z M63.5,51.7l0.9-0.9l2,2l-0.9,0.9c-0.8,0.8-0.8,2.1-0.1,2.9
	c0.4,0.4,0.9,0.6,1.5,0.6h1.4v2.7h-1.4c-1.1,0-2,1-2,2.1c0,0.5,0.2,1,0.6,1.4l0.9,0.9l-2,2l-1-0.9c-0.8-0.8-2.1-0.8-2.9,0
	c-0.4,0.4-0.6,0.9-0.6,1.4v1.4h-2.7v-1.4c0-1.1-1-2-2.1-2c-0.5,0-1,0.2-1.4,0.6l-0.9,0.9l-2-2l0.9-0.9c0.8-0.8,0.8-2.1,0.1-2.9
	c-0.4-0.4-0.9-0.6-1.5-0.6H49v-2.7h1.4c1.1,0,2-1,2-2.1c0-0.5-0.2-1-0.6-1.4l-0.9-0.9l2-2l0.9,0.9c0.8,0.8,2.1,0.9,2.9,0.1
	c0.4-0.4,0.6-0.9,0.6-1.5v-1.4H60v1.4c0,1.1,1,2,2.1,2C62.7,52.2,63.2,52,63.5,51.7z"/>
</svg>
