<?xml version="1.0" encoding="utf-8"?>
<!-- Generator: Adobe Illustrator 26.3.1, SVG Export Plug-In . SVG Version: 6.00 Build 0)  -->
<svg version="1.1" id="Layer_1" xmlns="http://www.w3.org/2000/svg" xmlns:xlink="http://www.w3.org/1999/xlink" x="0px" y="0px"
	 viewBox="0 0 100 100" style="enable-background:new 0 0 100 100;" xml:space="preserve">
<style type="text/css">
	.st0{fill:#5A7197;}
</style>
<path class="st0" d="M35.5,43.6C35.5,43.6,35.5,43.6,35.5,43.6C35.5,43.6,35.5,43.6,35.5,43.6c0.2-3.5,3-6.4,6.4-6.8
	c-0.2-3.4-3-6-6.4-6s-6.2,2.7-6.4,6C32.6,37.3,35.3,40.1,35.5,43.6z"/>
<path class="st0" d="M11.4,50.6c0.2,0,0.3,0.1,0.3,0.3v1.2c0.4-0.8,1.2-1.4,2.1-1.7c0.3-2.8,2.2-5.1,4.8-6.1H7.3
	c-1.2,0-2.3,1-2.3,2.3v8.4c0,0,1,0,2.3,0h3.8V51C11.1,50.8,11.2,50.6,11.4,50.6z"/>
<path class="st0" d="M27.4,36.8c-0.2-3.4-3-6-6.4-6c-3.5,0-6.4,2.9-6.4,6.4s2.9,6.4,6.4,6.4c0,0,0,0,0,0
	C21.2,40.1,23.9,37.3,27.4,36.8z"/>
<path class="st0" d="M92.7,44.5H81.4c2.6,0.9,4.5,3.3,4.8,6.1c0.9,0.2,1.7,0.8,2.1,1.7V51c0-0.2,0.1-0.3,0.3-0.3
	c0.2,0,0.3,0.1,0.3,0.3v4.2h3.8c1.2,0,2.3,0,2.3,0v-8.4C95,45.5,94,44.5,92.7,44.5z"/>
<path class="st0" d="M79,43.6C79,43.6,79,43.6,79,43.6c3.6,0,6.4-2.9,6.4-6.4s-2.9-6.4-6.4-6.4c-3.4,0-6.2,2.7-6.4,6
	C76.1,37.3,78.8,40.1,79,43.6z"/>
<path class="st0" d="M64.5,43.6C64.5,43.6,64.5,43.6,64.5,43.6C64.5,43.6,64.5,43.6,64.5,43.6c0.2-3.5,3-6.4,6.4-6.8
	c-0.2-3.4-3-6-6.4-6c-3.4,0-6.2,2.7-6.4,6C61.6,37.3,64.3,40.1,64.5,43.6z"/>
<path class="st0" d="M50,43.6C50,43.6,50,43.6,50,43.6C50,43.6,50,43.6,50,43.6c0.2-3.5,3-6.4,6.4-6.8c-0.2-3.4-3-6-6.4-6
	s-6.2,2.7-6.4,6C47.1,37.3,49.8,40.1,50,43.6z"/>
<path class="st0" d="M74.1,56.6v1.1h1.5C75.1,57.4,74.6,57,74.1,56.6z"/>
<path class="st0" d="M87.7,53.5c0-1-0.6-1.8-1.5-2.1c-0.1,2.7-1.6,5.1-3.8,6.3h5.3V53.5z"/>
<path class="st0" d="M65.4,44C65.4,44,65.4,44.1,65.4,44c3.3,0.4,6,3.1,6.3,6.4c0,0,0,0,0.1,0s0,0,0.1,0c0.4-3.3,3-5.9,6.3-6.3
	c0,0,0,0,0-0.1c0-3.5-2.9-6.4-6.4-6.4C68.2,37.6,65.4,40.5,65.4,44z"/>
<path class="st0" d="M13.8,51.4c-0.9,0.3-1.5,1.1-1.5,2.1v4.1h5.3C15.3,56.5,13.8,54.1,13.8,51.4z"/>
<path class="st0" d="M25.9,56.6c-0.5,0.4-1,0.8-1.5,1.1h1.5V56.6z"/>
<path class="st0" d="M21.8,44C21.8,44,21.9,44.1,21.8,44c3.3,0.4,6,3.1,6.3,6.4c0,0,0,0,0.1,0c0,0,0,0,0.1,0c0.4-3.3,3-5.9,6.3-6.3
	c0,0,0,0,0-0.1c0-3.5-2.9-6.4-6.4-6.4S21.8,40.5,21.8,44z"/>
<path class="st0" d="M32.1,57.7c-2.2-1.2-3.8-3.5-3.8-6.3c0,0,0,0,0,0c0,1.6-0.6,3.1-1.5,4.2v2H32.1z"/>
<path class="st0" d="M40.4,56.6c-0.5,0.4-1,0.8-1.5,1.1h1.5V56.6z"/>
<path class="st0" d="M36.4,44C36.4,44,36.4,44.1,36.4,44c3.3,0.4,6,3.1,6.3,6.4c0,0,0,0,0.1,0c0,0,0,0,0.1,0c0.4-3.3,3-5.9,6.3-6.3
	c0,0,0,0,0-0.1c0-3.5-2.9-6.4-6.4-6.4S36.4,40.5,36.4,44z"/>
<path class="st0" d="M73.2,57.7v-2c-0.9-1.2-1.5-2.6-1.5-4.2c0,0,0,0,0,0c-0.1,2.7-1.6,5.1-3.8,6.3H73.2z"/>
<path class="st0" d="M61.1,57.7c-2.3-1.2-3.8-3.6-3.8-6.4c0,2.8-1.6,5.2-3.8,6.4H61.1z"/>
<path class="st0" d="M46.6,57.7c-2.2-1.2-3.8-3.5-3.8-6.3c0,0,0,0,0,0c0,1.6-0.6,3.1-1.5,4.2v2H46.6z"/>
<path class="st0" d="M50.9,44C50.9,44,50.9,44.1,50.9,44c3.3,0.4,6,3.1,6.3,6.4c0,0,0,0,0.1,0c0,0,0,0,0.1,0c0.4-3.3,3-5.9,6.3-6.3
	c0,0,0,0,0-0.1c0-3.5-2.9-6.4-6.4-6.4S50.9,40.5,50.9,44z"/>
<path class="st0" d="M80.4,58.5c0.6,0.6,1,1.4,1,2.3v8.4h6.9V65c0-0.2,0.1-0.3,0.3-0.3c0.2,0,0.3,0.1,0.3,0.3v4.2h3.8
	c1.2,0,2.3,0,2.3,0v-8.4c0-1.2-1-2.3-2.3-2.3H80.4z"/>
<circle class="st0" cx="79" cy="51.3" r="6.4"/>
<path class="st0" d="M18.6,60.8c0-0.9,0.4-1.7,1-2.3H7.3c-1.2,0-2.3,1-2.3,2.3v8.4c0,0,1,0,2.3,0h3.8V65c0-0.2,0.1-0.3,0.3-0.3
	c0.2,0,0.3,0.1,0.3,0.3v4.2h6.9V60.8z"/>
<circle class="st0" cx="21" cy="51.3" r="6.4"/>
<path class="st0" d="M80.5,60.8c0-1.2-1-2.3-2.3-2.3H65.9c0.6,0.6,1,1.4,1,2.3v8.4h6.9V65c0-0.2,0.1-0.3,0.3-0.3s0.3,0.1,0.3,0.3
	v4.2h3.8h2.3V60.8z"/>
<circle class="st0" cx="64.5" cy="51.3" r="6.4"/>
<path class="st0" d="M33.2,60.8c0-0.9,0.4-1.7,1-2.3H21.8c-1.2,0-2.3,1-2.3,2.3v8.4h2.3h3.8V65c0-0.2,0.1-0.3,0.3-0.3
	c0.2,0,0.3,0.1,0.3,0.3v4.2h6.9V60.8z"/>
<circle class="st0" cx="35.5" cy="51.3" r="6.4"/>
<path class="st0" d="M66,60.8c0-1.2-1-2.3-2.3-2.3h-13h-1.5h-13c-1.2,0-2.3,1-2.3,2.3v8.4h0.7c0.6,0,1.1,0,1.5,0c0.4,0,0.7,0,0.7,0
	h2.9V65c0-0.3,0.2-0.5,0.5-0.5s0.5,0.2,0.5,0.5v4.2h7.6c0,0,0.3,0,0.7,0c0.4,0,0.9,0,1.5,0h0.7h7.6V65c0-0.3,0.2-0.5,0.5-0.5
	s0.5,0.2,0.5,0.5v4.2H63c0,0,0.3,0,0.7,0c0.4,0,0.9,0,1.5,0H66V60.8z"/>
<circle class="st0" cx="50" cy="51.3" r="6.4"/>
</svg>
