<?xml version="1.0" encoding="utf-8"?>
<!-- Generator: Adobe Illustrator 26.0.2, SVG Export Plug-In . SVG Version: 6.00 Build 0)  -->
<svg version="1.1" id="Layer_1" xmlns="http://www.w3.org/2000/svg" xmlns:xlink="http://www.w3.org/1999/xlink" x="0px" y="0px"
	 viewBox="0 0 16 16" style="enable-background:new 0 0 16 16;" xml:space="preserve">
<style type="text/css">
	.st0{fill:#5A7197;}
	.st1{fill-rule:evenodd;clip-rule:evenodd;fill:#5A7197;}
</style>
<path class="st0" d="M14.1,4.9L14.1,4.9c0-0.1,0-0.2-0.1-0.3l0,0L9.8,0.5C9.8,0.4,9.7,0.4,9.6,0.4l0,0H3.8c-1,0-1.8,0.8-1.8,1.8l0,0
	v11.6c0,1,0.8,1.8,1.8,1.8l0,0h8.4c1,0,1.8-0.8,1.8-1.8l0,0L14.1,4.9z M9.9,1.6L13,4.7H9.9V1.6z M12.2,14.9H3.8
	c-0.6,0-1.1-0.5-1.1-1.1l0,0V2.2c0-0.6,0.5-1.1,1.1-1.1l0,0h5.4v3.6c0,0.4,0.3,0.7,0.7,0.7l0,0h3.4v8.3
	C13.3,14.4,12.8,14.9,12.2,14.9L12.2,14.9L12.2,14.9z"/>
<path class="st1" d="M8,11.2c-0.9,0-1.7-1.3-1.7-2.3S7.1,7,8,7c0.9,0,1.7,0.9,1.7,1.9C9.7,9.9,8.9,11.2,8,11.2z M6.5,10.9
	c0.4,0.5,0.9,0.9,1.5,0.9c0.6,0,1.1-0.4,1.5-0.8c1.4,0.3,2.1,1.2,2.2,2.3c0,0,0,0.1,0,0.1v0.4c0,0.3-0.2,0.6-0.6,0.6H4.9
	c-0.3,0-0.6-0.3-0.6-0.6v-0.4c0,0,0,0,0,0h0c0,0,0,0,0-0.1c0,0,0,0,0,0C4.4,12.1,5,11.2,6.5,10.9z"/>
</svg>
