<!-- Generated by IcoMoon.io -->
<svg version="1.1" xmlns="http://www.w3.org/2000/svg" width="16" height="16" viewBox="0 0 16 16">
<title>virtual</title>
<path fill="#5a7197" d="M13.613 3.274h-13c-0.177 0-0.295 0.118-0.295 0.295v10.636c0 0.177 0.118 0.295 0.295 0.295h13c0.177 0 0.295-0.118 0.295-0.295v-10.636c0-0.177-0.118-0.295-0.295-0.295zM13.318 13.91h-12.408v-10.045h12.408v10.045z"></path>
<path fill="#5a7197" d="M2.386 6.229h8.273c0.177 0 0.295-0.118 0.295-0.295s-0.118-0.295-0.295-0.295h-8.273c-0.177 0-0.295 0.118-0.295 0.295s0.118 0.295 0.295 0.295z"></path>
<path fill="#5a7197" d="M2.386 8.001h8.273c0.177 0 0.295-0.118 0.295-0.295s-0.118-0.295-0.295-0.295h-8.273c-0.177 0-0.295 0.118-0.295 0.295s0.118 0.295 0.295 0.295z"></path>
<path fill="#5a7197" d="M2.386 9.774h8.273c0.177 0 0.295-0.118 0.295-0.295s-0.118-0.295-0.295-0.295h-8.273c-0.177 0-0.295 0.118-0.295 0.295s0.118 0.295 0.295 0.295z"></path>
<path fill="#5a7197" d="M2.386 11.547h4.727c0.177 0 0.295-0.118 0.295-0.295s-0.118-0.295-0.295-0.295h-4.727c-0.177 0-0.295 0.118-0.295 0.295s0.118 0.295 0.295 0.295z"></path>
<path fill="#5a7197" d="M2.976 1.501c-0.177 0-0.295 0.118-0.295 0.295v0.591c0 0.177 0.118 0.295 0.295 0.295s0.295-0.118 0.295-0.295v-0.295h0.295c0.177 0 0.295-0.118 0.295-0.295s-0.118-0.295-0.295-0.295h-0.591z"></path>
<path fill="#5a7197" d="M5.34 1.501c-0.177 0-0.295 0.118-0.295 0.295s0.118 0.295 0.295 0.295h0.591c0.177 0 0.295-0.118 0.295-0.295s-0.118-0.295-0.295-0.295h-0.591z"></path>
<path fill="#5a7197" d="M7.703 1.501c-0.177 0-0.295 0.118-0.295 0.295s0.118 0.295 0.295 0.295h0.591c0.177 0 0.295-0.118 0.295-0.295s-0.118-0.295-0.295-0.295h-0.591z"></path>
<path fill="#5a7197" d="M10.068 1.501c-0.177 0-0.295 0.118-0.295 0.295s0.118 0.295 0.295 0.295h0.591c0.177 0 0.295-0.118 0.295-0.295s-0.118-0.295-0.295-0.295h-0.591z"></path>
<path fill="#5a7197" d="M12.431 1.501c-0.177 0-0.295 0.118-0.295 0.295s0.118 0.295 0.295 0.295h0.591c0.177 0 0.295-0.118 0.295-0.295s-0.118-0.295-0.295-0.295h-0.591z"></path>
<path fill="#5a7197" d="M15.386 1.501h-0.591c-0.177 0-0.295 0.118-0.295 0.295s0.118 0.295 0.295 0.295h0.295v0.295c0 0.177 0.118 0.295 0.295 0.295s0.295-0.118 0.295-0.295v-0.591c0-0.177-0.118-0.295-0.295-0.295z"></path>
<path fill="#5a7197" d="M15.386 3.864c-0.177 0-0.295 0.118-0.295 0.295v0.591c0 0.177 0.118 0.295 0.295 0.295s0.295-0.118 0.295-0.295v-0.591c0-0.177-0.118-0.295-0.295-0.295z"></path>
<path fill="#5a7197" d="M15.386 6.229c-0.177 0-0.295 0.118-0.295 0.295v0.591c0 0.177 0.118 0.295 0.295 0.295s0.295-0.118 0.295-0.295v-0.591c0-0.177-0.118-0.295-0.295-0.295z"></path>
<path fill="#5a7197" d="M15.386 8.592c-0.177 0-0.295 0.118-0.295 0.295v0.591c0 0.177 0.118 0.295 0.295 0.295s0.295-0.118 0.295-0.295v-0.591c0-0.177-0.118-0.295-0.295-0.295z"></path>
<path fill="#5a7197" d="M15.386 10.955c-0.177 0-0.295 0.118-0.295 0.295v0.295h-0.295c-0.177 0-0.295 0.118-0.295 0.295s0.118 0.295 0.295 0.295h0.591c0.177 0 0.295-0.118 0.295-0.295v-0.591c0-0.177-0.118-0.295-0.295-0.295z"></path>
</svg>
