<?xml version="1.0" encoding="utf-8"?>
<!-- Generator: Adobe Illustrator 24.1.1, SVG Export Plug-In . SVG Version: 6.00 Build 0)  -->
<svg version="1.1" id="Layer_1" xmlns="http://www.w3.org/2000/svg" xmlns:xlink="http://www.w3.org/1999/xlink" x="0px" y="0px"
	 width="16" height="16" viewBox="0 0 32 32" style="enable-background:new 0 0 32 32;" xml:space="preserve">
<style type="text/css">
	.st0{fill:#5A7197;}
</style>
<path class="st0" d="M16.8,19.8l-0.6-0.1c-0.2,0-0.3,0-0.5,0.1c-0.1,0-0.1,0.1-0.2,0.1c-0.1,0-0.1,0-0.2-0.1c-0.1,0-0.2-0.1-0.4-0.1
	c-0.2,0-0.4,0.1-0.6,0.2c0,0-0.1,0-0.1,0c-0.1,0.1-0.2,0.2-0.1,0.4c0,0.1,0.1,0.2,0.2,0.2c0,0,0.1,0,0.1,0c0,0,0.1,0,0.1-0.1
	c0.1-0.1,0.3-0.1,0.4-0.1c0,0,0.1,0,0.1,0c0.1,0,0.2,0.1,0.4,0.1c0.2,0,0.3-0.1,0.4-0.1c0,0,0.1,0,0.1-0.1l0.6,0.1
	c0.1,0,0.3,0,0.3-0.2S16.9,19.8,16.8,19.8L16.8,19.8z"/>
<path class="st0" d="M16,20.5c-0.2,0.1-0.5,0.1-0.8,0c-0.1-0.1-0.3,0-0.4,0.1s0,0.3,0.1,0.4c0.2,0.1,0.4,0.2,0.7,0.2
	c0.2,0,0.4-0.1,0.6-0.2c0.1-0.1,0.2-0.2,0.1-0.4S16.1,20.4,16,20.5L16,20.5z"/>
<path class="st0" d="M29,19.9V9.1c0-0.1,0-0.2,0-0.3c0-1.2-1.8-2.3-5-3c-0.1,0-0.3,0.1-0.3,0.2s0.1,0.3,0.2,0.3
	c3.4,0.7,4.6,1.8,4.6,2.5c0,0.9-1.9,1.9-5,2.5c-0.1-0.1-0.2-0.2-0.4-0.2s-0.3-0.1-0.4-0.1v-0.6c0-0.7-0.5-1.2-1.2-1.2h-0.1
	c-0.2-0.5-0.5-0.9-0.8-1.3c-1.1-1.5-2.8-2.3-5-2.3c-2.2,0-3.9,0.8-5,2.3C10.3,8.4,10,8.8,9.8,9.3H9.7c-0.7,0-1.2,0.5-1.2,1.2v0.6
	c-0.1,0-0.3,0.1-0.4,0.1c-0.1,0-0.1,0-0.2,0.1c-2.8-0.6-4.4-1.5-4.4-2.4c0-1,2.1-2,5.3-2.6C9,6.2,9.1,6.1,9,5.9S8.9,5.7,8.7,5.7
	C5,6.4,2.9,7.5,2.9,8.8c0,0.1,0,0.1,0,0.1c0,0,0,0,0,0v11.1c0,0,0,0.1,0,0.1c0,1.9,4.2,3.1,9.1,3.6V25c0,0.1,0,0.1,0,0.1
	c0.3,0.8,2,1.2,3.5,1.2c1.5,0,3.2-0.4,3.5-1.1c0,0,0.1-0.1,0.1-0.2v-1.2c5.3-0.4,9.9-1.7,9.9-3.6C29.1,20.1,29,20,29,19.9
	C29,19.9,29,19.9,29,19.9L29,19.9z M23.4,12.2v1.5c0,0.2-0.2,0.4-0.4,0.5c-0.1,0-0.2,0.1-0.3,0.1v-2.1c0.2,0,0.4-0.1,0.6-0.1
	C23.3,12,23.4,12.1,23.4,12.2z M12.6,22.1c0.7,0.6,1.5,1.1,2.4,1.2c-0.8,0-1.6-0.1-2.4-0.1C12.6,23.3,12.6,22.1,12.6,22.1z
	 M18.6,23.3c-0.8,0-1.6,0.1-2.4,0.1c0.9-0.1,1.7-0.6,2.4-1.3C18.6,22.1,18.6,23.3,18.6,23.3z M15.6,22.9c-2.5,0-4.6-2.9-5.5-6.2h4
	l0.6-0.6c0,0,0.1-0.1,0.1-0.1h1.3c0.1,0,0.1,0,0.1,0.1l0.6,0.6h4C20.1,20,18.1,22.9,15.6,22.9z M21.5,16.2h-4.3l-0.5-0.5
	c-0.1-0.1-0.3-0.2-0.5-0.2h-1.3c-0.2,0-0.4,0.1-0.5,0.2l-0.5,0.5H9.7c-0.4,0-0.7-0.3-0.7-0.7V12c2.1,0.4,4.6,0.6,7,0.6
	c2.1,0,4.3-0.2,6.2-0.4v3.3C22.2,15.9,21.9,16.2,21.5,16.2L21.5,16.2z M8.5,14.2c-0.1,0-0.2-0.1-0.3-0.1c-0.2,0-0.4-0.3-0.4-0.5
	v-1.5c0-0.1,0.1-0.3,0.2-0.4c0.2,0,0.3,0.1,0.5,0.1L8.5,14.2L8.5,14.2z M21.2,11.8c-1.6,0.2-3.3,0.3-5.2,0.3c-2.2,0-4.3-0.2-6-0.4
	v-0.3c0-0.3,0.2-0.5,0.5-0.5h10.1c0.3,0,0.5,0.2,0.5,0.5V11.8z M11,8.3c1-1.4,2.6-2.1,4.6-2.1c2,0,3.5,0.7,4.6,2.1
	c0.2,0.3,0.4,0.6,0.6,1H10.4C10.6,8.9,10.8,8.6,11,8.3L11,8.3z M9.7,9.8h11.8c0.4,0,0.7,0.3,0.7,0.7v1.1c-0.1,0-0.3,0-0.4,0.1v-0.4
	c0-0.6-0.5-1-1.1-1H10.5c-0.6,0-1.1,0.4-1.1,1v0.3c-0.1,0-0.3-0.1-0.4-0.1v-1C9,10.1,9.3,9.8,9.7,9.8L9.7,9.8z M3.5,20.2
	C3.5,20.2,3.5,20.2,3.5,20.2l0-10.2c0.7,0.7,2.1,1.3,3.9,1.7c-0.1,0.2-0.1,0.3-0.1,0.5v1.5c0,0.4,0.3,0.9,0.8,1
	c0.1,0,0.3,0.1,0.4,0.1v0.7c0,0.6,0.5,1.2,1.1,1.2c0.5,1.9,1.3,3.7,2.5,4.9v1.6C6.9,22.8,3.5,21.4,3.5,20.2L3.5,20.2z M18.6,24.9
	C18.6,24.9,18.6,24.9,18.6,24.9c-0.1,0.4-1.2,0.9-3,0.9s-2.9-0.5-3-0.8c0,0,0,0,0,0v-1.1c1.1,0.1,2.3,0.1,3.4,0.1
	c0.9,0,1.8,0,2.6-0.1L18.6,24.9L18.6,24.9z M19.2,23.3v-1.7c1.1-1.2,2-3,2.4-4.9c0.6-0.1,1.1-0.6,1.1-1.2v-0.7
	c0.1,0,0.3-0.1,0.4-0.1c0.4-0.1,0.8-0.5,0.8-1v-1.5c0-0.1,0-0.2-0.1-0.3c2.1-0.4,3.8-1.1,4.6-1.9v9.9v0c0,0,0,0.1,0,0.1
	c0,0.1,0,0.1,0,0.2C28.5,21.5,24.8,22.9,19.2,23.3L19.2,23.3z"/>
</svg>
