<?xml version="1.0" encoding="utf-8"?>
<!-- Generator: Adobe Illustrator 22.1.0, SVG Export Plug-In . SVG Version: 6.00 Build 0)  -->
<svg version="1.1" id="Layer_1" xmlns="http://www.w3.org/2000/svg" xmlns:xlink="http://www.w3.org/1999/xlink" x="0px" y="0px"
	 viewBox="0 0 64 64" style="enable-background:new 0 0 64 64;" xml:space="preserve">
<g>
	<g>
		<path d="M50,17H6c-0.6,0-1,0.4-1,1v36c0,0.6,0.4,1,1,1h44c0.6,0,1-0.4,1-1V18C51,17.4,50.6,17,50,17z M49,53H7V19h42V53z"/>
		<path d="M12,27h28c0.6,0,1-0.4,1-1s-0.4-1-1-1H12c-0.6,0-1,0.4-1,1S11.4,27,12,27z"/>
		<path d="M12,33h28c0.6,0,1-0.4,1-1s-0.4-1-1-1H12c-0.6,0-1,0.4-1,1C11,32.6,11.4,33,12,33z"/>
		<path d="M12,39h28c0.6,0,1-0.4,1-1s-0.4-1-1-1H12c-0.6,0-1,0.4-1,1S11.4,39,12,39z"/>
		<path d="M12,45h16c0.6,0,1-0.4,1-1s-0.4-1-1-1H12c-0.6,0-1,0.4-1,1S11.4,45,12,45z"/>
		<path d="M14,11c-0.6,0-1,0.4-1,1v2c0,0.6,0.4,1,1,1s1-0.4,1-1v-1h1c0.6,0,1-0.4,1-1s-0.4-1-1-1H14z"/>
		<path d="M22,11c-0.6,0-1,0.4-1,1s0.4,1,1,1h2c0.6,0,1-0.4,1-1s-0.4-1-1-1H22z"/>
		<path d="M30,11c-0.6,0-1,0.4-1,1s0.4,1,1,1h2c0.6,0,1-0.4,1-1s-0.4-1-1-1H30z"/>
		<path d="M38,11c-0.6,0-1,0.4-1,1s0.4,1,1,1h2c0.6,0,1-0.4,1-1s-0.4-1-1-1H38z"/>
		<path d="M46,11c-0.6,0-1,0.4-1,1s0.4,1,1,1h2c0.6,0,1-0.4,1-1s-0.4-1-1-1H46z"/>
		<path d="M56,11h-2c-0.6,0-1,0.4-1,1s0.4,1,1,1h1v1c0,0.6,0.4,1,1,1s1-0.4,1-1v-2C57,11.4,56.6,11,56,11z"/>
		<path d="M56,19c-0.6,0-1,0.4-1,1v2c0,0.6,0.4,1,1,1s1-0.4,1-1v-2C57,19.4,56.6,19,56,19z"/>
		<path d="M56,27c-0.6,0-1,0.4-1,1v2c0,0.6,0.4,1,1,1s1-0.4,1-1v-2C57,27.4,56.6,27,56,27z"/>
		<path d="M56,35c-0.6,0-1,0.4-1,1v2c0,0.6,0.4,1,1,1s1-0.4,1-1v-2C57,35.4,56.6,35,56,35z"/>
		<path d="M56,43c-0.6,0-1,0.4-1,1v1h-1c-0.6,0-1,0.4-1,1s0.4,1,1,1h2c0.6,0,1-0.4,1-1v-2C57,43.4,56.6,43,56,43z"/>
	</g>
</g>
</svg>
