<?xml version="1.0" encoding="utf-8"?>
<!-- Generator: Adobe Illustrator 27.7.0, SVG Export Plug-In . SVG Version: 6.00 Build 0)  -->
<svg version="1.1" id="Layer_1" xmlns="http://www.w3.org/2000/svg" xmlns:xlink="http://www.w3.org/1999/xlink" x="0px" y="0px"
	 viewBox="0 0 512 512" style="enable-background:new 0 0 512 512;" xml:space="preserve">
<style type="text/css">
	.st0{fill:#6F84A7;stroke:#6F84A7;stroke-width:28.3465;stroke-miterlimit:10;}
</style>
<path class="st0" d="M424.3,236.4L424.3,236.4c0-0.3-0.1-0.6-0.1-0.8c0-0.1,0-0.1,0-0.2c-0.1-0.2-0.1-0.5-0.2-0.7
	c0-0.1,0-0.1-0.1-0.2c-0.1-0.3-0.2-0.5-0.3-0.8c0,0,0,0,0-0.1l0,0l0,0l-53.2-100.5c-1.2-2.4-3.7-3.8-6.2-3.8h-20.3l27-31.5
	c2.5-2.9,2.3-7.5-0.8-10l-70.8-61c-1.4-1.2-3.3-1.8-5.2-1.7c-1.9,0.1-3.6,1-4.8,2.5l-87.8,101.9h-53.9c-2.6,0-5,1.4-6.2,3.8
	L88.2,233.7l0,0l0,0c0,0,0,0,0,0.1c-0.1,0.2-0.2,0.5-0.3,0.8c0,0.1,0,0.1-0.1,0.2c-0.1,0.2-0.1,0.5-0.2,0.7c0,0.1,0,0.1,0,0.2
	c-0.1,0.3-0.1,0.6-0.1,0.8l0,0c0,0.2,0,0.5,0,0.7v242.6c0,3.9,3.2,7.1,7.1,7.1h322.8c3.9,0,7.1-3.2,7.1-7.1V237.1
	C424.3,236.9,424.3,236.7,424.3,236.4z M295.4,42.2L355.5,94l-73.9,85.8H224l-27.1-23.3L295.4,42.2z M151.9,143.6h37.4l-7.7,9
	c-2.5,2.9-2.3,7.5,0.8,10l20,17.2h-15.4c-3.9,0-7.1,3.2-7.1,7.1s3.2,7.1,7.1,7.1h34.3h63.6h34.3c3.9,0,7.1-3.2,7.1-7.1
	s-3.2-7.1-7.1-7.1h-19l31.1-36.1h28.2l45.8,86.4H106.2L151.9,143.6z M410.1,472.7H101.5V244.2h308.7V472.7z"/>
</svg>
