<?xml version="1.0" encoding="utf-8"?>
<!-- Generator: Adobe Illustrator 26.3.1, SVG Export Plug-In . SVG Version: 6.00 Build 0)  -->
<svg version="1.1" id="Layer_1" xmlns="http://www.w3.org/2000/svg" xmlns:xlink="http://www.w3.org/1999/xlink" x="0px" y="0px"
	 viewBox="0 0 512 512" style="enable-background:new 0 0 512 512;" xml:space="preserve">
<style type="text/css">
	.st0{fill:#5A7197;}
</style>
<path class="st0" d="M434.6,235.2C434.6,235.2,434.6,235.2,434.6,235.2c0-0.3-0.1-0.6-0.1-0.9c0-0.1,0-0.1,0-0.2
	c-0.1-0.2-0.1-0.5-0.2-0.7c0-0.1,0-0.1-0.1-0.2c-0.1-0.3-0.2-0.5-0.3-0.8c0,0,0,0,0-0.1l0,0c0,0,0,0,0,0l-56.4-106.5
	c-1.3-2.5-3.9-4-6.6-4h-21.5L378,88.4c2.7-3.1,2.4-7.9-0.8-10.6l-75.1-64.7c-1.5-1.3-3.5-1.9-5.5-1.8c-2,0.1-3.8,1.1-5.1,2.6
	l-93.1,108h-57.1c-2.8,0-5.3,1.5-6.6,4L78.3,232.4c0,0,0,0,0,0l0,0c0,0,0,0,0,0.1c-0.1,0.2-0.2,0.5-0.3,0.8c0,0.1,0,0.1-0.1,0.2
	c-0.1,0.2-0.1,0.5-0.2,0.7c0,0.1,0,0.1,0,0.2c-0.1,0.3-0.1,0.6-0.1,0.9c0,0,0,0,0,0c0,0.2,0,0.5,0,0.7v257.2c0,4.1,3.4,7.5,7.5,7.5
	h342.2c4.1,0,7.5-3.4,7.5-7.5V236C434.6,235.7,434.6,235.5,434.6,235.2z M298,29.4l63.7,54.9l-78.3,90.9h-61.1l-28.7-24.7L298,29.4z
	 M145.9,136.9h39.6l-8.2,9.5c-2.7,3.1-2.4,7.9,0.8,10.6l21.2,18.2H183c-4.1,0-7.5,3.4-7.5,7.5s3.4,7.5,7.5,7.5h36.4h67.4h36.4
	c4.1,0,7.5-3.4,7.5-7.5s-3.4-7.5-7.5-7.5h-20.1l33-38.3h29.9l48.5,91.6H97.4L145.9,136.9z M419.6,485.7H92.4V243.5h327.2V485.7z"/>
</svg>
