<svg xmlns="http://www.w3.org/2000/svg" xmlns:xlink="http://www.w3.org/1999/xlink" version="1.1" x="0px" y="0px" viewBox="0 0 64 64" enable-background="new 0 0 64 64" xml:space="preserve"><g><g><path d="M61,62.5H3c-0.828,0-1.5-0.671-1.5-1.5V3c0-0.829,0.672-1.5,1.5-1.5h58c0.828,0,1.5,0.671,1.5,1.5v58    C62.5,61.829,61.828,62.5,61,62.5z M4.5,59.5h55v-55h-55V59.5z"></path><path d="M61,14.5H3c-0.828,0-1.5-0.671-1.5-1.5s0.672-1.5,1.5-1.5h58c0.828,0,1.5,0.671,1.5,1.5S61.828,14.5,61,14.5z"></path><path d="M56,9.5h-2.88c-0.828,0-1.5-0.671-1.5-1.5s0.672-1.5,1.5-1.5H56c0.828,0,1.5,0.671,1.5,1.5S56.828,9.5,56,9.5z"></path><path d="M47,9.5h-2.88c-0.828,0-1.5-0.671-1.5-1.5s0.672-1.5,1.5-1.5H47c0.828,0,1.5,0.671,1.5,1.5S47.828,9.5,47,9.5z"></path></g><g><path d="M50.93,62.5H13.07c-0.569,0-1.09-0.323-1.344-0.833C10.191,58.576,9.38,55.101,9.38,51.62    c0-4.013,1.063-7.948,3.076-11.379C16.497,33.309,23.986,29,32,29s15.503,4.309,19.546,11.245    c2.011,3.428,3.074,7.362,3.074,11.375c0,3.481-0.812,6.956-2.347,10.047C52.02,62.177,51.499,62.5,50.93,62.5z M14.023,59.5    h35.953c1.091-2.48,1.644-5.126,1.644-7.88c0-3.48-0.921-6.89-2.664-9.861C45.447,35.738,38.95,32,32,32    s-13.447,3.738-16.954,9.755c-1.745,2.975-2.666,6.385-2.666,9.865C12.38,54.374,12.933,57.02,14.023,59.5z"></path><path d="M38.76,62.5H25.24c-0.728,0-1.35-0.522-1.477-1.238c-0.533-3.006-0.804-6.25-0.804-9.642    c0-3.846,0.364-7.625,1.052-10.926C25.562,33.262,28.474,29,32,29s6.438,4.262,7.988,11.694c0.688,3.302,1.052,7.08,1.052,10.926    c0,3.392-0.271,6.636-0.804,9.642C40.109,61.978,39.487,62.5,38.76,62.5z M26.517,59.5h10.967c0.365-2.471,0.557-5.169,0.557-7.88    c0-3.644-0.342-7.21-0.989-10.314C35.718,34.912,33.498,32,32,32s-3.718,2.912-5.051,9.306c-0.647,3.104-0.989,6.67-0.989,10.314    C25.96,54.331,26.151,57.029,26.517,59.5z"></path><path d="M53.12,53.125H10.88c-0.828,0-1.5-0.671-1.5-1.5s0.672-1.5,1.5-1.5h42.24c0.828,0,1.5,0.671,1.5,1.5    S53.948,53.125,53.12,53.125z"></path><path d="M50.36,42.5H13.747c-0.828,0-1.5-0.671-1.5-1.5s0.672-1.5,1.5-1.5H50.36c0.828,0,1.5,0.671,1.5,1.5    S51.188,42.5,50.36,42.5z"></path></g><path d="M38.25,9.5H8.75c-0.828,0-1.5-0.671-1.5-1.5s0.672-1.5,1.5-1.5h29.5c0.828,0,1.5,0.671,1.5,1.5S39.078,9.5,38.25,9.5z"></path></g></svg>